<svg width="107" height="33" viewBox="0 0 107 33" fill="none" xmlns="http://www.w3.org/2000/svg">
<path d="M53.012 33V32.9464C53.0654 32.8794 53.159 32.8392 53.2393 32.8526C53.627 32.8392 54.0013 32.8392 54.3891 32.8526C54.4693 32.8526 54.5629 32.8794 54.6164 32.9464V33H53.012Z" fill="#D1EFFA"/>
<path d="M54.6163 32.9462C54.0815 32.9328 53.5467 32.9328 53.0119 32.9462C52.2766 32.906 51.5412 32.8792 50.8059 32.8256C48.8539 32.6783 46.9152 32.3835 45.0167 31.9414C38.452 30.414 32.6896 27.3457 27.6625 22.8841C27.1945 22.4688 26.7533 22.04 26.2987 21.6113C26.1918 21.5175 26.0982 21.3835 26.0447 21.2495C25.9645 21.0619 26.0046 20.861 26.1383 20.7136C26.272 20.5662 26.4859 20.5126 26.6731 20.593C26.7934 20.6466 26.9137 20.7002 27.0207 20.7672C31.8205 23.7416 37.0616 25.9121 42.5566 27.1984C44.4017 27.6271 46.2601 27.9621 48.1319 28.2032C50.8193 28.5382 53.5334 28.6588 56.2341 28.565C57.6914 28.5248 59.1354 28.3908 60.5794 28.2032C63.9486 27.7745 67.2777 27.0108 70.4999 25.9389C72.1979 25.3762 73.8557 24.7331 75.4735 23.9828C75.7142 23.8488 76.0083 23.8086 76.2757 23.8756C76.7169 23.9828 76.9843 24.4383 76.8774 24.8805C76.864 24.9341 76.8372 25.001 76.8105 25.0546C76.7035 25.2556 76.5565 25.4298 76.3693 25.5638C74.8318 26.7696 73.1739 27.8281 71.4224 28.7124C68.12 30.3872 64.5903 31.5796 60.9537 32.2629C58.8546 32.6381 56.7422 32.8658 54.6163 32.9462Z" fill="#00A8E1"/>
<path d="M34.8155 5.788C35.1497 5.58703 35.4973 5.37265 35.8583 5.18508C36.7942 4.70274 37.8371 4.46157 38.8933 4.51516C39.6554 4.55536 40.3506 4.76973 40.8854 5.33246C41.3935 5.85499 41.5807 6.49811 41.6342 7.19482C41.6475 7.3422 41.6475 7.48958 41.6475 7.65036V14.5907C41.6475 15.1936 41.5673 15.274 40.9657 15.274H39.3345C39.2276 15.274 39.1206 15.274 39.0136 15.2606C38.8532 15.2472 38.7195 15.1132 38.6928 14.9524C38.666 14.8051 38.666 14.6577 38.666 14.5103V8.30688C38.6794 8.05231 38.6526 7.81114 38.5858 7.56997C38.4788 7.15463 38.1045 6.85986 37.6766 6.83307C36.8878 6.77947 36.099 6.94025 35.377 7.27521C35.27 7.30201 35.2032 7.40919 35.2166 7.51638V14.5639C35.2166 14.6979 35.2166 14.8185 35.1898 14.9524C35.1898 15.14 35.0428 15.274 34.8556 15.274C34.655 15.2874 34.4545 15.2874 34.2406 15.2874H32.8233C32.3286 15.2874 32.2217 15.1668 32.2217 14.6711V8.33368C32.2217 8.1059 32.2083 7.86474 32.1548 7.63696C32.0612 7.18142 31.6735 6.85986 31.2189 6.83307C30.4167 6.77947 29.6012 6.94025 28.8792 7.28861C28.7722 7.31541 28.7054 7.43599 28.7321 7.54318V14.6845C28.7321 15.1802 28.6252 15.2874 28.1305 15.2874H26.3389C25.8709 15.2874 25.7506 15.1534 25.7506 14.6979V5.39945C25.7506 5.29226 25.764 5.18508 25.7907 5.07789C25.8442 4.91711 26.0046 4.82332 26.1651 4.82332H27.8363C28.077 4.82332 28.2241 4.9707 28.3043 5.19847C28.3711 5.38605 28.4112 5.56023 28.4781 5.7612C28.6118 5.7612 28.692 5.66741 28.7856 5.61382C29.5209 5.15828 30.2964 4.76973 31.1655 4.60895C31.834 4.47497 32.5025 4.47497 33.171 4.60895C33.7993 4.74293 34.3609 5.11808 34.7219 5.65402C34.7486 5.69421 34.7753 5.72101 34.8021 5.7478C34.7887 5.7612 34.8021 5.7612 34.8155 5.788Z" fill="#00A8E1"/>
<path d="M62.5314 12.4603C62.6116 12.1924 62.6918 11.9378 62.772 11.6698C63.387 9.5931 64.002 7.52976 64.6171 5.45303L64.6973 5.21186C64.7641 4.97069 64.9914 4.82331 65.2321 4.82331H67.2643C67.7724 4.82331 67.8793 4.97069 67.7055 5.45303L66.9033 7.58336C66.0075 9.91466 65.1118 12.2594 64.216 14.5907C64.1892 14.6711 64.1491 14.7514 64.1224 14.8318C64.0288 15.1132 63.748 15.3008 63.4539 15.274C62.8656 15.2606 62.2773 15.2606 61.689 15.274C61.2746 15.2874 61.0339 15.0998 60.8868 14.7246C60.5526 13.8404 60.205 12.9427 59.8707 12.0584C59.0685 9.95485 58.253 7.85132 57.4508 5.73439C57.3706 5.57361 57.3171 5.38604 57.277 5.21186C57.2369 4.94389 57.3304 4.80991 57.5978 4.80991C58.3599 4.79651 59.122 4.80991 59.8707 4.80991C60.1916 4.80991 60.3387 5.02428 60.4189 5.30565C60.566 5.81478 60.713 6.33731 60.8735 6.84645C61.4216 8.70881 61.9564 10.5846 62.5046 12.4469C62.4912 12.4603 62.5046 12.4603 62.5314 12.4603Z" fill="#525C6B"/>
<path d="M15.0546 6.29717C15.1482 6.27037 15.2284 6.21678 15.2819 6.13639C15.5225 5.89522 15.7766 5.66745 16.044 5.45308C16.7392 4.91715 17.6083 4.64918 18.4773 4.71617C18.8249 4.72957 18.9453 4.83676 18.972 5.17171C18.9987 5.62726 18.9854 6.0962 18.9854 6.55174C18.9987 6.73931 18.9854 6.91349 18.9586 7.10107C18.9051 7.34224 18.8116 7.43603 18.5709 7.46282C18.3837 7.47622 18.2099 7.46282 18.0227 7.44942C17.1269 7.36903 16.2579 7.54321 15.4156 7.82458C15.2284 7.89157 15.2284 8.02555 15.2284 8.17293V14.6041C15.2284 14.7247 15.2284 14.8319 15.215 14.9525C15.2017 15.1266 15.068 15.2606 14.8941 15.2606C14.8006 15.274 14.6936 15.274 14.6 15.274H12.8619C12.7683 15.274 12.6614 15.274 12.5678 15.2606C12.394 15.2472 12.2603 15.0998 12.2469 14.9257C12.2335 14.8185 12.2335 14.7113 12.2335 14.6041V5.49327C12.2335 4.87695 12.3004 4.80996 12.9154 4.80996H14.1989C14.5465 4.80996 14.707 4.93054 14.8006 5.2655C14.8941 5.60046 14.9744 5.93542 15.0546 6.29717Z" fill="#00A8E1"/>
<path d="M77.5994 19.8828C78.4818 19.9096 79.3508 19.9632 80.2065 20.191C80.4472 20.258 80.6745 20.3384 80.9017 20.4455C81.2093 20.5661 81.4098 20.8609 81.4499 21.1824C81.5034 21.5576 81.5168 21.9462 81.49 22.3347C81.3162 24.6258 80.6076 26.8365 79.431 28.8061C79.0032 29.5162 78.4818 30.1593 77.8801 30.722C77.7598 30.8426 77.6127 30.9364 77.4523 30.99C77.1983 31.057 77.0378 30.923 77.0244 30.6684C77.0378 30.5345 77.0646 30.4005 77.118 30.2665C77.586 29.0071 78.0406 27.761 78.4016 26.4614C78.6155 25.7513 78.7625 25.0278 78.8561 24.2909C78.8829 24.0229 78.8962 23.7549 78.8695 23.487C78.8561 23.0314 78.562 22.6429 78.1208 22.5089C77.7063 22.3749 77.2785 22.2945 76.8373 22.2677C75.6072 22.2141 74.3772 22.2677 73.1605 22.4285L71.5427 22.6295C71.3689 22.6429 71.2085 22.6295 71.1149 22.4687C71.0213 22.3079 71.0614 22.1471 71.155 21.9863C71.262 21.839 71.3957 21.705 71.5561 21.6112C72.5455 20.9011 73.6552 20.4723 74.8318 20.191C75.7409 20.0034 76.6635 19.9096 77.5994 19.8828Z" fill="#00A8E1"/>
<path d="M71.9973 10.0486V14.872C71.9706 15.1399 71.8503 15.2605 71.5829 15.2739C70.8609 15.2873 70.1523 15.2873 69.4303 15.2739C69.1629 15.2739 69.0426 15.1399 69.0158 14.8854C69.0024 14.805 69.0024 14.7112 69.0024 14.6308V5.35917C69.0158 4.94383 69.1228 4.82324 69.5372 4.82324H71.4625C71.877 4.82324 71.9973 4.94383 71.9973 5.35917V10.0486Z" fill="#525C6B"/>
<path d="M20.269 10.0218V5.2654C20.2824 4.94384 20.4027 4.82325 20.7236 4.80985C21.4188 4.79646 22.114 4.79646 22.8093 4.80985C23.1168 4.80985 23.2104 4.90364 23.2371 5.2118C23.2505 5.33239 23.2505 5.43957 23.2505 5.56016V14.4834C23.2505 14.6308 23.2371 14.7782 23.2238 14.9256C23.2104 15.0997 23.0767 15.2203 22.9029 15.2337C22.8227 15.2471 22.7558 15.2471 22.6756 15.2471H20.8172C20.7503 15.2471 20.6968 15.2471 20.63 15.2337C20.4428 15.2203 20.2824 15.0729 20.269 14.8854C20.2556 14.7782 20.2556 14.671 20.2556 14.5638C20.269 13.0766 20.269 11.5492 20.269 10.0218Z" fill="#00A8E1"/>
<path d="M21.8198 0.0133093C22.0337 -8.8972e-05 22.2477 0.0401059 22.4482 0.107097C23.1702 0.348267 23.5445 0.977987 23.4777 1.79528C23.4242 2.49199 22.9028 3.05472 22.2075 3.16191C21.9134 3.2155 21.6059 3.2155 21.3118 3.16191C20.5497 3.01453 19.9881 2.4518 20.0416 1.48712C20.1218 0.535843 20.7502 0.0133093 21.8198 0.0133093Z" fill="#00A8E1"/>
<path d="M70.5133 0.0134205C70.7807 -0.0133761 71.0481 0.0402171 71.3021 0.147403C71.8235 0.348378 72.1845 0.830716 72.2112 1.39344C72.3182 2.61269 71.5026 3.22901 70.4197 3.20221C70.2726 3.20221 70.1255 3.17542 69.9785 3.14862C69.1495 2.94765 68.7217 2.30453 68.8019 1.38005C68.8688 0.64314 69.4437 0.0938102 70.2325 0.0268188C70.3261 0.0134205 70.4197 2.21841e-05 70.5133 0.0134205Z" fill="#525C6B"/>
<path d="M10.2548 8.92324C10.2013 8.22653 10.0141 7.54321 9.73335 6.91349C9.18518 5.76124 8.34287 4.91715 7.05935 4.62238C5.58865 4.30083 4.26503 4.62238 3.06173 5.52007C2.98151 5.60046 2.88792 5.66745 2.78096 5.72105C2.75422 5.70765 2.72748 5.69425 2.72748 5.68085C2.68737 5.54687 2.66063 5.41288 2.62052 5.2789C2.51356 4.94394 2.37986 4.82336 2.01887 4.82336C1.61777 4.82336 1.2033 4.83676 0.802199 4.82336C0.494689 4.80996 0.21392 4.85016 0 5.09133C0 9.78073 0 14.4835 0.01337 19.1595C0.18718 19.4409 0.45458 19.4945 0.762089 19.4811C1.24341 19.4677 1.72473 19.4811 2.20605 19.4811C3.04836 19.4811 3.04836 19.4811 3.04836 18.6504V14.8319C3.04836 14.7381 3.00825 14.6309 3.10184 14.5505C3.77034 15.0731 4.58591 15.3946 5.42821 15.475C6.60477 15.5956 7.67437 15.3008 8.57016 14.4969C9.22529 13.894 9.70661 13.1169 9.96064 12.2594C10.3216 11.1608 10.3484 10.0487 10.2548 8.92324ZM7.05935 11.6967C6.96576 12.112 6.75184 12.4872 6.44433 12.7686C6.09671 13.0633 5.66887 13.2375 5.21429 13.2375C4.53243 13.2777 3.86393 13.1303 3.26228 12.8087C3.11521 12.7418 3.02162 12.5944 3.03499 12.4336V10.0085C3.03499 9.2046 3.04836 8.40071 3.03499 7.59681C3.02162 7.40923 3.12858 7.24845 3.30239 7.18146C4.03774 6.8331 4.79983 6.67232 5.60202 6.8331C6.16356 6.91349 6.64488 7.27525 6.87217 7.79778C7.07272 8.22653 7.19305 8.69547 7.21979 9.16441C7.30001 10.0219 7.30001 10.8794 7.05935 11.6967Z" fill="#00A8E1"/>
<path d="M106.987 9.21806V9.27165C106.933 9.21806 106.906 9.13767 106.933 9.07068V8.96349C106.933 8.96349 106.933 8.95009 106.947 8.95009H106.933V8.81611H106.96C106.96 8.80271 106.947 8.80271 106.947 8.78931C106.92 8.53474 106.866 8.28018 106.799 8.03901C106.305 6.27043 105.195 5.10478 103.39 4.64924C102.548 4.44826 101.692 4.42147 100.836 4.55545C99.0315 4.82342 97.7346 5.78809 97.1062 7.50308C96.4912 9.13767 96.5046 10.933 97.1196 12.5676C97.6544 14.0548 98.724 14.9927 100.262 15.3813C101.077 15.5822 101.933 15.6358 102.775 15.5153C105.583 15.1803 106.746 13.05 106.933 11.201H106.92V11.0134C106.906 10.933 106.893 10.866 106.973 10.8125V10.8393C106.973 10.8259 106.987 10.7991 107 10.7857V9.24485C107 9.23146 106.987 9.23146 106.987 9.21806ZM103.778 11.7637C103.698 12.0451 103.577 12.2997 103.404 12.5408C103.109 12.9562 102.641 13.2241 102.133 13.2643C101.879 13.2911 101.625 13.2911 101.371 13.2375C100.81 13.1304 100.342 12.7552 100.114 12.2327C99.9139 11.8173 99.7936 11.3618 99.7535 10.9062C99.6866 10.1157 99.6733 9.32524 99.8605 8.54814C99.9273 8.23998 100.061 7.93182 100.221 7.66386C100.516 7.18152 101.024 6.87336 101.585 6.83316C101.839 6.80636 102.093 6.80636 102.347 6.85996C102.882 6.96714 103.323 7.3155 103.564 7.81124C103.791 8.28018 103.925 8.80271 103.952 9.32524C103.965 9.56641 103.978 9.80758 103.965 10.0488C104.005 10.6383 103.938 11.2144 103.778 11.7637Z" fill="#525C6B"/>
<path d="M83.549 0.107178H81.6906C81.1825 0.107178 81.0889 0.200966 81.0889 0.710101V5.05115C81.0889 5.14494 81.1291 5.23872 81.0622 5.33251C80.9419 5.31911 80.875 5.23872 80.7814 5.18513C79.391 4.36784 77.9336 4.22045 76.4629 4.90377C75.4334 5.38611 74.7917 6.257 74.3772 7.28866C73.9761 8.28014 73.8825 9.3252 73.9093 10.3837C73.9093 11.3751 74.1365 12.3532 74.5778 13.2375C75.0858 14.2156 75.8212 14.9659 76.8908 15.2874C78.3481 15.743 79.7118 15.5152 80.9552 14.5907C81.0488 14.5371 81.1023 14.4434 81.2226 14.4166C81.2895 14.5639 81.343 14.7247 81.3697 14.8855C81.4232 15.0999 81.6104 15.2473 81.8377 15.2473H82.1585C82.6399 15.2473 83.1078 15.2606 83.5758 15.2473C83.9501 15.2473 84.0571 15.1267 84.0704 14.7381V0.616313C84.0571 0.200966 83.9501 0.107178 83.549 0.107178ZM81.1023 9.96832V12.4068C81.1291 12.5676 81.0355 12.715 80.8884 12.782C80.2466 13.1437 79.5113 13.2911 78.7893 13.1839C78.1743 13.1169 77.6395 12.7418 77.3587 12.1924C77.1448 11.7637 77.0245 11.3082 76.9844 10.8392C76.8774 9.99512 76.9442 9.13763 77.1448 8.32033C77.2116 8.09256 77.2919 7.87819 77.4122 7.66382C77.693 7.14128 78.2278 6.80632 78.816 6.76613C79.5247 6.69914 80.2333 6.83312 80.875 7.12788C81.0355 7.18148 81.1291 7.34226 81.1157 7.51643C81.0889 8.34713 81.1023 9.15103 81.1023 9.96832Z" fill="#525C6B"/>
<path d="M46.5276 10.8927C47.5303 11.0803 48.5598 11.0937 49.5626 10.9329C50.1508 10.8525 50.7124 10.6783 51.2338 10.397C51.8354 10.0486 52.2767 9.56626 52.4638 8.89634C52.9318 7.20816 52.2098 5.50657 50.4583 4.87685C49.6027 4.59549 48.6935 4.5017 47.7977 4.62228C45.6853 4.86345 44.3081 6.02911 43.6798 8.05225C43.2385 9.43227 43.292 10.8391 43.653 12.2325C44.121 14.0145 45.2975 15.073 47.0757 15.4481C48.0919 15.6759 49.1213 15.6357 50.1375 15.4749C50.6723 15.3811 51.2071 15.2471 51.7151 15.0462C52.0226 14.9256 52.1831 14.738 52.1697 14.3896C52.1563 14.0681 52.1697 13.7331 52.1697 13.3982C52.1697 12.9962 52.0093 12.8756 51.6215 12.9694C51.2338 13.0632 50.8594 13.1436 50.4717 13.224C49.6428 13.3982 48.7871 13.3982 47.9582 13.2508C46.8217 13.023 46.0864 12.0449 46.1532 10.8391C46.2735 10.8525 46.4072 10.8659 46.5276 10.8927ZM46.1933 8.84275C46.2334 8.52119 46.327 8.21303 46.4473 7.91827C46.8484 6.94019 47.6908 6.60523 48.5464 6.65883C48.7871 6.67222 49.0277 6.72582 49.255 6.81961C49.6027 6.96699 49.8299 7.28855 49.8701 7.6637C49.9102 7.89147 49.8968 8.13264 49.83 8.36041C49.6695 8.84275 49.2818 9.04372 48.8138 9.13751C48.5331 9.2045 48.2389 9.2313 47.9448 9.2045C47.4234 9.2045 46.8886 9.16431 46.3671 9.08392C46.1666 9.05712 46.1666 9.05712 46.1933 8.84275Z" fill="#00A8E1"/>
<path d="M91.6245 11.0268C92.4 10.9732 93.1754 10.8258 93.8707 10.4506C94.5793 10.1023 95.074 9.44576 95.221 8.66866C95.3146 8.18632 95.3146 7.67718 95.2077 7.19484C94.9269 5.989 94.1648 5.23869 93.015 4.85014C92.3732 4.64917 91.6914 4.56878 91.0229 4.59557C88.7767 4.64917 87.0654 5.78802 86.3701 8.03894C85.9022 9.52615 85.969 11.0402 86.4236 12.5274C86.8915 14.0548 87.9611 14.9793 89.4853 15.3946C90.1404 15.5554 90.8223 15.6224 91.4908 15.5956C92.4668 15.5822 93.4428 15.3946 94.3654 15.0462C94.7531 14.8989 94.8467 14.7649 94.8467 14.3495V13.3849C94.8333 12.9963 94.6729 12.8623 94.2851 12.9561C93.991 13.0365 93.7102 13.1035 93.4161 13.1705C92.5203 13.3849 91.5844 13.4251 90.6753 13.2643C89.7661 13.0901 89.1511 12.5676 88.9104 11.6565C88.8436 11.3885 88.7901 11.1205 88.7633 10.8392C88.8302 10.8392 88.897 10.8392 88.9505 10.866C89.8329 11.0268 90.7287 11.0937 91.6245 11.0268ZM88.8302 8.88303C88.9238 8.3605 89.0441 7.85136 89.365 7.42262C89.8597 6.7661 90.5415 6.57852 91.317 6.65891C91.3839 6.65891 91.4373 6.68571 91.5042 6.68571C92.4401 6.83309 92.6674 7.58339 92.4936 8.3069C92.3599 8.84283 91.9187 9.04381 91.424 9.1376C91.1566 9.19119 90.8758 9.21799 90.595 9.20459C90.0469 9.19119 89.5121 9.15099 88.9773 9.07061C88.8569 9.05721 88.8035 9.00361 88.8302 8.88303Z" fill="#525C6B"/>
</svg>
