<svg width="323" height="14" viewBox="0 0 323 14" fill="none" xmlns="http://www.w3.org/2000/svg">
<path d="M277.108 6.70564C277.108 5.06362 275.945 4.00052 274.249 4.00052H268.381V11.3686H270.301V9.40024H273.395L274.601 11.3686H276.863L275.487 9.1792C276.489 8.78974 277.108 7.90558 277.108 6.70564ZM270.301 5.58991H273.715C274.292 5.58991 275.188 5.58991 275.188 6.70564C275.188 7.81085 274.292 7.81085 273.715 7.81085H270.301V5.58991Z" fill="#B6B6B6"/>
<path d="M282.624 11.4738C285.216 11.4738 286.976 10.5475 286.976 8.27398C286.976 5.98989 285.216 5.06362 282.624 5.06362C280.02 5.06362 278.271 5.98989 278.271 8.27398C278.271 10.5475 280.02 11.4738 282.624 11.4738ZM282.624 9.96863C280.927 9.96863 280.095 9.55812 280.095 8.27398C280.095 6.97931 280.927 6.56881 282.624 6.56881C284.309 6.56881 285.141 6.97931 285.141 8.27398C285.141 9.55812 284.309 9.96863 282.624 9.96863Z" fill="#B6B6B6"/>
<path d="M299.398 5.16888L297.339 9.94758L295.419 5.16888H293.242L291.322 9.9581L289.263 5.16888H287.225L290.052 11.3686H292.485L294.331 7.05299L296.176 11.3686H298.609L301.436 5.16888H299.398Z" fill="#B6B6B6"/>
<path d="M308.635 2.94794V6.13725C307.952 5.43202 306.853 5.06362 305.498 5.06362C303.482 5.06362 301.754 5.90568 301.754 8.27398C301.754 10.6423 303.482 11.4738 305.498 11.4738C306.853 11.4738 307.952 11.1054 308.635 10.4002V11.3686H310.459V2.94794H308.635ZM306.106 9.96863C304.474 9.96863 303.589 9.49497 303.589 8.27398C303.589 7.04247 304.474 6.56881 306.106 6.56881C307.739 6.56881 308.635 7.04247 308.635 8.27398C308.635 9.49497 307.739 9.96863 306.106 9.96863Z" fill="#B6B6B6"/>
<path d="M318.784 5.16888L316.33 10.2844L313.642 5.16888H311.614L314.868 11.3686H315.807L314.538 14H316.554L320.8 5.16888H318.784Z" fill="#B6B6B6"/>
<path d="M321.176 9.9581V11.3686H323V9.9581H321.176Z" fill="#B6B6B6"/>
<path d="M262.55 4.393H257.666L256.74 3.87075C256.502 3.73781 256.197 3.82327 256.063 4.06066C255.929 4.29804 256.015 4.6019 256.254 4.73484L257.389 5.38054V10.5271C257.389 10.9639 257.742 11.3152 258.181 11.3152C258.619 11.3152 258.972 10.9639 258.972 10.5271V8.4381L260.48 10.9259C260.709 11.2963 261.195 11.4197 261.567 11.2013C261.939 10.9734 262.063 10.4891 261.844 10.1188L260.537 7.95382H263.542V10.5271C263.542 10.9639 263.895 11.3152 264.333 11.3152C264.772 11.3152 265.125 10.9639 265.125 10.5271V7.93483C265.24 7.89685 265.325 7.7829 265.325 7.65946V5.57994L262.55 4.393Z" fill="#B6B6B6"/>
<path d="M270.295 3.20606H268.311V3.60487H270.295V3.20606Z" fill="#B6B6B6"/>
<path d="M269.645 1.35338L267.924 2.33657L268.124 2.68246L269.845 1.69927L269.645 1.35338Z" fill="#B6B6B6"/>
<path d="M268.195 0L267.209 1.71436L267.557 1.91241L268.543 0.19805L268.195 0Z" fill="#B6B6B6"/>
<path d="M266.127 3.60487L266.918 2.21852L265.926 0.642266L264.123 2.64582L263.15 2.41793L263.408 3.44345L262.969 3.92772L265.755 5.10517L267.119 3.60487H266.127ZM265.03 3.00665C264.868 3.00665 264.734 2.87372 264.734 2.71229C264.734 2.55087 264.868 2.41793 265.03 2.41793C265.192 2.41793 265.325 2.55087 265.325 2.71229C265.335 2.87372 265.201 3.00665 265.03 3.00665Z" fill="#B6B6B6"/>
<path d="M5.21507 4H0.135071V11H5.21507C7.02507 11 8.61507 9.88 8.61507 7.5C8.61507 5.12 7.02507 4 5.21507 4ZM4.53507 9.49H1.93507V5.51H4.53507C5.89507 5.51 6.81507 5.8 6.81507 7.5C6.81507 9.2 5.89507 9.49 4.53507 9.49Z" fill="#B6B6B6"/>
<path d="M13.8948 9.71C12.7548 9.71 11.8548 9.4 11.6648 8.46H18.0248C18.0248 5.78 16.2348 5.01 13.9948 5.01C11.6048 5.01 9.91476 5.89 9.91476 8.06C9.91476 10.22 11.6548 11.1 13.8948 11.1C16.0748 11.1 17.5348 10.39 17.9248 8.89H16.2248C15.7948 9.49 15.0748 9.71 13.8948 9.71ZM13.9848 6.31C15.0648 6.31 15.9048 6.54 16.1948 7.37H11.7248C11.9948 6.54 12.8148 6.31 13.9848 6.31Z" fill="#B6B6B6"/>
<path d="M19.1109 8.93C19.1109 10.81 21.2109 11.1 23.4809 11.1C25.7509 11.1 27.2509 10.81 27.2509 9.15C27.2509 7.58 25.6809 7.52 23.3809 7.35C21.3509 7.2 21.0409 7.14 21.0409 6.77C21.0409 6.43 21.5009 6.31 23.1209 6.31C24.7109 6.31 25.3309 6.43 25.3309 6.92H27.0509C27.0509 5.3 25.4409 5.01 23.2209 5.01C21.1209 5.01 19.3209 5.3 19.3209 6.84C19.3209 8.26 20.5909 8.46 23.1809 8.61C25.2509 8.74 25.5309 8.77 25.5309 9.22C25.5309 9.68 25.2309 9.8 23.3809 9.8C21.4709 9.8 20.8209 9.56 20.8209 8.93H19.1109Z" fill="#B6B6B6"/>
<path d="M28.6023 3V4.49H30.3123V3H28.6023ZM28.6023 5.11V11H30.3123V5.11H28.6023Z" fill="#B6B6B6"/>
<path d="M38.1032 5.11V6.06C37.5132 5.4 36.5232 5.01 35.1232 5.01C33.1032 5.01 31.6632 5.89 31.6632 7.97C31.6632 10.05 33.1032 10.93 35.1232 10.93C36.5132 10.93 37.5032 10.54 38.1032 9.88C38.0332 11.39 37.3732 12.07 35.6032 12.07C34.3032 12.07 32.9832 11.78 32.2932 11.65V13.03C32.8632 13.18 34.2732 13.5 35.9832 13.5C38.2132 13.5 39.8232 12.46 39.8232 10.06V5.11H38.1032ZM35.7432 9.5C34.1332 9.5 33.3732 9.05 33.3732 7.97C33.3732 6.89 34.1332 6.44 35.7432 6.44C37.3532 6.44 38.1032 6.89 38.1032 7.97C38.1032 9.05 37.3532 9.5 35.7432 9.5Z" fill="#B6B6B6"/>
<path d="M46.5192 5.01C45.0892 5.01 43.9292 5.48 43.0892 6.14V5.11H41.3792V11H43.0892V7.7C43.6192 7.08 44.8592 6.49 46.0092 6.49C47.4192 6.49 47.8392 7.14 47.8392 8.39V11H49.5592L49.5792 7.74C49.5592 5.57 48.0892 5.01 46.5192 5.01Z" fill="#B6B6B6"/>
<path d="M54.8557 9.71C53.7157 9.71 52.8157 9.4 52.6257 8.46H58.9857C58.9857 5.78 57.1957 5.01 54.9557 5.01C52.5657 5.01 50.8757 5.89 50.8757 8.06C50.8757 10.22 52.6157 11.1 54.8557 11.1C57.0357 11.1 58.4957 10.39 58.8857 8.89H57.1857C56.7557 9.49 56.0357 9.71 54.8557 9.71ZM54.9457 6.31C56.0257 6.31 56.8657 6.54 57.1557 7.37H52.6857C52.9557 6.54 53.7757 6.31 54.9457 6.31Z" fill="#B6B6B6"/>
<path d="M66.6292 3V6.03C65.9892 5.36 64.9592 5.01 63.6892 5.01C61.7992 5.01 60.1792 5.81 60.1792 8.06C60.1792 10.31 61.7992 11.1 63.6892 11.1C64.9592 11.1 65.9892 10.75 66.6292 10.08V11H68.3392V3H66.6292ZM64.2592 9.67C62.7292 9.67 61.8992 9.22 61.8992 8.06C61.8992 6.89 62.7292 6.44 64.2592 6.44C65.7892 6.44 66.6292 6.89 66.6292 8.06C66.6292 9.22 65.7892 9.67 64.2592 9.67Z" fill="#B6B6B6"/>
<path d="M85.0855 9.75L83.6655 9.14C84.0455 8.75 84.4055 8.29 84.7255 7.77L83.1855 7.19C82.8655 7.63 82.4855 8.05 82.0555 8.42C81.2455 8.05 80.5955 7.73 80.0955 7.46C81.6755 7.05 82.6155 6.51 82.6155 5.56C82.6155 4.51 81.2955 3.9 79.6755 3.9C77.7455 3.9 76.6955 4.51 76.6955 5.66C76.6955 6.2 76.8755 6.65 77.2755 7.1C76.2355 7.31 75.1655 7.79 75.1655 9.07C75.1655 10.31 76.1755 11.1 78.6755 11.1C80.1155 11.1 81.3755 10.78 82.4555 10.11C83.0255 10.39 83.6455 10.68 84.3155 11L85.0855 9.75ZM79.6755 5.16C80.4455 5.16 80.9055 5.37 80.9055 5.75C80.9055 6.24 80.0755 6.54 79.0055 6.77C78.5755 6.43 78.4055 6.14 78.4055 5.86C78.4055 5.37 78.9055 5.16 79.6755 5.16ZM78.7455 9.67C77.6055 9.67 76.8755 9.42 76.8755 8.79C76.8755 8.3 77.4655 8.05 78.1955 7.87C78.8155 8.3 79.6355 8.74 80.7055 9.27C80.1155 9.52 79.4655 9.67 78.7455 9.67Z" fill="#B6B6B6"/>
<path d="M97.4171 4H91.9171V11H93.7171V9.13H97.4171C99.0071 9.13 100.097 8.13 100.097 6.57C100.097 5.01 99.0071 4 97.4171 4ZM96.9171 7.62H93.7171V5.51H96.9171C97.4571 5.51 98.2971 5.51 98.2971 6.57C98.2971 7.62 97.4571 7.62 96.9171 7.62Z" fill="#B6B6B6"/>
<path d="M105.318 11.1C107.748 11.1 109.398 10.22 109.398 8.06C109.398 5.89 107.748 5.01 105.318 5.01C102.878 5.01 101.238 5.89 101.238 8.06C101.238 10.22 102.878 11.1 105.318 11.1ZM105.318 9.67C103.728 9.67 102.948 9.28 102.948 8.06C102.948 6.83 103.728 6.44 105.318 6.44C106.898 6.44 107.678 6.83 107.678 8.06C107.678 9.28 106.898 9.67 105.318 9.67Z" fill="#B6B6B6"/>
<path d="M121.141 5.11L119.211 9.65L117.411 5.11H115.371L113.571 9.66L111.641 5.11H109.731L112.381 11H114.661L116.391 6.9L118.121 11H120.401L123.051 5.11H121.141Z" fill="#B6B6B6"/>
<path d="M127.428 9.71C126.288 9.71 125.388 9.4 125.198 8.46H131.558C131.558 5.78 129.768 5.01 127.528 5.01C125.138 5.01 123.448 5.89 123.448 8.06C123.448 10.22 125.188 11.1 127.428 11.1C129.608 11.1 131.068 10.39 131.458 8.89H129.758C129.328 9.49 128.608 9.71 127.428 9.71ZM127.518 6.31C128.598 6.31 129.438 6.54 129.728 7.37H125.258C125.528 6.54 126.348 6.31 127.518 6.31Z" fill="#B6B6B6"/>
<path d="M137.64 5.01C136.54 5.01 135.5 5.32 134.62 6.11V5.11H132.91V11H134.62V7.47C135.66 6.66 136.76 6.44 137.72 6.44C138.22 6.44 138.67 6.5 139.23 6.64V5.21C138.83 5.11 138.34 5.01 137.64 5.01Z" fill="#B6B6B6"/>
<path d="M144.072 9.71C142.932 9.71 142.032 9.4 141.842 8.46H148.202C148.202 5.78 146.412 5.01 144.172 5.01C141.782 5.01 140.092 5.89 140.092 8.06C140.092 10.22 141.832 11.1 144.072 11.1C146.252 11.1 147.712 10.39 148.102 8.89H146.402C145.972 9.49 145.252 9.71 144.072 9.71ZM144.162 6.31C145.242 6.31 146.082 6.54 146.372 7.37H141.902C142.172 6.54 142.992 6.31 144.162 6.31Z" fill="#B6B6B6"/>
<path d="M155.846 3V6.03C155.206 5.36 154.176 5.01 152.906 5.01C151.016 5.01 149.396 5.81 149.396 8.06C149.396 10.31 151.016 11.1 152.906 11.1C154.176 11.1 155.206 10.75 155.846 10.08V11H157.556V3H155.846ZM153.476 9.67C151.946 9.67 151.116 9.22 151.116 8.06C151.116 6.89 151.946 6.44 153.476 6.44C155.006 6.44 155.846 6.89 155.846 8.06C155.846 9.22 155.006 9.67 153.476 9.67Z" fill="#B6B6B6"/>
<path d="M175.692 5.11L173.762 9.65L171.962 5.11H169.922L168.122 9.66L166.192 5.11H164.282L166.932 11H169.212L170.942 6.9L172.672 11H174.952L177.602 5.11H175.692Z" fill="#B6B6B6"/>
<path d="M178.735 3V4.49H180.445V3H178.735ZM178.735 5.11V11H180.445V5.11H178.735Z" fill="#B6B6B6"/>
<path d="M187.797 6.54V5.11H185.007V3.4L183.287 3.89V5.11H181.737V6.54H183.287V9.23C183.287 10.53 184.267 11.1 185.787 11.1C186.577 11.1 187.227 11.05 187.797 10.95V9.57C187.107 9.67 186.807 9.67 186.267 9.67C185.227 9.67 185.007 9.38 185.007 8.24V6.54H187.797Z" fill="#B6B6B6"/>
<path d="M194.337 5.01C192.907 5.01 191.747 5.48 190.907 6.14V3H189.197V11H190.907V7.7C191.437 7.08 192.677 6.49 193.827 6.49C195.237 6.49 195.657 7.14 195.657 8.39V11H197.377L197.397 7.74C197.377 5.57 195.907 5.01 194.337 5.01Z" fill="#B6B6B6"/>
<path d="M235.222 5.01C233.952 5.01 232.922 5.36 232.282 6.03V3H230.572V11H232.282V10.08C232.922 10.75 233.952 11.1 235.222 11.1C237.112 11.1 238.732 10.31 238.732 8.06C238.732 5.81 237.112 5.01 235.222 5.01ZM234.652 9.67C233.122 9.67 232.282 9.22 232.282 8.06C232.282 6.89 233.122 6.44 234.652 6.44C236.182 6.44 237.012 6.89 237.012 8.06C237.012 9.22 236.182 9.67 234.652 9.67Z" fill="#B6B6B6"/>
<path d="M245.782 5.11L243.482 9.97L240.962 5.11H239.062L242.112 11H242.992L241.802 13.5H243.692L247.672 5.11H245.782Z" fill="#B6B6B6"/>
<path d="M217.229 3.70726C216.985 3.48304 216.694 3.30517 216.375 3.18381C216.056 3.06246 215.714 3 215.368 3C215.022 3 214.68 3.06246 214.361 3.18381C214.041 3.30517 213.751 3.48304 213.507 3.70726L213 4.17238L212.493 3.70726C211.999 3.25456 211.33 3.00023 210.632 3.00023C209.934 3.00023 209.264 3.25456 208.771 3.70726C208.277 4.15996 208 4.77395 208 5.41416C208 6.05438 208.277 6.66837 208.771 7.12107L209.278 7.58619L213 11L216.722 7.58619L217.229 7.12107C217.473 6.89695 217.667 6.63086 217.8 6.33798C217.932 6.0451 218 5.73119 218 5.41416C218 5.09714 217.932 4.78322 217.8 4.49035C217.667 4.19747 217.473 3.93137 217.229 3.70726Z" fill="#E52621"/>
</svg>
