<svg width="64" height="30" viewBox="0 0 64 30" fill="none" xmlns="http://www.w3.org/2000/svg">
<path fill-rule="evenodd" clip-rule="evenodd" d="M40.7973 28.9583V16.0624C40.7973 15.5624 40.5755 15.2395 40.2375 15.2395H36.6679C36.3299 15.2395 36.1082 15.5728 36.1082 16.0624V28.9583C36.1082 29.4583 36.3299 29.7812 36.6679 29.7812H40.2375C40.5755 29.7916 40.7973 29.4583 40.7973 28.9583ZM52.4778 28.9583V16.0624C52.4778 15.5624 52.256 15.2395 51.9181 15.2395H42.5082C42.1702 15.2395 41.9484 15.5728 41.9484 16.0624V28.9583C41.9484 29.4583 42.1702 29.7812 42.5082 29.7812H45.7082C46.0461 29.7812 46.2679 29.4478 46.2679 28.9583V19.8958C46.2679 19.5937 46.3101 19.5103 46.458 19.5103C46.5742 19.5103 46.6375 19.6458 46.6798 19.8958C46.722 20.1458 48.4012 28.9583 48.4012 28.9583C48.528 29.5416 48.7392 29.7812 49.1405 29.7812H51.9181C52.256 29.7916 52.4778 29.4583 52.4778 28.9583Z" fill="white"/>
<path fill-rule="evenodd" clip-rule="evenodd" d="M15.229 29.2708V27.5312C15.229 27.2187 15.0072 26.9792 14.6692 26.9792H13.0956C12.821 26.9792 12.6837 26.8542 12.6837 26.5729V15.7396C12.6837 15.4271 12.4408 15.1875 12.124 15.1875H8.55436C8.23753 15.1875 7.99463 15.4271 7.99463 15.7396V29.2708C7.99463 29.6042 8.23753 29.8229 8.55436 29.8229H14.6692C15.0072 29.8125 15.229 29.5937 15.229 29.2708ZM21.724 23.4792C21.724 23.75 21.5761 23.8958 21.3016 23.8958H20.9847C20.7101 23.8958 20.5623 23.75 20.5623 23.4792V18.1458C20.5623 17.875 20.7101 17.7292 20.9847 17.7292H21.3016C21.5761 17.7292 21.724 17.875 21.724 18.1458V23.4792ZM26.4131 29.2708V18.125C26.4131 17.7604 26.2969 17.5208 26.0646 17.2812L24.2164 15.4583C24.0158 15.2604 23.7728 15.0938 23.361 15.0938H18.9359C18.524 15.0938 18.2917 15.2604 18.0804 15.4583L16.2217 17.2917C15.9788 17.5312 15.8732 17.7708 15.8732 18.1354V29.2708C15.8732 29.6042 16.095 29.8229 16.4329 29.8229H20.0026C20.3405 29.8229 20.5623 29.6042 20.5623 29.2708V26.5833C20.5623 26.3125 20.7101 26.1667 20.9847 26.1667H21.3016C21.5761 26.1667 21.724 26.3125 21.724 26.5833V29.2708C21.724 29.6042 21.9458 29.8229 22.2837 29.8229H25.8534C26.1808 29.8125 26.4131 29.5937 26.4131 29.2708ZM35.4217 17.4896V15.75C35.4217 15.4167 35.1999 15.1979 34.862 15.1979H27.1629C26.825 15.1979 26.6032 15.4167 26.6032 15.75V17.4896C26.6032 17.8229 26.825 18.0417 27.1629 18.0417H28.2507C28.5253 18.0417 28.6732 18.1875 28.6732 18.4583V29.2708C28.6732 29.6042 28.895 29.8229 29.2329 29.8229H32.8026C33.1405 29.8229 33.3623 29.6042 33.3623 29.2708V18.4583C33.3623 18.1875 33.5101 18.0417 33.7847 18.0417H34.8514C35.1894 18.0417 35.4217 17.8229 35.4217 17.4896ZM59.2791 26.875C59.2791 27.1458 59.1313 27.2917 58.8567 27.2917H58.5187C58.2441 27.2917 58.0963 27.1458 58.0963 26.875V18.1458C58.0963 17.875 58.2441 17.7292 58.5187 17.7292H58.8567C59.1313 17.7292 59.2791 17.875 59.2791 18.1458V26.875ZM63.9682 26.8958V18.125C63.9682 17.7604 63.8521 17.5208 63.6197 17.2812L61.7715 15.4583C61.5709 15.2604 61.328 15.0938 60.9161 15.0938H56.4699C56.058 15.0938 55.8257 15.2604 55.6144 15.4583L53.7662 17.2917C53.5233 17.5312 53.4177 17.7708 53.4177 18.1354V26.9062C53.4177 27.2708 53.5339 27.5312 53.7662 27.75L55.6144 29.5729C55.8151 29.7708 56.058 29.9375 56.4699 29.9375H60.9161C61.328 29.9375 61.5603 29.7708 61.7715 29.5729L63.6197 27.75C63.8626 27.5208 63.9682 27.2604 63.9682 26.8958Z" fill="white"/>
<path fill-rule="evenodd" clip-rule="evenodd" d="M40.7973 13.8228V0.926921C40.7973 0.426921 40.5755 0.104004 40.2375 0.104004H36.6679C36.3299 0.104004 36.1082 0.437337 36.1082 0.926921V13.8228C36.1082 14.3228 36.3299 14.6457 36.6679 14.6457H40.2375C40.5755 14.6457 40.7973 14.3123 40.7973 13.8228L37.5733 11.3292L40.7973 13.8228ZM52.4778 13.8228V0.926921C52.4778 0.426921 52.256 0.104004 51.9181 0.104004H48.7181C48.3801 0.104004 48.1583 0.437337 48.1583 0.926921V9.98942C48.1583 10.2915 48.1161 10.3748 47.9682 10.3748C47.8521 10.3748 47.7887 10.2394 47.7464 9.98942C47.7042 9.73942 46.025 0.926921 46.025 0.926921C45.8983 0.343587 45.687 0.104004 45.2857 0.104004H42.5082C42.1702 0.104004 41.9484 0.437337 41.9484 0.926921V13.8228C41.9484 14.3228 42.1702 14.6561 42.5082 14.6561H51.9181C52.256 14.6561 52.4778 14.3228 52.4778 13.8228Z" fill="white"/>
<path fill-rule="evenodd" clip-rule="evenodd" d="M0.580732 14.7082H4.15037C4.48832 14.7082 4.7101 14.4894 4.7101 14.1561V9.42692C4.7101 9.15609 4.85796 9.01025 5.13255 9.01025H6.57941C6.91737 9.01025 7.13915 8.7915 7.13915 8.45817V7.17692C7.13915 6.84359 6.91737 6.62484 6.57941 6.62484H5.13255C4.85796 6.62484 4.7101 6.479 4.7101 6.20817V3.34359C4.7101 3.07275 4.85796 2.92692 5.13255 2.92692H6.70614C7.0441 2.92692 7.26588 2.70817 7.26588 2.37484V0.635254C7.26588 0.301921 7.0441 0.0831706 6.70614 0.0831706H0.580732C0.242778 0.0831706 0.0209961 0.301921 0.0209961 0.635254V14.1457C0.0209961 14.4894 0.242778 14.7082 0.580732 14.7082ZM8.64938 14.7082H12.219C12.557 14.7082 12.7788 14.4894 12.7788 14.1561V0.645671C12.7788 0.312337 12.557 0.0935872 12.219 0.0935872H8.64938C8.31142 0.0935872 8.08964 0.312337 8.08964 0.645671V14.1561C8.1002 14.4894 8.32199 14.7082 8.64938 14.7082ZM13.951 14.1561C13.951 14.4894 14.1939 14.7082 14.5108 14.7082H20.6256C20.9636 14.7082 21.1854 14.4894 21.1854 14.1561V12.4165C21.1854 12.104 20.9636 11.8644 20.6256 11.8644H19.052C18.7774 11.8644 18.6401 11.7394 18.6401 11.4582V0.624837C18.6401 0.312337 18.3972 0.0727539 18.0804 0.0727539H14.5108C14.1939 0.0727539 13.951 0.312337 13.951 0.624837V14.1561ZM22.2626 14.7082H25.3147C25.6527 14.7082 25.8745 14.4894 25.8745 14.1561V7.854C25.8745 7.63525 25.9484 7.56234 26.0223 7.56234C26.1174 7.56234 26.1913 7.61442 26.223 7.854L27.4269 14.3019C27.4692 14.5207 27.6698 14.7082 27.9233 14.7082H28.8844C29.1484 14.7082 29.349 14.5207 29.3807 14.3019L30.6058 7.854C30.6586 7.59359 30.7325 7.56234 30.8276 7.56234C30.9226 7.56234 30.9543 7.63525 30.9543 7.854V14.1561C30.9543 14.4894 31.1761 14.7082 31.5141 14.7082H34.5662C34.9042 14.7082 35.1259 14.4894 35.1259 14.1561V0.645671C35.1259 0.312337 34.9042 0.0935872 34.5662 0.0935872H30.1623C29.8137 0.0935872 29.6448 0.312337 29.592 0.645671L28.6098 6.729C28.5887 6.87484 28.5147 6.94775 28.4091 6.94775C28.3035 6.94775 28.219 6.87484 28.2085 6.729L27.2474 0.645671C27.2157 0.312337 27.0045 0.0935872 26.6771 0.0935872H22.2731C21.9352 0.0935872 21.7134 0.312337 21.7134 0.645671V14.1561C21.7028 14.4894 21.9246 14.7082 22.2626 14.7082Z" fill="#00FFA6"/>
</svg>
