<svg width="51" height="61" viewBox="0 0 51 61" fill="none" xmlns="http://www.w3.org/2000/svg">
<g clip-path="url(#clip0)">
<path d="M3.264 24.4761C4.08 24.9248 4.93 25.132 5.848 25.132C7.31 25.132 8.5 24.5796 9.384 23.4749C9.588 23.1988 9.792 22.9226 9.894 22.6464C10.03 22.3702 10.132 22.0595 10.234 21.6798H9.996C9.86 22.0941 9.724 22.4393 9.588 22.7154C9.452 22.9571 9.282 23.2333 9.078 23.4749C8.806 23.7856 8.5 24.0273 8.194 24.2344C7.888 24.4415 7.514 24.6141 7.14 24.7177C6.8 24.8213 6.426 24.8558 6.018 24.8558C5.576 24.8558 5.202 24.7868 4.828 24.6487C4.454 24.5106 4.148 24.3034 3.91 24.0618C3.706 23.8547 3.536 23.5785 3.4 23.2333C3.264 22.9226 3.162 22.5083 3.094 22.025C3.026 21.5417 2.992 20.9894 2.992 20.4025C2.992 19.3323 3.094 18.4693 3.264 17.7443C3.434 17.0539 3.74 16.536 4.114 16.2253C4.488 15.9147 4.998 15.742 5.61 15.742C6.12 15.742 6.596 15.8456 7.106 16.0873C7.582 16.3289 8.024 16.6741 8.432 17.0884C8.84 17.5372 9.18 18.055 9.486 18.6764C9.588 18.8835 9.69 19.0907 9.758 19.2978C9.826 19.5049 9.894 19.7466 9.962 20.0918H10.166L9.962 15.673H9.724C9.248 16.3289 8.874 16.6396 8.568 16.6396C8.432 16.6396 8.228 16.536 7.922 16.3289C7.65 16.1218 7.412 15.9837 7.14 15.8456C6.902 15.7075 6.63 15.6385 6.358 15.5694C6.086 15.5694 5.78 15.5349 5.474 15.5349C4.522 15.5349 3.706 15.7766 2.992 16.2599C2.516 16.5706 2.108 16.9503 1.734 17.3991C1.36 17.8479 1.088 18.2967 0.917996 18.8145C0.747996 19.3323 0.645996 19.8156 0.645996 20.3334C0.645996 21.1965 0.883996 21.9905 1.36 22.7154C1.836 23.4404 2.482 24.0273 3.264 24.4761Z" fill="#FEFFFD"/>
<path d="M14.8918 16.3634C15.1638 16.0873 15.5718 15.9492 16.1158 15.9492H16.3538V15.7075H10.6758V15.9492H10.9138C11.4238 15.9492 11.8318 16.0527 12.0698 16.2944C12.2058 16.398 12.3078 16.536 12.3758 16.7087C12.4438 16.8813 12.5118 17.1229 12.5458 17.3991C12.5458 18.124 12.5458 19.2633 12.5458 20.8167C12.5458 21.1965 12.5458 21.4727 12.5458 21.6798C12.5458 21.8524 12.5458 22.0595 12.5458 22.2667C12.5458 22.4738 12.5458 22.7154 12.5458 22.9571C12.5458 23.5094 12.4098 23.9582 12.1378 24.2344C11.8658 24.5106 11.4578 24.6487 10.8798 24.6487H10.6418V24.8903H16.3538V24.6487H16.1158C15.5718 24.6487 15.1638 24.5106 14.8918 24.2344C14.6198 23.9582 14.4838 23.544 14.4838 22.9571V17.6407C14.4838 17.0539 14.6198 16.6396 14.8918 16.3634Z" fill="#FEFFFD"/>
<path d="M4.79387 35.9371C4.45387 35.9371 4.18187 35.9026 4.01187 35.8681C3.67187 35.8335 3.39987 35.73 3.16187 35.5919C2.88987 35.4193 2.68587 35.1776 2.54987 34.8324C2.44787 34.5217 2.37987 34.1074 2.37987 33.5896V28.1006L10.1999 36.2823H10.4039V29.6886C10.4039 28.8946 10.5739 28.2733 10.9139 27.859C11.2539 27.4447 11.7299 27.2376 12.3419 27.2376C12.8519 27.2376 13.2259 27.3757 13.4979 27.6519C13.7699 27.928 13.9059 28.3423 13.9059 28.9292V34.2801C13.9059 35.4193 13.3619 35.9716 12.2399 35.9716H12.0019V36.2133H21.8959V32.4159H21.6579C21.5219 32.9337 21.3859 33.3825 21.2499 33.6932C21.0119 34.2455 20.6719 34.6943 20.2639 35.0741C20.0259 35.2812 19.7539 35.4538 19.4819 35.5919C19.2099 35.73 18.8699 35.8335 18.5299 35.9026C18.1899 35.9716 17.7819 36.0061 17.3399 36.0061H15.8439V31.829H16.2179C16.9319 31.829 17.4759 32.0707 17.8839 32.554C18.0199 32.7266 18.1219 32.8992 18.2239 33.1063C18.3259 33.2789 18.3939 33.5206 18.4619 33.7967C18.5299 34.0729 18.5979 34.3836 18.6319 34.7288H18.8699V28.653H18.6319C18.5979 29.0327 18.5299 29.3089 18.4959 29.4815C18.3939 29.9303 18.2239 30.31 18.0199 30.6207C17.6119 31.2421 17.0339 31.5528 16.3199 31.5528H15.8439V27.2031H17.6459C18.3939 27.2031 19.0399 27.3066 19.5839 27.5483C19.8899 27.6864 20.1959 27.928 20.4679 28.2387C20.7059 28.5149 20.8759 28.8256 21.0119 29.1363C21.1479 29.447 21.3179 29.9303 21.4879 30.5517H21.6919V26.9614H12.5459H12.0019H8.02387V27.2031C8.32987 27.2376 8.56787 27.2721 8.73787 27.3066C8.90787 27.3412 9.07787 27.4102 9.24787 27.5138C9.55387 27.6864 9.79187 27.9626 9.96187 28.3423C10.1319 28.722 10.1999 29.1363 10.1999 29.6196V33.5896L3.87587 26.9614H0.237871V27.2031H0.339871C0.713871 27.2031 1.05387 27.2721 1.32587 27.3757C1.59787 27.5138 1.80187 27.6864 1.93787 27.8935C2.07387 28.1006 2.14187 28.3768 2.14187 28.722V33.9348C2.14187 34.3491 2.07387 34.7288 1.93787 35.005C1.80187 35.2812 1.56387 35.5228 1.25787 35.6609C0.951871 35.799 0.543871 35.9026 0.0678711 35.9371V36.1788H4.79387V35.9371Z" fill="#FEFFFD"/>
<path d="M4.25 47.1914C3.808 47.1914 3.434 47.0878 3.162 46.9497C2.856 46.7771 2.618 46.57 2.482 46.2938C2.312 46.0176 2.244 45.6379 2.244 45.2582V39.3204H2.278L6.222 47.5021H6.426L10.336 39.3204H10.37V45.6034C10.37 46.1557 10.234 46.6045 9.962 46.8807C9.69 47.1569 9.282 47.295 8.738 47.295H8.364V47.5366H13.702H14.246H17.34V47.295C17.17 47.295 17.034 47.2604 16.932 47.2604C16.83 47.2259 16.728 47.1914 16.626 47.1223C16.456 47.0188 16.32 46.8807 16.184 46.6736C16.082 46.4664 16.014 46.2593 16.014 46.0867C16.014 45.845 16.048 45.6034 16.15 45.3963L16.456 44.7058H20.298L20.434 45.051C20.468 45.1201 20.502 45.1546 20.502 45.2236C20.536 45.2927 20.536 45.3272 20.57 45.3617C20.774 45.8105 20.91 46.1557 20.978 46.3283C21.046 46.5009 21.08 46.639 21.08 46.7771C21.08 46.9843 21.012 47.1223 20.842 47.2259C20.672 47.3295 20.434 47.364 20.094 47.364H19.414V47.6056H24.684V47.364H24.48C24.242 47.364 24.004 47.3295 23.834 47.2604C23.664 47.1914 23.494 47.0533 23.358 46.9152C23.222 46.7426 23.086 46.5355 22.95 46.2938L19.312 38.2502H19.04L16.15 44.8784C15.708 45.8796 15.266 46.57 14.79 46.9152C14.586 47.0533 14.416 47.1914 14.246 47.2604C14.11 47.3295 13.906 47.364 13.634 47.3985C13.158 47.364 12.784 47.2259 12.546 46.9843C12.274 46.7081 12.138 46.2938 12.138 45.7415V40.3906C12.138 39.8382 12.274 39.3895 12.546 39.1133C12.818 38.8371 13.226 38.699 13.804 38.699H14.144V38.4574H10.608L7.208 45.4998L3.808 38.4574H0V38.699H0.306C0.884 38.699 1.292 38.8371 1.564 39.1133C1.836 39.3895 1.972 39.8037 1.972 40.3906V45.4998C1.972 46.0867 1.802 46.57 1.462 46.9152C1.122 47.2604 0.68 47.433 0.068 47.433H0V47.6747H4.25V47.1914ZM18.36 40.1835L20.196 44.2916H16.592L18.36 40.1835Z" fill="#FEFFFD"/>
<path d="M7.44592 55.58C7.34392 55.9598 7.24192 56.2359 7.13992 56.4431C7.03792 56.6157 6.86792 56.7538 6.66392 56.8228C6.45992 56.8919 6.15392 56.9264 5.77992 56.9264H1.49592C1.80192 56.6502 2.00592 56.4776 2.10792 56.374C2.58392 55.9943 3.39992 55.58 4.55592 55.0622C5.37192 54.717 6.01792 54.4063 6.42592 54.1301C6.62992 53.9575 6.83392 53.7849 7.00392 53.5778C7.41192 53.129 7.58192 52.6112 7.58192 52.0243C7.58192 51.6445 7.47992 51.2648 7.30992 50.9196C7.13992 50.5744 6.86792 50.2982 6.52792 50.022C6.18792 49.7804 5.77992 49.5732 5.33792 49.4352C4.86192 49.2971 4.38592 49.228 3.80792 49.228C2.48192 49.228 1.52992 49.5387 0.883922 50.1946C0.645922 50.4363 0.475922 50.7125 0.339922 51.0232C0.203922 51.3339 0.169922 51.6445 0.169922 51.9552C0.169922 52.4731 0.339922 52.9219 0.645922 53.2671C0.951922 53.6123 1.35992 53.7849 1.83592 53.7849C2.10792 53.7849 2.34592 53.7159 2.54992 53.6123C2.75392 53.5087 2.92392 53.3361 3.05992 53.129C3.19592 52.9219 3.22992 52.7147 3.22992 52.4731C3.22992 52.2659 3.19592 52.0588 3.09392 51.8862C2.99192 51.7136 2.85592 51.5755 2.68592 51.4719C2.51592 51.3684 2.31192 51.3339 2.10792 51.3339C1.83592 51.3339 1.63192 51.4029 1.42792 51.5065C1.25792 51.6445 1.08792 51.8172 0.985922 52.0933C0.951922 52.1969 0.917922 52.3005 0.883922 52.404C0.883922 52.5421 0.815922 52.6112 0.747922 52.6112C0.543922 52.6112 0.441922 52.3695 0.441922 51.8862C0.441922 51.4374 0.577922 51.0577 0.815922 50.6779C1.05392 50.2982 1.42792 50.022 1.83592 49.8149C2.27792 49.6078 2.75392 49.5042 3.26392 49.5042C3.94392 49.5042 4.48792 49.7113 4.86192 50.1256C5.23592 50.5399 5.43992 51.1267 5.43992 51.9207C5.43992 52.3695 5.37192 52.7838 5.20192 53.129C5.06592 53.4742 4.79392 53.8539 4.45392 54.2337C4.41992 54.2682 4.38592 54.3027 4.35192 54.3372C4.31792 54.3718 4.28392 54.4063 4.24992 54.4408C4.11392 54.5444 3.73992 54.8551 3.12792 55.3039C2.00592 56.0979 1.25792 56.7538 0.883922 57.2026C0.441922 57.7204 0.203922 58.2037 0.203922 58.618H7.07192L7.71792 55.0622H7.47992L7.44592 55.58Z" fill="#FEFFFD"/>
<path d="M15.9119 55.1312L15.8099 55.58C15.7079 55.9598 15.6059 56.2359 15.5039 56.4431C15.4019 56.6157 15.2319 56.7538 15.0279 56.8228C14.8239 56.8919 14.5179 56.9264 14.1439 56.9264H9.85993C10.1659 56.6502 10.3699 56.4776 10.4719 56.374C10.9479 55.9943 11.7639 55.58 12.9199 55.0622C13.7359 54.717 14.3819 54.4063 14.7899 54.1301C14.9939 53.9575 15.1979 53.7849 15.3679 53.5778C15.7759 53.129 15.9459 52.6112 15.9459 52.0243C15.9459 51.6445 15.8439 51.2648 15.6739 50.9196C15.5039 50.5744 15.2319 50.2982 14.8919 50.022C14.5519 49.7804 14.1439 49.5732 13.7019 49.4352C13.2259 49.2971 12.7499 49.228 12.1719 49.228C10.8459 49.228 9.89394 49.5387 9.24794 50.1946C9.00994 50.4363 8.83994 50.7125 8.70394 51.0232C8.56794 51.3339 8.53394 51.6445 8.53394 51.9552C8.53394 52.4731 8.70394 52.9219 9.00994 53.2671C9.31594 53.6123 9.72393 53.7849 10.1999 53.7849C10.4719 53.7849 10.7099 53.7159 10.9139 53.6123C11.1179 53.5087 11.2879 53.3361 11.4239 53.129C11.5599 52.9219 11.5939 52.7147 11.5939 52.4731C11.5939 52.2659 11.5599 52.0588 11.4579 51.8862C11.3559 51.7136 11.2199 51.5755 11.0499 51.4719C10.8799 51.3684 10.6759 51.3339 10.4719 51.3339C10.1999 51.3339 9.99593 51.4029 9.79193 51.5065C9.62193 51.6445 9.45194 51.8172 9.34994 52.0933C9.31594 52.1969 9.28194 52.3005 9.24794 52.404C9.24794 52.5421 9.17993 52.6112 9.11193 52.6112C8.90793 52.6112 8.80594 52.3695 8.80594 51.8862C8.80594 51.4374 8.94194 51.0577 9.17994 50.6779C9.41794 50.2982 9.79193 50.022 10.1999 49.8149C10.6419 49.6078 11.1179 49.5042 11.6279 49.5042C12.3079 49.5042 12.8519 49.7113 13.2259 50.1256C13.5999 50.5399 13.8039 51.1267 13.8039 51.9207C13.8039 52.3695 13.7359 52.7838 13.5659 53.129C13.4299 53.4742 13.1579 53.8539 12.8179 54.2337C12.7839 54.2682 12.7499 54.3027 12.7159 54.3372C12.6819 54.3718 12.6479 54.4063 12.6139 54.4408C12.4779 54.5444 12.1039 54.8551 11.4919 55.3039C10.3699 56.0979 9.62194 56.7538 9.24794 57.2026C8.80594 57.7204 8.56794 58.2037 8.56794 58.618H15.4359L16.0819 55.0622H15.9119V55.1312Z" fill="#FEFFFD"/>
<path d="M24.2079 57.3752C24.5139 56.8919 24.6839 56.3741 24.6839 55.8217C24.6839 55.3039 24.5479 54.8206 24.2759 54.4063C24.0039 53.9921 23.6299 53.6469 23.1539 53.4052C22.6779 53.1636 22.1679 53.0255 21.5899 53.0255C20.5699 53.0255 19.8219 53.4397 19.2779 54.2683H19.2439V52.8874C19.2439 51.7482 19.4479 50.9196 19.8219 50.3673C20.1959 49.8149 20.7739 49.5388 21.5559 49.5388C21.8279 49.5388 22.0659 49.5733 22.2699 49.6423C22.5079 49.7114 22.6779 49.7804 22.8139 49.884C22.9499 49.9876 23.0179 50.0911 23.0179 50.1947C23.0179 50.2982 22.9159 50.4018 22.7119 50.5054C22.4739 50.6089 22.3379 50.747 22.2359 50.8851C22.1339 51.0232 22.0999 51.1958 22.0999 51.4029C22.0999 51.6791 22.2019 51.9208 22.4059 52.1279C22.6099 52.3005 22.8479 52.4041 23.1539 52.4041C23.4599 52.4041 23.6979 52.3005 23.9019 52.0934C24.1059 51.8863 24.2079 51.6446 24.2079 51.3339C24.2079 50.9542 24.1059 50.6089 23.8679 50.2982C23.6299 49.9876 23.3239 49.7459 22.9159 49.5733C22.5079 49.4007 22.0659 49.2971 21.5899 49.2971C21.0119 49.2971 20.4679 49.4007 19.9239 49.6423C19.3799 49.884 18.9039 50.1947 18.4959 50.6089C18.0539 51.0577 17.7139 51.5756 17.5099 52.1624C17.2719 52.7493 17.1699 53.4052 17.1699 54.1302C17.1699 54.6135 17.2379 55.0968 17.3399 55.5456C17.4419 55.9943 17.6119 56.4086 17.8159 56.7883C18.0199 57.1681 18.2579 57.5133 18.5299 57.7895C18.8699 58.1347 19.2779 58.4109 19.7539 58.5835C20.1959 58.7561 20.7059 58.8597 21.2499 58.8597C21.8959 58.8597 22.5079 58.7216 23.0519 58.4799C23.4939 58.2037 23.9019 57.824 24.2079 57.3752ZM22.4739 57.4097C22.4399 57.6514 22.3379 57.824 22.2699 57.9621C22.0319 58.4109 21.5899 58.618 21.0119 58.618C20.6379 58.618 20.3319 58.5144 20.0599 58.3418C19.7879 58.1692 19.5839 57.893 19.4479 57.5478C19.3119 57.2026 19.2439 56.7883 19.2439 56.2705V55.442C19.2439 55.0277 19.3119 54.648 19.4819 54.3373C19.6519 54.0266 19.8559 53.7504 20.1619 53.5778C20.4339 53.4052 20.7739 53.3016 21.1479 53.3016C21.5559 53.3016 21.8619 53.4052 22.0999 53.6469C22.2699 53.8195 22.4059 54.0956 22.4739 54.3718C22.5419 54.6825 22.5759 55.0968 22.5759 55.6146C22.5759 56.5122 22.5419 57.099 22.4739 57.4097Z" fill="#FEFFFD"/>
<path d="M0.791932 60.9915C1.16264 60.9304 1.41439 60.5757 1.35422 60.1993C1.29406 59.8229 0.944769 59.5673 0.57406 59.6284C0.203351 59.6895 -0.0483957 60.0441 0.0117681 60.4205C0.0719318 60.7969 0.421223 61.0525 0.791932 60.9915Z" fill="#FEFFFD"/>
<path d="M4.58991 61C4.96547 61 5.26991 60.6909 5.26991 60.3096C5.26991 59.9283 4.96547 59.6191 4.58991 59.6191C4.21436 59.6191 3.90991 59.9283 3.90991 60.3096C3.90991 60.6909 4.21436 61 4.58991 61Z" fill="#FEFFFD"/>
<path d="M8.49982 61C8.87538 61 9.17982 60.6909 9.17982 60.3096C9.17982 59.9283 8.87538 59.6191 8.49982 59.6191C8.12427 59.6191 7.81982 59.9283 7.81982 60.3096C7.81982 60.6909 8.12427 61 8.49982 61Z" fill="#FEFFFD"/>
<path d="M12.376 61C12.7516 61 13.056 60.6909 13.056 60.3096C13.056 59.9283 12.7516 59.6191 12.376 59.6191C12.0005 59.6191 11.696 59.9283 11.696 60.3096C11.696 60.6909 12.0005 61 12.376 61Z" fill="#FEFFFD"/>
<path d="M16.252 61C16.6276 61 16.932 60.6909 16.932 60.3096C16.932 59.9283 16.6276 59.6191 16.252 59.6191C15.8765 59.6191 15.572 59.9283 15.572 60.3096C15.572 60.6909 15.8765 61 16.252 61Z" fill="#FEFFFD"/>
<path d="M20.1617 61C20.5372 61 20.8417 60.6909 20.8417 60.3096C20.8417 59.9283 20.5372 59.6191 20.1617 59.6191C19.7861 59.6191 19.4817 59.9283 19.4817 60.3096C19.4817 60.6909 19.7861 61 20.1617 61Z" fill="#FEFFFD"/>
<path d="M24.1503 60.9902C24.521 60.9292 24.7728 60.5745 24.7126 60.1981C24.6525 59.8217 24.3032 59.5661 23.9325 59.6272C23.5617 59.6883 23.31 60.0429 23.3702 60.4193C23.4303 60.7957 23.7796 61.0513 24.1503 60.9902Z" fill="#FEFFFD"/>
<path d="M13.3279 13.7396L14.9599 11.5302L17.6799 11.6683L16.1499 9.3553L17.0679 6.76617L14.5179 7.56017L12.4099 5.79956L12.3419 8.59583L10.0979 10.1148L12.6479 11.0469L13.3279 13.7396Z" fill="#F5C300"/>
<path d="M20.502 7.4566L21.964 5.93764L24.004 6.31738L23.052 4.41868L24.038 2.5545L22.032 2.89972L20.604 1.41528L20.264 3.48659L18.394 4.41868L20.23 5.35077L20.502 7.4566Z" fill="#0F90CF"/>
<path d="M29.512 0L28.458 1.20826L26.894 1.07018L27.71 2.41653L27.064 3.86644L28.594 3.4867L29.784 4.52235L29.886 2.93435L31.28 2.14035L29.818 1.55348L29.512 0Z" fill="#AAC115"/>
<path d="M35.53 1.76056L35.292 0.621338L34.51 1.5189L33.354 1.41534L33.966 2.41647L33.456 3.52117L34.612 3.21047L35.496 4.00447L35.598 2.83073L36.618 2.20934L35.53 1.76056Z" fill="#E52621"/>
<path d="M36.4819 16.536C36.7539 18.3311 38.1819 19.5394 39.8139 19.2287C40.4939 19.0906 41.1059 18.7453 41.5819 18.2275C41.0719 25.5807 47.2599 21.6452 47.4299 20.9547C47.4299 20.9547 44.0639 20.9547 43.8599 17.399C43.8259 16.8812 44.0979 15.8455 44.2679 15.1551C45.2199 11.2886 41.0719 8.83759 38.8619 9.87325C37.6039 10.5292 36.7879 11.7374 36.2099 12.704C35.8699 13.2909 34.5099 15.1896 32.3679 14.3611C33.5239 18.1585 35.4279 17.3645 36.4819 16.536Z" fill="#FEFFFD"/>
<path d="M50.9999 36.6622C48.7559 27.8246 40.8339 23.1641 37.2639 20.8512C35.8019 19.8846 26.0779 13.6016 18.9379 15.7074C18.9039 15.7074 18.8359 15.742 18.7679 15.8455C18.7339 15.88 18.7339 15.9146 18.6999 15.9491C18.4619 16.9502 20.8759 18.9525 24.9899 21.1964C27.7779 22.7154 30.4299 23.8201 32.0279 24.1653C31.7219 27.3758 30.3619 37.1455 25.3299 39.4584C25.3299 39.4584 28.3219 41.7023 31.2119 42.4963C32.0279 51.5756 34.8159 58.9287 35.8359 60.6548C35.9039 60.7929 35.9719 60.931 36.0399 60.9655C36.0399 60.9655 36.0399 60.9655 36.0739 60.9655C36.4139 61.0345 37.0939 56.3741 36.7199 51.0577C36.4479 47.3294 35.9039 43.9808 35.3599 42.2547C36.3459 43.0487 38.0119 43.8772 39.8819 44.5676C40.5619 45.845 41.2759 47.0532 42.5339 49.021C44.5399 52.2315 45.8999 53.7159 46.6819 54.4064C47.1579 54.9242 47.5319 55.1313 47.7359 54.9587C48.3139 54.4754 47.1579 50.9197 45.4239 46.9842C45.1859 46.4663 44.9819 45.983 44.7439 45.4997C45.5599 45.4652 46.1379 45.2236 46.3079 44.8093C46.3079 44.7748 46.3079 44.7057 46.3079 44.6367C46.3079 44.6367 46.3079 44.6367 46.3079 44.6712C46.1719 44.2569 46.0019 43.8427 42.9759 38.6989C41.6159 36.3515 40.8679 32.8302 40.7319 29.2055C40.7319 29.1364 40.7319 29.0674 40.7319 29.0328C41.1739 30.034 43.0779 32.0362 45.4579 33.9349C48.2799 36.2134 50.7619 37.5252 50.9659 36.8348C50.9999 36.7657 50.9659 36.6622 50.9659 36.5931C50.9659 36.6276 50.9999 36.6622 50.9999 36.6622Z" fill="#FEFFFD"/>
</g>
<defs>
<clipPath id="clip0">
<rect width="51" height="61" fill="white"/>
</clipPath>
</defs>
</svg>
