<svg width="96" height="27" viewBox="0 0 96 27" fill="none" xmlns="http://www.w3.org/2000/svg">
<path d="M10 0C11.4 0 12.6 0 14 0C14 8.2 14 16.2 14 24.4C12.4 24.6 10.8 24.8 9.4 25C7.4 20 4 11.4 4 11.4C4 11.4 4 20 4 25.6C4.8 25.6 3.6 25.6 0 26.2C0 17.6 0 8.8 0 0.200001C1.6 0.200001 4 0.200001 4 0.200001L10 14.8C10 14.8 10 5.6 10 0ZM29.4 4C29.4 2.8 29.4 1.2 29.4 0C25.6 0 21.8 0 18 0C18 8 18 16 18 24C21.8 23.6 25.6 23.2 29.4 22.8C29.4 21.6 29.4 20 29.4 18.8C27 19 24.6 19 22 19.6C22 17.4 22 16.2 22 14C23.8 14 26.2 14 28 14C28 12.8 28 11.2 28 10C26.2 10 23.8 10 22 10C22 7.8 22 6.2 22 4C23.2 4.2 28.4 4.2 29.4 4ZM32 4C32.2 4 35.8 4 36 4C36 10.4 36 16 36 22.4C37.4 22.4 38.6 22.4 40 22.2C40 15.8 40 10.4 40 4C41.4 4 42.6 4 44 4C44 2.8 44 1.2 44 0C39.8 0 36.2 0 32 0C32 1.2 32 2.8 32 4ZM57.2 0C53.4 0 49.8 0 46 0C46 7.6 46 14.4 46 22C46.4 22 46.8 22 47.2 22C48 22 49 22 50 22C50 18.8 50 17.2 50 14C50.2 14 54.8 14 55.4 14C55.4 12.8 55.4 11.2 55.4 10C54.8 10 50.2 10 50 10C50 8 50 6 50 4C50.4 4 56.2 4 57.2 4C57.2 3 57.2 1.2 57.2 0ZM64 19C64 12.4 64 6.6 64 0C62.6 0 61.4 0 60 0C60 7.6 60 14.8 60 22.4C63.6 22.6 67.2 22.8 70.8 23.2C70.8 22 70.8 20.6 70.8 19.4C68.6 19.2 66.2 19 64 19ZM74 23.4C75.4 23.6 76.6 23.6 78 23.8C78 15.8 78 8 78 0C76.6 0 75.4 0 74 0C74 8 74 15.6 74 23.4ZM90.8 12.4C92.6 8.4 94.2 4.4 96 0.200001C94.6 0.200001 93 0.200001 91.6 0.200001C90.6 2.8 89.8 4.6 88.8 7C87.8 4.4 87.2 2.6 86.2 0.200001C84.8 0.200001 83.2 0.200001 81.8 0.200001C83.4 4.2 84.8 8.2 86.6 12.4C84.8 16.4 83.2 20.4 81.4 24.4C82.8 24.6 84.2 24.8 85.6 25C86.6 22.4 87.6 20.6 88.6 18C89.6 20.8 90.6 22.8 91.6 25.6C93 25.8 94.8 26 96.2 26.2C94.2 21.4 92.4 16.6 90.8 12.4Z" fill="#F44336"/>
</svg>
