<svg width="170" height="123" viewBox="0 0 170 123" fill="none" xmlns="http://www.w3.org/2000/svg">
<path d="M13.4688 122.143C4.50391 122.143 0.0214844 117.865 0.0214844 109.311V13.1582C0.0214844 8.93945 1.13477 5.77539 3.36133 3.66602C5.64648 1.49805 9.01562 0.414062 13.4688 0.414062C22.3164 0.414062 26.8281 4.57422 27.0039 12.8945V58.5098H15.9297V12.1914C15.9297 10.4922 15.1094 9.64258 13.4688 9.64258C11.8281 9.64258 11.0078 10.4922 11.0078 12.1914V110.277C11.0078 111.977 11.8281 112.826 13.4688 112.826C15.1094 112.826 15.9297 111.977 15.9297 110.277V64.0469H27.0039V109.662C26.7109 117.982 22.1992 122.143 13.4688 122.143Z" fill="#F4F4F4"/>
<path d="M32.759 12.4551C32.759 8.5293 33.9016 5.54102 36.1867 3.49023C38.4719 1.43945 41.841 0.414062 46.2941 0.414062C50.7473 0.414062 54.0871 1.49805 56.3137 3.66602C58.5988 5.77539 59.7414 8.93945 59.7414 13.1582V109.311C59.7414 117.865 55.259 122.143 46.2941 122.143C41.9582 122.143 38.7355 121.088 36.6262 118.979C34.5754 116.869 33.2863 113.646 32.759 109.311V12.4551ZM43.8332 110.277C43.8332 111.977 44.6535 112.826 46.2941 112.826C47.9348 112.826 48.7551 111.977 48.7551 110.277V12.1914C48.7551 10.4922 47.9348 9.64258 46.2941 9.64258C44.6535 9.64258 43.8332 10.4922 43.8332 12.1914V110.277Z" fill="#F4F4F4"/>
<path d="M91.6 63.959C91.6 67.4746 90.6039 70.1406 88.6117 71.957L91.6 121H81.2289L79.559 74.6816H76.307V121H65.9359V1.46875H78.5043C82.8402 1.46875 86.0922 2.28906 88.2602 3.92969C90.4867 5.57031 91.6 8.35352 91.6 12.2793V63.959ZM78.768 67.4746C80.4672 67.4746 81.3168 66.3613 81.3168 64.1348V12.543C81.3168 10.668 80.4379 9.73047 78.6801 9.73047H76.307V67.4746H78.768Z" fill="#F4F4F4"/>
<path d="M112.209 100.697H107.638L107.111 121H96.3883L103.42 1.46875H116.427L123.546 121H112.736L112.209 100.697ZM111.945 93.4902L110.187 27.6602H109.66L107.902 93.4902H111.945Z" fill="#F4F4F4"/>
<path d="M127.192 112.826H129.829C131.528 112.826 132.378 111.889 132.378 110.014V1.46875H143.188V110.453C143.188 117.484 139.79 121 132.993 121H127.192V112.826Z" fill="#F4F4F4"/>
<path d="M149.383 1.46875H169.51V9.64258H160.281V58.1582H167.576V65.0137H160.281V113.002H169.598V121H149.383V1.46875Z" fill="#F4F4F4"/>
</svg>
