<svg width="265" height="123" viewBox="0 0 265 123" fill="none" xmlns="http://www.w3.org/2000/svg">
<path d="M0.285156 1.46875H11.0957V121H0.285156V1.46875Z" fill="#F4F4F4"/>
<path d="M17.5539 1.46875H28.716L30.4738 19.8379L35.3078 87.5137H36.0109L33.7258 1.46875H43.4816V121H32.3195L30.4738 102.719L25.4641 33.6367L24.7609 33.5488L27.2219 121H17.5539V1.46875Z" fill="#F4F4F4"/>
<path d="M49.9398 1.46875H69.5395V9.64258H60.7504V62.1133H68.1332V70.1992H60.7504V121H49.9398V1.46875Z" fill="#F4F4F4"/>
<path d="M75.2945 1.46875H86.1051V112.562H93.4V121H75.2945V1.46875Z" fill="#F4F4F4"/>
<path d="M111.723 122.23C102.993 122.23 98.6277 118.656 98.6277 111.508V1.46875H109.262V110.629C109.262 112.621 110.083 113.617 111.723 113.617C113.364 113.617 114.184 112.621 114.184 110.629V1.46875H124.819V111.508C124.819 115.082 123.706 117.777 121.479 119.594C119.311 121.352 116.059 122.23 111.723 122.23Z" fill="#F4F4F4"/>
<path d="M131.102 1.46875H151.229V9.64258H142V58.1582H149.295V65.0137H142V113.002H151.316V121H131.102V1.46875Z" fill="#F4F4F4"/>
<path d="M155.929 1.46875H167.091L168.849 19.8379L173.683 87.5137H174.386L172.101 1.46875H181.857V121H170.695L168.849 102.719L163.839 33.6367L163.136 33.5488L165.597 121H155.929V1.46875Z" fill="#F4F4F4"/>
<path d="M201.498 122.143C192.534 122.143 188.051 117.865 188.051 109.311V13.1582C188.051 8.93945 189.164 5.77539 191.391 3.66602C193.676 1.49805 197.045 0.414062 201.498 0.414062C210.346 0.414062 214.858 4.57422 215.034 12.8945V58.5098H203.959V12.1914C203.959 10.4922 203.139 9.64258 201.498 9.64258C199.858 9.64258 199.038 10.4922 199.038 12.1914V110.277C199.038 111.977 199.858 112.826 201.498 112.826C203.139 112.826 203.959 111.977 203.959 110.277V64.0469H215.034V109.662C214.741 117.982 210.229 122.143 201.498 122.143Z" fill="#F4F4F4"/>
<path d="M221.228 1.46875H232.039V121H221.228V1.46875Z" fill="#F4F4F4"/>
<path d="M252.911 100.697H248.341L247.813 121H237.091L244.122 1.46875H257.13L264.249 121H253.438L252.911 100.697ZM252.647 93.4902L250.889 27.6602H250.362L248.604 93.4902H252.647Z" fill="#F4F4F4"/>
</svg>
