<svg width="534" height="123" viewBox="0 0 534 123" fill="none" xmlns="http://www.w3.org/2000/svg">
<path d="M0.285156 1.46875H11.0957V112.562H18.3906V121H0.285156V1.46875Z" fill="#F4F4F4"/>
<path d="M38.1203 100.697H33.55L33.0227 121H22.3L29.3312 1.46875H42.3391L49.4582 121H38.6477L38.1203 100.697ZM37.8566 93.4902L36.0988 27.6602H35.5715L33.8137 93.4902H37.8566Z" fill="#F4F4F4"/>
<path d="M70.5484 1.46875H81.2711L83.8199 94.8086H84.3473L86.8961 1.46875H97.7066L90.6754 121H77.5797L70.5484 1.46875Z" fill="#F4F4F4"/>
<path d="M101.88 1.46875H122.007V9.64258H112.778V58.1582H120.073V65.0137H112.778V113.002H122.095V121H101.88V1.46875Z" fill="#F4F4F4"/>
<path d="M126.707 1.46875H137.869L139.627 19.8379L144.461 87.5137H145.164L142.879 1.46875H152.635V121H141.473L139.627 102.719L134.617 33.6367L133.914 33.5488L136.375 121H126.707V1.46875Z" fill="#F4F4F4"/>
<path d="M172.277 122.143C167.823 122.143 164.454 121.088 162.169 118.979C159.943 116.811 158.829 113.646 158.829 109.486V13.0703C158.829 8.91016 159.943 5.77539 162.169 3.66602C164.454 1.49805 167.823 0.414062 172.277 0.414062C181.183 0.414062 185.636 4.25195 185.636 11.9277V54.8184L174.738 54.7305V11.4004C174.738 9.70117 173.917 8.85156 172.277 8.85156C170.636 8.85156 169.816 9.70117 169.816 11.4004V111.947C169.816 113.646 170.636 114.496 172.277 114.496C173.39 114.496 174.239 114.262 174.825 113.793V65.541H172.628V58.7734H185.724V118.715C182.384 121 177.902 122.143 172.277 122.143Z" fill="#F4F4F4"/>
<path d="M206.42 100.697H201.85L201.323 121H190.6L197.631 1.46875H210.639L217.758 121H206.948L206.42 100.697ZM206.157 93.4902L204.399 27.6602H203.871L202.114 93.4902H206.157Z" fill="#F4F4F4"/>
<path d="M222.81 1.46875H233.972L235.73 19.8379L240.564 87.5137H241.267L238.982 1.46875H248.738V121H237.576L235.73 102.719L230.72 33.6367L230.017 33.5488L232.478 121H222.81V1.46875Z" fill="#F4F4F4"/>
<path d="M254.405 113.705L265.919 9.99414H254.669V1.46875H277.96V8.85156L266.534 112.475H278.136V121H254.405V113.705Z" fill="#F4F4F4"/>
<path d="M298.129 100.697H293.559L293.031 121H282.309L289.34 1.46875H302.348L309.467 121H298.656L298.129 100.697ZM297.865 93.4902L296.107 27.6602H295.58L293.822 93.4902H297.865Z" fill="#F4F4F4"/>
<path d="M331.963 1.46875H344.971C349.366 1.46875 352.676 2.52344 354.903 4.63281C357.188 6.68359 358.33 9.75977 358.33 13.8613V108.607C358.33 112.709 357.188 115.814 354.903 117.924C352.676 119.975 349.366 121 344.971 121H331.963V1.46875ZM344.883 111.947C345.762 111.947 346.407 111.684 346.817 111.156C347.227 110.629 347.432 109.779 347.432 108.607V13.9492C347.432 12.7188 347.227 11.8398 346.817 11.3125C346.407 10.7852 345.762 10.5215 344.883 10.5215H342.51V111.947H344.883Z" fill="#F4F4F4"/>
<path d="M364.525 1.46875H384.652V9.64258H375.423V58.1582H382.718V65.0137H375.423V113.002H384.74V121H364.525V1.46875Z" fill="#F4F4F4"/>
<path d="M405.391 112.826H408.027C409.727 112.826 410.576 111.889 410.576 110.014V1.46875H421.387V110.453C421.387 117.484 417.988 121 411.191 121H405.391V112.826Z" fill="#F4F4F4"/>
<path d="M441.116 100.697H436.546L436.019 121H425.296L432.327 1.46875H445.335L452.454 121H441.644L441.116 100.697ZM440.853 93.4902L439.095 27.6602H438.568L436.81 93.4902H440.853Z" fill="#F4F4F4"/>
<path d="M457.506 1.46875H468.317V121H457.506V1.46875Z" fill="#F4F4F4"/>
<path d="M500.439 63.959C500.439 67.4746 499.443 70.1406 497.451 71.957L500.439 121H490.068L488.398 74.6816H485.146V121H474.775V1.46875H487.343C491.679 1.46875 494.931 2.28906 497.099 3.92969C499.326 5.57031 500.439 8.35352 500.439 12.2793V63.959ZM487.607 67.4746C489.306 67.4746 490.156 66.3613 490.156 64.1348V12.543C490.156 10.668 489.277 9.73047 487.519 9.73047H485.146V67.4746H487.607Z" fill="#F4F4F4"/>
<path d="M506.37 12.4551C506.37 8.5293 507.513 5.54102 509.798 3.49023C512.083 1.43945 515.452 0.414062 519.905 0.414062C524.358 0.414062 527.698 1.49805 529.925 3.66602C532.21 5.77539 533.352 8.93945 533.352 13.1582V109.311C533.352 117.865 528.87 122.143 519.905 122.143C515.569 122.143 512.346 121.088 510.237 118.979C508.186 116.869 506.897 113.646 506.37 109.311V12.4551ZM517.444 110.277C517.444 111.977 518.264 112.826 519.905 112.826C521.546 112.826 522.366 111.977 522.366 110.277V12.1914C522.366 10.4922 521.546 9.64258 519.905 9.64258C518.264 9.64258 517.444 10.4922 517.444 12.1914V110.277Z" fill="#F4F4F4"/>
</svg>
