<svg width="139" height="167" viewBox="0 0 139 167" fill="none" xmlns="http://www.w3.org/2000/svg">
<path d="M8.89572 66.9252C11.1197 68.1523 13.4362 68.7187 15.9382 68.7187C19.9227 68.7187 23.1659 67.2083 25.5752 64.1877C26.1312 63.4326 26.6872 62.6774 26.9651 61.9223C27.3358 61.1671 27.6138 60.3176 27.8918 59.2792H27.2431C26.8725 60.412 26.5018 61.3559 26.1312 62.1111C25.7605 62.7718 25.2972 63.527 24.7412 64.1877C23.9999 65.0373 23.1659 65.698 22.332 66.2644C21.498 66.8308 20.4787 67.3027 19.4594 67.5859C18.5327 67.8691 17.5134 67.9635 16.4015 67.9635C15.1969 67.9635 14.1776 67.7747 13.1583 67.3971C12.139 67.0196 11.305 66.4532 10.6563 65.7924C10.1004 65.2261 9.63703 64.4709 9.26638 63.527C8.89572 62.6774 8.61773 61.5447 8.43241 60.2232C8.24708 58.9016 8.15441 57.3913 8.15441 55.7866C8.15441 52.8604 8.43241 50.5006 8.89572 48.5183C9.35904 46.6304 10.193 45.2145 11.2123 44.3649C12.2316 43.5154 13.6216 43.0434 15.2895 43.0434C16.6795 43.0434 17.9768 43.3266 19.3667 43.9874C20.664 44.6481 21.8686 45.5921 22.9806 46.7248C24.0926 47.9519 25.0192 49.3678 25.8532 51.0669C26.1312 51.6333 26.4092 52.1997 26.5945 52.766C26.7798 53.3324 26.9651 53.9931 27.1505 54.9371H27.7065L27.1505 42.8546H26.5018C25.2045 44.6481 24.1852 45.4977 23.3513 45.4977C22.9806 45.4977 22.4246 45.2145 21.5906 44.6481C20.8493 44.0818 20.2007 43.7042 19.4594 43.3266C18.8107 42.949 18.0694 42.7602 17.3281 42.5714C16.5868 42.5714 15.7528 42.4771 14.9189 42.4771C12.3243 42.4771 10.1004 43.1378 8.15441 44.4593C6.85712 45.3089 5.74516 46.3472 4.72586 47.5743C3.70656 48.8015 2.96525 50.0286 2.50193 51.4445C2.03861 52.8604 1.76062 54.1819 1.76062 55.5979C1.76062 57.9577 2.40927 60.1288 3.70656 62.1111C5.00385 64.0933 6.76446 65.698 8.89572 66.9252Z" fill="#FEFFFD"/>
<path d="M40.5867 44.7432C41.3281 43.988 42.44 43.6105 43.9226 43.6105H44.5713V42.9497H29.0964V43.6105H29.7451C31.135 43.6105 32.247 43.8937 32.8957 44.5544C33.2663 44.8376 33.5443 45.2152 33.7296 45.6871C33.915 46.1591 34.1003 46.8199 34.193 47.575C34.193 49.5573 34.193 52.6723 34.193 56.9201C34.193 57.9584 34.193 58.7136 34.193 59.2799C34.193 59.7519 34.193 60.3183 34.193 60.8846C34.193 61.451 34.193 62.1118 34.193 62.7725C34.193 64.2828 33.8223 65.5099 33.081 66.2651C32.3397 67.0203 31.2277 67.3978 29.6524 67.3978H29.0038V68.0586H44.5713V67.3978H43.9226C42.44 67.3978 41.3281 67.0203 40.5867 66.2651C39.8454 65.5099 39.4748 64.3772 39.4748 62.7725V48.2358C39.4748 46.6311 39.8454 45.4984 40.5867 44.7432Z" fill="#FEFFFD"/>
<path d="M13.0658 98.2642C12.1392 98.2642 11.3979 98.1698 10.9345 98.0754C10.0079 97.981 9.26659 97.6978 8.61794 97.3203C7.87663 96.8483 7.32065 96.1875 6.95 95.2436C6.672 94.394 6.48668 93.2613 6.48668 91.8454V76.8367L27.7993 99.2081H28.3553V81.1788C28.3553 79.0078 28.8186 77.3087 29.7453 76.1759C30.6719 75.0432 31.9692 74.4768 33.6371 74.4768C35.0271 74.4768 36.0464 74.8544 36.7877 75.6096C37.529 76.3647 37.8997 77.4975 37.8997 79.1022V93.7333C37.8997 96.8483 36.417 98.3586 33.3591 98.3586H32.7105V99.0194H59.6756V88.636H59.027C58.6563 90.0519 58.2857 91.279 57.915 92.1286C57.2664 93.6389 56.3397 94.866 55.2278 95.9043C54.5791 96.4707 53.8378 96.9427 53.0965 97.3203C52.3552 97.6978 51.4286 97.981 50.5019 98.1698C49.5753 98.3586 48.4633 98.453 47.2587 98.453H43.1815V87.0313H44.2008C46.1467 87.0313 47.6293 87.692 48.7413 89.0136C49.112 89.4855 49.39 89.9575 49.6679 90.5239C49.9459 90.9958 50.1313 91.6566 50.3166 92.4118C50.5019 93.1669 50.6872 94.0165 50.7799 94.9604H51.4286V78.347H50.7799C50.6872 79.3853 50.5019 80.1405 50.4093 80.6125C50.1313 81.8396 49.6679 82.8779 49.112 83.7275C48 85.4266 46.4247 86.2761 44.4788 86.2761H43.1815V74.3824H48.0927C50.1313 74.3824 51.8919 74.6656 53.3745 75.3264C54.2085 75.704 55.0424 76.3647 55.7838 77.2143C56.4324 77.9694 56.8957 78.819 57.2664 79.6685C57.637 80.5181 58.1003 81.8396 58.5637 83.5387H59.1196V73.7217H34.1931H32.7105H21.8688V74.3824C22.7028 74.4768 23.3515 74.5712 23.8148 74.6656C24.2781 74.76 24.7414 74.9488 25.2047 75.232C26.0387 75.704 26.6874 76.4591 27.1507 77.4975C27.614 78.5358 27.7993 79.6685 27.7993 80.99V91.8454L10.5639 73.7217H0.648865V74.3824H0.926856C1.94616 74.3824 2.87279 74.5712 3.6141 74.8544C4.35541 75.232 4.91139 75.704 5.28205 76.2703C5.6527 76.8367 5.83803 77.5918 5.83803 78.5358V92.7893C5.83803 93.9221 5.6527 94.9604 5.28205 95.7156C4.91139 96.4707 4.26275 97.1315 3.42878 97.509C2.5948 97.8866 1.48284 98.1698 0.185547 98.2642V98.925H13.0658V98.2642Z" fill="#FEFFFD"/>
<path d="M11.583 129.037C10.3783 129.037 9.35904 128.754 8.61773 128.377C7.78375 127.905 7.13511 127.338 6.76445 126.583C6.30113 125.828 6.11581 124.79 6.11581 123.751V107.516H6.20847L16.9575 129.887H17.5134L28.1698 107.516H28.2624V124.695C28.2624 126.206 27.8918 127.433 27.1505 128.188C26.4092 128.943 25.2972 129.321 23.8146 129.321H22.7953V129.981H37.3435H38.8261H47.2585V129.321C46.7952 129.321 46.4245 129.226 46.1465 129.226C45.8685 129.132 45.5905 129.037 45.3126 128.849C44.8492 128.565 44.4786 128.188 44.1079 127.622C43.8299 127.055 43.6446 126.489 43.6446 126.017C43.6446 125.356 43.7373 124.695 44.0153 124.129L44.8492 122.241H55.3202L55.6909 123.185C55.7836 123.374 55.8762 123.468 55.8762 123.657C55.9689 123.846 55.9689 123.94 56.0616 124.035C56.6175 125.262 56.9882 126.206 57.1735 126.678C57.3588 127.15 57.4515 127.527 57.4515 127.905C57.4515 128.471 57.2662 128.849 56.8029 129.132C56.3395 129.415 55.6909 129.509 54.7643 129.509H52.911V130.17H67.2739V129.509H66.7179C66.0692 129.509 65.4206 129.415 64.9573 129.226C64.4939 129.037 64.0306 128.66 63.66 128.282C63.2893 127.81 62.9187 127.244 62.548 126.583L52.633 104.589H51.8917L44.0153 122.713C42.8106 125.45 41.606 127.338 40.3087 128.282C39.7527 128.66 39.2894 129.037 38.8261 129.226C38.4554 129.415 37.8995 129.509 37.1581 129.604C35.8609 129.509 34.8416 129.132 34.1929 128.471C33.4516 127.716 33.0809 126.583 33.0809 125.073V110.442C33.0809 108.931 33.4516 107.704 34.1929 106.949C34.9342 106.194 36.0462 105.816 37.6215 105.816H38.5481V105.156H28.9111L19.6447 124.412L10.3783 105.156H0V105.816H0.833973C2.40926 105.816 3.52122 106.194 4.26253 106.949C5.00384 107.704 5.3745 108.837 5.3745 110.442V124.412C5.3745 126.017 4.91118 127.338 3.98454 128.282C3.0579 129.226 1.85327 129.698 0.185327 129.698H0V130.359H11.583V129.037ZM50.0384 109.875L55.0422 121.108H45.2199L50.0384 109.875Z" fill="#FEFFFD"/>
<path d="M20.2933 151.975C20.0153 153.014 19.7373 153.769 19.4593 154.335C19.1813 154.807 18.718 155.185 18.162 155.373C17.606 155.562 16.7721 155.657 15.7528 155.657H4.07714C4.91111 154.901 5.4671 154.429 5.74509 154.146C7.04238 153.108 9.26631 151.975 12.4169 150.559C14.6408 149.615 16.4014 148.766 17.5134 148.011C18.0694 147.539 18.6253 147.067 19.0887 146.5C20.2006 145.273 20.6639 143.857 20.6639 142.253C20.6639 141.214 20.386 140.176 19.9226 139.232C19.4593 138.288 18.718 137.533 17.7914 136.778C16.8647 136.117 15.7528 135.551 14.5481 135.173C13.2508 134.795 11.9536 134.607 10.3783 134.607C6.76439 134.607 4.1698 135.456 2.40919 137.25C1.76055 137.91 1.29723 138.666 0.926575 139.515C0.555921 140.365 0.463257 141.214 0.463257 142.064C0.463257 143.48 0.926575 144.707 1.76055 145.651C2.59452 146.595 3.70649 147.067 5.00378 147.067C5.74509 147.067 6.39373 146.878 6.94972 146.595C7.5057 146.312 7.96902 145.84 8.33967 145.273C8.71033 144.707 8.80299 144.141 8.80299 143.48C8.80299 142.913 8.71033 142.347 8.43233 141.875C8.15434 141.403 7.78369 141.025 7.32037 140.742C6.85705 140.459 6.30107 140.365 5.74509 140.365C5.00378 140.365 4.4478 140.554 3.89181 140.837C3.42849 141.214 2.96518 141.686 2.68719 142.441C2.59452 142.725 2.50186 143.008 2.40919 143.291C2.40919 143.669 2.22387 143.857 2.03854 143.857C1.48256 143.857 1.20457 143.197 1.20457 141.875C1.20457 140.648 1.57522 139.61 2.22387 138.571C2.87251 137.533 3.89181 136.778 5.00378 136.211C6.20841 135.645 7.5057 135.362 8.89565 135.362C10.7489 135.362 12.2315 135.928 13.2508 137.061C14.2701 138.194 14.8261 139.798 14.8261 141.969C14.8261 143.197 14.6408 144.329 14.1775 145.273C13.8068 146.217 13.0655 147.256 12.1389 148.294C12.0462 148.388 11.9536 148.483 11.8609 148.577C11.7682 148.671 11.6756 148.766 11.5829 148.86C11.2122 149.143 10.1929 149.993 8.525 151.22C5.4671 153.391 3.42849 155.185 2.40919 156.412C1.20457 157.828 0.555921 159.149 0.555921 160.282H19.274L21.0346 150.559H20.386L20.2933 151.975Z" fill="#FEFFFD"/>
<path d="M43.3662 150.748L43.0882 151.975C42.8102 153.014 42.5322 153.769 42.2542 154.335C41.9762 154.807 41.5129 155.185 40.9569 155.373C40.401 155.562 39.567 155.657 38.5477 155.657H26.8721C27.706 154.901 28.262 154.429 28.54 154.146C29.8373 153.108 32.0612 151.975 35.2118 150.559C37.4357 149.615 39.1963 148.766 40.3083 148.011C40.8643 147.539 41.4203 147.067 41.8836 146.5C42.9955 145.273 43.4589 143.857 43.4589 142.253C43.4589 141.214 43.1809 140.176 42.7175 139.232C42.2542 138.288 41.5129 137.533 40.5863 136.778C39.6596 136.117 38.5477 135.551 37.3431 135.173C36.0458 134.795 34.7485 134.607 33.1732 134.607C29.5593 134.607 26.9647 135.456 25.2041 137.25C24.5555 137.91 24.0922 138.666 23.7215 139.515C23.3508 140.365 23.2582 141.214 23.2582 142.064C23.2582 143.48 23.7215 144.707 24.5555 145.651C25.3894 146.595 26.5014 147.067 27.7987 147.067C28.54 147.067 29.1887 146.878 29.7446 146.595C30.3006 146.312 30.7639 145.84 31.1346 145.273C31.5052 144.707 31.5979 144.141 31.5979 143.48C31.5979 142.913 31.5052 142.347 31.2273 141.875C30.9493 141.403 30.5786 141.025 30.1153 140.742C29.652 140.459 29.096 140.365 28.54 140.365C27.7987 140.365 27.2427 140.554 26.6867 140.837C26.2234 141.214 25.7601 141.686 25.4821 142.441C25.3894 142.725 25.2968 143.008 25.2041 143.291C25.2041 143.669 25.0188 143.857 24.8335 143.857C24.2775 143.857 23.9995 143.197 23.9995 141.875C23.9995 140.648 24.3701 139.61 25.0188 138.571C25.6674 137.533 26.6867 136.778 27.7987 136.211C29.0033 135.645 30.3006 135.362 31.6906 135.362C33.5438 135.362 35.0265 135.928 36.0458 137.061C37.0651 138.194 37.621 139.798 37.621 141.969C37.621 143.197 37.4357 144.329 36.9724 145.273C36.6017 146.217 35.8604 147.256 34.9338 148.294C34.8411 148.388 34.7485 148.483 34.6558 148.577C34.5631 148.671 34.4705 148.766 34.3778 148.86C34.0072 149.143 32.9879 149.993 31.3199 151.22C28.262 153.391 26.2234 155.185 25.2041 156.412C23.9995 157.828 23.3508 159.149 23.3508 160.282H42.0689L43.8295 150.559H43.3662V150.748Z" fill="#FEFFFD"/>
<path d="M65.9766 156.883C66.8105 155.561 67.2739 154.145 67.2739 152.635C67.2739 151.219 66.9032 149.898 66.1619 148.765C65.4206 147.632 64.4013 146.688 63.104 146.027C61.8067 145.367 60.4167 144.989 58.8415 144.989C56.0615 144.989 54.0229 146.122 52.5403 148.387H52.4477V144.611C52.4477 141.496 53.0036 139.231 54.0229 137.721C55.0422 136.21 56.6175 135.455 58.7488 135.455C59.4901 135.455 60.1388 135.55 60.6947 135.738C61.3434 135.927 61.8067 136.116 62.1774 136.399C62.548 136.682 62.7333 136.965 62.7333 137.249C62.7333 137.532 62.4553 137.815 61.8994 138.098C61.2507 138.381 60.8801 138.759 60.6021 139.137C60.3241 139.514 60.2314 139.986 60.2314 140.552C60.2314 141.308 60.5094 141.968 61.0654 142.535C61.6214 143.007 62.27 143.29 63.104 143.29C63.938 143.29 64.5866 143.007 65.1426 142.44C65.6986 141.874 65.9766 141.213 65.9766 140.364C65.9766 139.325 65.6986 138.381 65.0499 137.532C64.4013 136.682 63.5673 136.022 62.4553 135.55C61.3434 135.078 60.1388 134.794 58.8415 134.794C57.2662 134.794 55.7836 135.078 54.3009 135.738C52.8183 136.399 51.521 137.249 50.4091 138.381C49.2044 139.609 48.2778 141.024 47.7218 142.629C47.0732 144.234 46.7952 146.027 46.7952 148.01C46.7952 149.331 46.9805 150.653 47.2585 151.88C47.5365 153.107 47.9998 154.24 48.5558 155.278C49.1118 156.316 49.7604 157.26 50.5017 158.015C51.4284 158.959 52.5403 159.715 53.8376 160.186C55.0422 160.658 56.4322 160.942 57.9148 160.942C59.6754 160.942 61.3434 160.564 62.826 159.903C64.0306 159.148 65.1426 158.11 65.9766 156.883ZM61.2507 156.977C61.1581 157.638 60.8801 158.11 60.6947 158.487C60.0461 159.715 58.8415 160.281 57.2662 160.281C56.2469 160.281 55.4129 159.998 54.6716 159.526C53.9303 159.054 53.3743 158.299 53.0036 157.355C52.633 156.411 52.4477 155.278 52.4477 153.862V151.597C52.4477 150.464 52.633 149.426 53.0963 148.576C53.5596 147.726 54.1156 146.971 54.9496 146.499C55.6909 146.027 56.6175 145.744 57.6368 145.744C58.7488 145.744 59.5828 146.027 60.2314 146.688C60.6947 147.16 61.0654 147.915 61.2507 148.67C61.436 149.52 61.5287 150.653 61.5287 152.069C61.5287 154.523 61.436 156.128 61.2507 156.977Z" fill="#FEFFFD"/>
<path d="M2.15851 166.772C3.16884 166.605 3.85495 165.635 3.69098 164.606C3.52701 163.576 2.57505 162.877 1.56472 163.044C0.554387 163.212 -0.131724 164.181 0.0322461 165.21C0.196216 166.24 1.14818 166.939 2.15851 166.772Z" fill="#FEFFFD"/>
<path d="M12.5099 166.795C13.5334 166.795 14.3632 165.949 14.3632 164.907C14.3632 163.864 13.5334 163.019 12.5099 163.019C11.4864 163.019 10.6566 163.864 10.6566 164.907C10.6566 165.949 11.4864 166.795 12.5099 166.795Z" fill="#FEFFFD"/>
<path d="M23.1659 166.795C24.1894 166.795 25.0192 165.949 25.0192 164.907C25.0192 163.864 24.1894 163.019 23.1659 163.019C22.1424 163.019 21.3126 163.864 21.3126 164.907C21.3126 165.949 22.1424 166.795 23.1659 166.795Z" fill="#FEFFFD"/>
<path d="M33.7296 166.795C34.7532 166.795 35.5829 165.949 35.5829 164.907C35.5829 163.864 34.7532 163.019 33.7296 163.019C32.7061 163.019 31.8763 163.864 31.8763 164.907C31.8763 165.949 32.7061 166.795 33.7296 166.795Z" fill="#FEFFFD"/>
<path d="M44.2935 166.795C45.317 166.795 46.1467 165.949 46.1467 164.907C46.1467 163.864 45.317 163.019 44.2935 163.019C43.2699 163.019 42.4402 163.864 42.4402 164.907C42.4402 165.949 43.2699 166.795 44.2935 166.795Z" fill="#FEFFFD"/>
<path d="M54.9493 166.795C55.9729 166.795 56.8026 165.949 56.8026 164.907C56.8026 163.864 55.9729 163.019 54.9493 163.019C53.9258 163.019 53.0961 163.864 53.0961 164.907C53.0961 165.949 53.9258 166.795 54.9493 166.795Z" fill="#FEFFFD"/>
<path d="M65.819 166.768C66.8293 166.601 67.5155 165.631 67.3515 164.602C67.1875 163.573 66.2356 162.874 65.2252 163.041C64.2149 163.208 63.5288 164.178 63.6928 165.207C63.8567 166.236 64.8087 166.935 65.819 166.768Z" fill="#FEFFFD"/>
<path d="M36.3245 37.5693L40.7724 31.5281L48.1855 31.9057L44.0156 25.5813L46.5175 18.5017L39.5678 20.6727L33.8226 15.8586L33.6373 23.5046L27.5215 27.6579L34.4713 30.2066L36.3245 37.5693Z" fill="#F5C300"/>
<path d="M55.8765 20.3886L59.861 16.2353L65.4209 17.2736L62.8263 12.0819L65.5135 6.98464L60.0464 7.92858L56.1545 3.86963L55.2279 9.53328L50.1313 12.0819L55.1352 14.6306L55.8765 20.3886Z" fill="#0F90CF"/>
<path d="M80.4325 0L77.5599 3.3038L73.2974 2.92622L75.5213 6.6076L73.7607 10.5722L77.9306 9.53382L81.1738 12.3656L81.4518 8.02351L85.251 5.85244L81.2664 4.24774L80.4325 0Z" fill="#AAC115"/>
<path d="M96.834 4.81398L96.1854 1.69897L94.0541 4.15322L90.9036 3.87004L92.5715 6.60747L91.1816 9.62809L94.3321 8.77854L96.7414 10.9496L97.0194 7.7402L99.7993 6.04111L96.834 4.81398Z" fill="#E52621"/>
<path d="M99.4284 45.2146C100.17 50.1231 104.062 53.4269 108.509 52.5773C110.363 52.1997 112.031 51.2558 113.328 49.8399C111.938 69.9459 128.803 59.1849 129.266 57.297C129.266 57.297 120.092 57.297 119.536 47.5744C119.444 46.1585 120.185 43.3267 120.648 41.4388C123.243 30.8666 111.938 24.1646 105.915 26.9965C102.486 28.7899 100.262 32.0937 98.6871 34.7368C97.7604 36.3415 94.0539 41.5332 88.2161 39.2677C91.3666 49.6511 96.5558 47.48 99.4284 45.2146Z" fill="white"/>
<path d="M138.995 100.247C132.88 76.0819 111.289 63.3387 101.559 57.0143C97.5748 54.3712 71.0729 37.1915 51.6136 42.9495C51.5209 42.9495 51.3356 43.0439 51.1502 43.3271C51.0576 43.4215 51.0576 43.5159 50.9649 43.6103C50.3163 46.3477 56.8954 51.8226 68.1077 57.9582C75.7061 62.1116 82.9339 65.1322 87.2891 66.0761C86.4551 74.8548 82.7486 101.568 69.0343 107.893C69.0343 107.893 77.1887 114.028 85.0652 116.199C87.2891 141.025 94.8875 161.131 97.6674 165.851C97.8528 166.228 98.0381 166.606 98.2234 166.7C98.2234 166.7 98.2234 166.7 98.3161 166.7C99.2427 166.889 101.096 154.146 100.077 139.609C99.3354 129.415 97.8528 120.258 96.3701 115.539C99.0574 117.71 103.598 119.975 108.694 121.863C110.548 125.356 112.494 128.66 115.922 134.04C121.389 142.819 125.096 146.878 127.227 148.766C128.524 150.181 129.544 150.748 130.1 150.276C131.675 148.954 128.524 139.232 123.799 128.471C123.15 127.055 122.594 125.733 121.945 124.412C124.169 124.317 125.745 123.657 126.208 122.524C126.208 122.43 126.208 122.241 126.208 122.052C126.208 122.052 126.208 122.052 126.208 122.146C125.837 121.014 125.374 119.881 117.127 105.816C113.42 99.3973 111.382 89.7691 111.011 79.8577C111.011 79.6689 111.011 79.4801 111.011 79.3857C112.216 82.1231 117.405 87.598 123.891 92.7897C131.582 99.0197 138.347 102.607 138.903 100.719C138.995 100.53 138.903 100.247 138.903 100.058C138.903 100.152 138.995 100.247 138.995 100.247Z" fill="white"/>
</svg>
