<svg width="288" height="123" viewBox="0 0 288 123" fill="none" xmlns="http://www.w3.org/2000/svg">
<path d="M0.285156 1.46875H14.1719L18.5664 91.6445H19.0938L23.6641 1.46875H37.5508V121H27.8828L29.6406 33.2852H28.9375L22.873 121H14.875L8.45898 33.1973H7.75586L9.95312 121H0.285156V1.46875Z" fill="#F4F4F4"/>
<path d="M43.6574 12.4551C43.6574 8.5293 44.8 5.54102 47.0852 3.49023C49.3703 1.43945 52.7395 0.414062 57.1926 0.414062C61.6457 0.414062 64.9855 1.49805 67.2121 3.66602C69.4973 5.77539 70.6398 8.93945 70.6398 13.1582V109.311C70.6398 117.865 66.1574 122.143 57.1926 122.143C52.8566 122.143 49.634 121.088 47.5246 118.979C45.4738 116.869 44.1848 113.646 43.6574 109.311V12.4551ZM54.7316 110.277C54.7316 111.977 55.552 112.826 57.1926 112.826C58.8332 112.826 59.6535 111.977 59.6535 110.277V12.1914C59.6535 10.4922 58.8332 9.64258 57.1926 9.64258C55.552 9.64258 54.7316 10.4922 54.7316 12.1914V110.277Z" fill="#F4F4F4"/>
<path d="M73.3187 1.46875H84.0414L86.5902 94.8086H87.1176L89.6664 1.46875H100.477L93.4457 121H80.35L73.3187 1.46875Z" fill="#F4F4F4"/>
<path d="M104.65 1.46875H115.461V121H104.65V1.46875Z" fill="#F4F4F4"/>
<path d="M121.919 1.46875H142.046V9.64258H132.817V58.1582H140.112V65.0137H132.817V113.002H142.134V121H121.919V1.46875Z" fill="#F4F4F4"/>
<path d="M146.307 81.0098C146.307 76.6152 146.277 73.832 146.219 72.6602V69.7598C146.219 67.0059 146.746 65.043 147.801 63.8711C148.914 62.6992 150.76 62.1133 153.338 62.1133C155.389 62.1133 156.854 62.4648 157.732 63.168C158.611 63.8125 159.109 64.9551 159.227 66.5957V71.957C159.285 73.1875 159.607 73.8027 160.193 73.8027C160.721 73.8027 160.984 73.0703 160.984 71.6055V62.2012H167.137C167.137 65.541 167.166 67.7383 167.225 68.793V73.5391C167.225 76.293 166.668 78.2559 165.555 79.4277C164.441 80.5996 162.596 81.1855 160.018 81.1855C158.025 81.1855 156.59 80.834 155.711 80.1309C154.832 79.4277 154.334 78.2559 154.217 76.6152V71.2539C154.041 70.0234 153.719 69.4082 153.25 69.4082C152.664 69.4082 152.371 70.1406 152.371 71.6055V81.0098H146.307Z" fill="#F4F4F4"/>
<path d="M171.573 1.46875H182.296L184.845 94.8086H185.372L187.921 1.46875H198.732L191.7 121H178.605L171.573 1.46875Z" fill="#F4F4F4"/>
<path d="M213.452 100.697H208.881L208.354 121H197.631L204.663 1.46875H217.67L224.789 121H213.979L213.452 100.697ZM213.188 93.4902L211.43 27.6602H210.903L209.145 93.4902H213.188Z" fill="#F4F4F4"/>
<path d="M229.841 1.46875H241.004L242.761 19.8379L247.595 87.5137H248.298L246.013 1.46875H255.769V121H244.607L242.761 102.719L237.752 33.6367L237.048 33.5488L239.509 121H229.841V1.46875Z" fill="#F4F4F4"/>
<path d="M275.059 122.23C266.505 122.23 262.227 118.715 262.227 111.684V81.0977H272.159V111.771C272.159 112.533 272.364 113.148 272.774 113.617C273.243 114.086 273.858 114.32 274.62 114.32C275.44 114.32 276.055 114.115 276.466 113.705C276.934 113.236 277.169 112.592 277.169 111.771C277.169 104.213 276.964 97.8848 276.554 92.7871C275.968 84.0566 275.03 76.8789 273.741 71.2539C272.452 65.6289 270.723 59.5059 268.555 52.8848C267.091 48.5488 265.948 44.8574 265.128 41.8105C264.307 38.7051 263.604 35.0723 263.018 30.9121C262.491 26.6934 262.227 21.8594 262.227 16.4102V10.9609C262.286 7.32812 263.341 4.66211 265.391 2.96289C267.442 1.26367 270.46 0.414062 274.444 0.414062C278.604 0.414062 281.71 1.32227 283.761 3.13867C285.87 4.89648 286.954 7.47461 287.013 10.873V33.8125H277.257V10.7852C277.257 9.14453 276.436 8.32422 274.796 8.32422C273.155 8.32422 272.335 9.17383 272.335 10.873C272.335 15.7949 272.54 20.0723 272.95 23.7051C273.419 28.7441 274.122 33.2266 275.059 37.1523C276.055 41.0195 277.403 45.5605 279.102 50.7754C280.86 56.4004 282.266 61.3809 283.321 65.7168C284.434 70.0527 285.372 75.4727 286.134 81.9766C286.895 88.4805 287.276 96.127 287.276 104.916V112.035C287.218 115.375 286.104 117.924 283.936 119.682C281.827 121.381 278.868 122.23 275.059 122.23Z" fill="#F4F4F4"/>
</svg>
