<svg width="497" height="66" viewBox="0 0 497 66" fill="none" xmlns="http://www.w3.org/2000/svg">
<path d="M34.1025 1.34521H40.0557L40.9932 11.1421L43.5713 47.2358H43.9463L42.7275 1.34521H47.9307V65.0952H41.9775L40.9932 55.3452L38.3213 18.5015L37.9463 18.4546L39.2588 65.0952H34.1025V1.34521Z" fill="#FEFFFD"/>
<path d="M61.7775 65.7046C57.3713 65.7046 55.1682 63.7827 55.1682 59.939V15.1733H60.465V59.9858C60.465 60.9546 60.9025 61.439 61.7775 61.439C62.6525 61.439 63.09 60.9546 63.09 59.9858V15.1733H68.34V60.0327C68.34 63.814 66.1525 65.7046 61.7775 65.7046Z" fill="#FEFFFD"/>
<path d="M80.8275 41.6577V60.8765C80.8275 61.7827 81.265 62.2358 82.14 62.2358C83.015 62.2358 83.4525 61.7827 83.4525 60.8765V44.2827H88.6088V60.7827C88.1713 64.064 86.015 65.7046 82.14 65.7046C79.9525 65.7046 78.2963 65.2046 77.1713 64.2046C76.0463 63.1733 75.4838 61.6577 75.4838 59.6577V20.5171C75.4838 18.5171 76.0463 17.0171 77.1713 16.0171C78.2963 14.9858 79.9525 14.4702 82.14 14.4702C84.3275 14.4702 85.9838 14.9702 87.1088 15.9702C88.2338 16.9702 88.7963 18.439 88.7963 20.3765L88.7025 41.6577H80.8275ZM82.14 18.2202C81.265 18.2202 80.8275 18.6733 80.8275 19.5796V38.3765H83.4525V19.5796C83.4525 18.6733 83.015 18.2202 82.14 18.2202Z" fill="#FEFFFD"/>
<path d="M102.315 65.7046C100.096 65.7046 98.4713 65.2202 97.44 64.2515C96.4088 63.2827 95.8932 62.1108 95.8932 60.7358V47.7515L100.909 47.8452V60.7358C100.909 61.1108 101.003 61.4233 101.19 61.6733C101.409 61.8921 101.737 62.0015 102.174 62.0015C102.612 62.0015 102.94 61.8921 103.159 61.6733C103.409 61.4233 103.534 61.1108 103.534 60.7358C103.534 59.6421 103.456 57.3452 103.299 53.8452L103.159 50.564C103.065 48.2827 102.768 46.4233 102.268 44.9858C101.768 43.5483 101.018 41.9233 100.018 40.1108C99.1432 38.5171 98.4244 37.064 97.8619 35.7515C97.3307 34.439 96.8775 32.7046 96.5025 30.5483C96.1275 28.3921 95.94 25.7358 95.94 22.5796V19.6265C95.94 18.0327 96.4713 16.7983 97.5338 15.9233C98.6275 15.0483 100.128 14.6108 102.034 14.6108C104.003 14.6108 105.534 15.064 106.628 15.9702C107.753 16.8452 108.315 18.0483 108.315 19.5796V30.6421L103.44 30.5952V19.4858C103.44 19.2046 103.331 18.939 103.112 18.689C102.893 18.4077 102.565 18.2671 102.128 18.2671C101.69 18.2671 101.362 18.4077 101.143 18.689C100.924 18.939 100.815 19.2046 100.815 19.4858C100.815 22.0796 100.956 24.4077 101.237 26.4702C101.518 29.3452 101.924 31.5015 102.456 32.939C102.987 34.3452 103.706 35.7358 104.612 37.1108C105.456 38.3608 106.128 39.6108 106.628 40.8608C107.159 42.0796 107.596 43.9858 107.94 46.5796C108.284 49.1421 108.456 52.6108 108.456 56.9858V60.8296C108.456 62.2983 107.878 63.4858 106.721 64.3921C105.596 65.2671 104.128 65.7046 102.315 65.7046Z" fill="#FEFFFD"/>
<path d="M121.224 65.0952C119.631 65.0952 118.365 64.6265 117.428 63.689C116.49 62.7202 116.021 61.3765 116.021 59.6577V19.439H114.474V15.6421L116.115 14.7515L117.428 3.78271H121.693V15.1733H124.365V19.439H121.693V59.2827C121.693 59.7202 121.818 60.0796 122.068 60.3608C122.318 60.6421 122.662 60.7827 123.099 60.7827H124.318V65.0952H121.224Z" fill="#FEFFFD"/>
<path d="M130.009 15.1733H134.649L135.399 17.0015C135.962 15.439 136.806 14.6577 137.931 14.6577C138.556 14.6577 139.071 14.7671 139.478 14.9858V19.2983C139.321 19.2046 139.087 19.1265 138.774 19.064C138.493 19.0015 138.228 18.9702 137.978 18.9702C136.446 18.9702 135.681 19.7827 135.681 21.4077V65.0952H130.009V15.1733Z" fill="#FEFFFD"/>
<path d="M151.824 65.7046C147.387 65.7046 145.168 63.7202 145.168 59.7515V20.4233C145.168 16.4546 147.387 14.4702 151.824 14.4702C156.262 14.4702 158.481 16.4546 158.481 20.4233V59.7515C158.481 63.7202 156.262 65.7046 151.824 65.7046ZM151.824 61.439C152.699 61.439 153.137 60.9546 153.137 59.9858V20.2358C153.137 19.2358 152.699 18.7358 151.824 18.7358C150.949 18.7358 150.512 19.2358 150.512 20.2358V59.9858C150.512 60.9546 150.949 61.439 151.824 61.439Z" fill="#FEFFFD"/>
<path d="M171.953 65.7046C169.734 65.7046 168.109 65.2202 167.078 64.2515C166.046 63.2827 165.531 62.1108 165.531 60.7358V47.7515L170.546 47.8452V60.7358C170.546 61.1108 170.64 61.4233 170.828 61.6733C171.046 61.8921 171.374 62.0015 171.812 62.0015C172.249 62.0015 172.578 61.8921 172.796 61.6733C173.046 61.4233 173.171 61.1108 173.171 60.7358C173.171 59.6421 173.093 57.3452 172.937 53.8452L172.796 50.564C172.703 48.2827 172.406 46.4233 171.906 44.9858C171.406 43.5483 170.656 41.9233 169.656 40.1108C168.781 38.5171 168.062 37.064 167.499 35.7515C166.968 34.439 166.515 32.7046 166.14 30.5483C165.765 28.3921 165.578 25.7358 165.578 22.5796V19.6265C165.578 18.0327 166.109 16.7983 167.171 15.9233C168.265 15.0483 169.765 14.6108 171.671 14.6108C173.64 14.6108 175.171 15.064 176.265 15.9702C177.39 16.8452 177.953 18.0483 177.953 19.5796V30.6421L173.078 30.5952V19.4858C173.078 19.2046 172.968 18.939 172.749 18.689C172.531 18.4077 172.203 18.2671 171.765 18.2671C171.328 18.2671 170.999 18.4077 170.781 18.689C170.562 18.939 170.453 19.2046 170.453 19.4858C170.453 22.0796 170.593 24.4077 170.874 26.4702C171.156 29.3452 171.562 31.5015 172.093 32.939C172.624 34.3452 173.343 35.7358 174.249 37.1108C175.093 38.3608 175.765 39.6108 176.265 40.8608C176.796 42.0796 177.234 43.9858 177.578 46.5796C177.921 49.1421 178.093 52.6108 178.093 56.9858V60.8296C178.093 62.2983 177.515 63.4858 176.359 64.3921C175.234 65.2671 173.765 65.7046 171.953 65.7046Z" fill="#FEFFFD"/>
<path d="M198.428 1.34521H205.131C207.443 1.34521 209.178 1.78271 210.334 2.65771C211.521 3.53271 212.115 5.01709 212.115 7.11084V44.4233C212.084 46.5171 211.49 48.0171 210.334 48.9233C209.178 49.8296 207.537 50.2827 205.412 50.2827H204.193V65.0952H198.428V1.34521ZM205.271 46.1108C206.178 46.1108 206.631 45.5796 206.631 44.5171V7.25146C206.631 6.25146 206.162 5.75146 205.224 5.75146H203.959V46.1108H205.271Z" fill="#FEFFFD"/>
<path d="M219.353 15.1733H223.993L224.743 17.0015C225.306 15.439 226.149 14.6577 227.274 14.6577C227.899 14.6577 228.415 14.7671 228.821 14.9858V19.2983C228.665 19.2046 228.431 19.1265 228.118 19.064C227.837 19.0015 227.571 18.9702 227.321 18.9702C225.79 18.9702 225.024 19.7827 225.024 21.4077V65.0952H219.353V15.1733Z" fill="#FEFFFD"/>
<path d="M239.809 41.6577V60.8765C239.809 61.7827 240.246 62.2358 241.121 62.2358C241.996 62.2358 242.434 61.7827 242.434 60.8765V44.2827H247.59V60.7827C247.153 64.064 244.996 65.7046 241.121 65.7046C238.934 65.7046 237.278 65.2046 236.153 64.2046C235.028 63.1733 234.465 61.6577 234.465 59.6577V20.5171C234.465 18.5171 235.028 17.0171 236.153 16.0171C237.278 14.9858 238.934 14.4702 241.121 14.4702C243.309 14.4702 244.965 14.9702 246.09 15.9702C247.215 16.9702 247.778 18.439 247.778 20.3765L247.684 41.6577H239.809ZM241.121 18.2202C240.246 18.2202 239.809 18.6733 239.809 19.5796V38.3765H242.434V19.5796C242.434 18.6733 241.996 18.2202 241.121 18.2202Z" fill="#FEFFFD"/>
<path d="M272.171 14.5171C274.859 14.5171 276.203 16.439 276.203 20.2827V65.0952H270.859V20.3296C270.859 19.2358 270.499 18.689 269.781 18.689C268.749 18.689 268.234 19.2515 268.234 20.3765V65.0952H262.89V20.3296C262.89 19.2358 262.499 18.689 261.718 18.689C260.749 18.689 260.265 19.4077 260.265 20.8452V65.0952H255.015V15.1733H259.749L260.406 17.0952C261.124 15.3765 262.39 14.5171 264.203 14.5171C266.015 14.5171 267.203 15.3765 267.765 17.0952C268.515 15.3765 269.984 14.5171 272.171 14.5171Z" fill="#FEFFFD"/>
<path d="M286.253 13.6733C285.315 13.6733 284.643 13.564 284.237 13.3452C283.862 13.1265 283.596 12.6421 283.44 11.8921C283.284 11.1108 283.206 9.78271 283.206 7.90771C283.206 6.00146 283.284 4.65771 283.44 3.87646C283.596 3.06396 283.862 2.54834 284.237 2.32959C284.643 2.11084 285.331 2.00146 286.299 2.00146C287.237 2.00146 287.893 2.11084 288.268 2.32959C288.674 2.54834 288.956 3.06396 289.112 3.87646C289.268 4.65771 289.346 6.00146 289.346 7.90771C289.346 9.78271 289.268 11.1108 289.112 11.8921C288.956 12.6421 288.674 13.1265 288.268 13.3452C287.893 13.564 287.221 13.6733 286.253 13.6733ZM283.44 15.2671C284.378 15.3608 285.284 15.4077 286.159 15.4077C287.221 15.4077 288.206 15.3608 289.112 15.2671V65.0952H283.44V15.2671Z" fill="#FEFFFD"/>
<path d="M303.006 65.7046C298.568 65.7046 296.349 63.7202 296.349 59.7515V20.4233C296.349 16.4546 298.568 14.4702 303.006 14.4702C307.443 14.4702 309.662 16.4546 309.662 20.4233V59.7515C309.662 63.7202 307.443 65.7046 303.006 65.7046ZM303.006 61.439C303.881 61.439 304.318 60.9546 304.318 59.9858V20.2358C304.318 19.2358 303.881 18.7358 303.006 18.7358C302.131 18.7358 301.693 19.2358 301.693 20.2358V59.9858C301.693 60.9546 302.131 61.439 303.006 61.439Z" fill="#FEFFFD"/>
<path d="M323.134 65.7046C320.915 65.7046 319.29 65.2202 318.259 64.2515C317.228 63.2827 316.712 62.1108 316.712 60.7358V47.7515L321.728 47.8452V60.7358C321.728 61.1108 321.821 61.4233 322.009 61.6733C322.228 61.8921 322.556 62.0015 322.993 62.0015C323.431 62.0015 323.759 61.8921 323.978 61.6733C324.228 61.4233 324.353 61.1108 324.353 60.7358C324.353 59.6421 324.274 57.3452 324.118 53.8452L323.978 50.564C323.884 48.2827 323.587 46.4233 323.087 44.9858C322.587 43.5483 321.837 41.9233 320.837 40.1108C319.962 38.5171 319.243 37.064 318.681 35.7515C318.149 34.439 317.696 32.7046 317.321 30.5483C316.946 28.3921 316.759 25.7358 316.759 22.5796V19.6265C316.759 18.0327 317.29 16.7983 318.353 15.9233C319.446 15.0483 320.946 14.6108 322.853 14.6108C324.821 14.6108 326.353 15.064 327.446 15.9702C328.571 16.8452 329.134 18.0483 329.134 19.5796V30.6421L324.259 30.5952V19.4858C324.259 19.2046 324.149 18.939 323.931 18.689C323.712 18.4077 323.384 18.2671 322.946 18.2671C322.509 18.2671 322.181 18.4077 321.962 18.689C321.743 18.939 321.634 19.2046 321.634 19.4858C321.634 22.0796 321.774 24.4077 322.056 26.4702C322.337 29.3452 322.743 31.5015 323.274 32.939C323.806 34.3452 324.524 35.7358 325.431 37.1108C326.274 38.3608 326.946 39.6108 327.446 40.8608C327.978 42.0796 328.415 43.9858 328.759 46.5796C329.103 49.1421 329.274 52.6108 329.274 56.9858V60.8296C329.274 62.2983 328.696 63.4858 327.54 64.3921C326.415 65.2671 324.946 65.7046 323.134 65.7046Z" fill="#FEFFFD"/>
<path d="M354.859 41.6577V60.8765C354.859 61.7827 355.296 62.2358 356.171 62.2358C357.046 62.2358 357.484 61.7827 357.484 60.8765V44.2827H362.64V60.7827C362.203 64.064 360.046 65.7046 356.171 65.7046C353.984 65.7046 352.328 65.2046 351.203 64.2046C350.078 63.1733 349.515 61.6577 349.515 59.6577V20.5171C349.515 18.5171 350.078 17.0171 351.203 16.0171C352.328 14.9858 353.984 14.4702 356.171 14.4702C358.359 14.4702 360.015 14.9702 361.14 15.9702C362.265 16.9702 362.828 18.439 362.828 20.3765L362.734 41.6577H354.859ZM356.171 18.2202C355.296 18.2202 354.859 18.6733 354.859 19.5796V38.3765H357.484V19.5796C357.484 18.6733 357.046 18.2202 356.171 18.2202Z" fill="#FEFFFD"/>
<path d="M370.065 15.1733H374.799L375.456 17.0952C376.174 15.3765 377.44 14.5171 379.253 14.5171C380.628 14.5171 381.643 15.0015 382.299 15.9702C382.956 16.939 383.284 18.4077 383.284 20.3765V65.0952H377.94V20.4233C377.94 19.7983 377.846 19.3608 377.659 19.1108C377.471 18.8296 377.174 18.689 376.768 18.689C375.799 18.689 375.315 19.439 375.315 20.939V65.0952H370.065V15.1733Z" fill="#FEFFFD"/>
<path d="M23.2543 1.09753C23.2543 1.09753 22.6462 6.72474 18.4208 6.84802C17.3341 4.24137 20.916 0.996255 23.2543 1.09753Z" fill="#FEFFFD"/>
<path d="M16.0634 11.2803C16.0634 11.2803 15.991 7.85196 21.7564 9.41246C22.4211 10.2665 17.3476 13.1082 16.0634 11.2803Z" fill="#FEFFFD"/>
<path d="M14.8491 3.25243C14.8491 3.25243 17.6054 7.57455 14.8124 9.90503C12.0193 12.2355 13.3653 6.43824 14.8491 3.25243Z" fill="#FEFFFD"/>
<path d="M19.6588 14.8851C19.6588 14.8851 15.2913 18.2039 13.2134 16.3551C12.8098 14.5252 17.1134 13.0401 19.6588 14.8851Z" fill="#FEFFFD"/>
<path d="M11.3203 7.56733C11.3203 7.56733 14.0393 13.0866 11.106 14.5657C8.17263 16.0447 10.2085 8.55337 11.3203 7.56733Z" fill="#FEFFFD"/>
<path d="M17.5582 7.42227C17.5582 7.42227 18.9544 5.98967 17.7386 7.65029C14.4952 12.0729 5.61552 24.7685 7.30812 37.5157C9.41742 53.2701 18.2284 60.3987 23.2546 64.7481C23.1171 65.2171 22.825 65.0751 22.825 65.0751C22.825 65.0751 8.64845 55.5803 6.71528 37.3221C6.75824 27.2207 6.87853 23.6671 17.5582 7.42227Z" fill="#FEFFFD"/>
<path d="M15.3444 25.1593C15.3444 25.1593 11.3604 21.9452 9.26569 24.175C7.17094 26.4048 14.0674 27.0316 15.3444 25.1593Z" fill="#FEFFFD"/>
<path d="M7.21383 13.3197C7.21383 13.3197 11.2331 16.9209 8.82062 19.1622C6.40812 21.4035 6.37086 17.2357 7.21383 13.3197Z" fill="#FEFFFD"/>
<path d="M17.5016 20.0395C17.5016 20.0395 11.3964 23.632 11.0487 20.9618C10.701 18.2916 15.2121 18.9078 17.5016 20.0395Z" fill="#FEFFFD"/>
<path d="M4.55759 19.7918C4.55759 19.7918 8.58053 20.9618 7.11115 23.8632C5.64178 26.7646 4.61822 22.4281 4.55759 19.7918Z" fill="#FEFFFD"/>
<path d="M16.0598 50.2295C16.0598 50.2295 14.2917 52.2992 12.1878 51.009C10.0839 49.7189 16.237 49.9099 16.0598 50.2295Z" fill="#FEFFFD"/>
<path d="M14.6252 29.2039C14.6252 29.2039 8.6614 32.1939 8.18375 29.3538C7.7061 26.5138 12.9739 27.9318 14.6252 29.2039Z" fill="#FEFFFD"/>
<path d="M1.68114 24.8255C1.68114 24.8255 7.05203 25.9473 5.80907 28.8741C4.56611 31.8008 2.00679 27.533 1.68114 24.8255Z" fill="#FEFFFD"/>
<path d="M13.9061 33.5095C13.9061 33.5095 8.75203 29.9939 8.20533 33.7516C7.65863 37.5093 11.544 34.5902 13.9061 33.5095Z" fill="#FEFFFD"/>
<path d="M0.962395 30.5784C0.962395 30.5784 5.82574 30.5784 5.22572 33.1496C4.6257 35.7209 1.89796 32.9192 0.962395 30.5784Z" fill="#FEFFFD"/>
<path d="M0.253863 34.8928C0.253863 34.8928 7.27782 35.8668 5.78874 37.8985C4.29966 39.9303 0.00100092 36.1621 0.253863 34.8928Z" fill="#FEFFFD"/>
<path d="M13.187 37.2742C13.187 37.2742 9.84949 35.125 8.45753 37.316C7.06558 39.5071 10.7641 40.1648 13.187 37.2742Z" fill="#FEFFFD"/>
<path d="M0.243164 39.8071C0.243164 39.8071 5.88812 38.01 5.99407 40.6394C6.10002 43.2689 1.75188 41.8944 0.243164 39.8071Z" fill="#FEFFFD"/>
<path d="M13.9062 42.146C13.9062 42.146 12.1656 39.4838 9.5875 41.2519C7.00943 43.02 12.0954 43.2165 13.9062 42.146Z" fill="#FEFFFD"/>
<path d="M1.68114 44.7553C1.68114 44.7553 6.01727 42.0826 6.64624 44.6066C7.27521 47.1307 3.4181 46.8098 1.68114 44.7553Z" fill="#FEFFFD"/>
<path d="M14.6249 45.3257C14.6249 45.3257 12.6239 42.19 10.2856 44.1879C7.94733 46.1858 12.0542 47.3864 14.6249 45.3257Z" fill="#FEFFFD"/>
<path d="M3.11961 49.014C3.11961 49.014 7.23479 45.5675 8.04365 47.9675C8.85251 50.3676 4.98332 50.5292 3.11961 49.014Z" fill="#FEFFFD"/>
<path d="M15.3443 47.6657C15.3443 47.6657 11.608 46.1628 11.0755 48.1353C10.543 50.1079 14.8162 49.2362 15.3443 47.6657Z" fill="#FEFFFD"/>
<path d="M5.99605 52.1822C5.99605 52.1822 8.35663 49.5011 9.38226 51.3826C10.4079 53.2642 7.40426 53.1589 5.99605 52.1822Z" fill="#FEFFFD"/>
<path d="M16.0633 52.3181C16.0633 52.3181 13.5305 51.638 13.2097 53.0254C12.8889 54.4129 16.0633 52.8739 16.0633 52.3181Z" fill="#FEFFFD"/>
<path d="M8.15326 54.3611C8.15326 54.3611 11.1293 52.778 11.0271 54.1468C10.9249 55.5157 8.62655 55.0477 8.15326 54.3611Z" fill="#FEFFFD"/>
<path d="M16.7825 53.5894C16.7825 53.5894 13.9117 53.6333 13.9062 54.6025C13.9006 55.5718 16.5617 54.7339 16.7825 53.5894Z" fill="#FEFFFD"/>
<path d="M10.3105 55.5937C10.3105 55.5937 11.9522 54.6553 12.4003 55.1956C12.8484 55.7358 10.941 55.9008 10.3105 55.5937Z" fill="#FEFFFD"/>
<path d="M11.7489 56.9377C11.7489 56.9377 13.2458 56.0788 13.1854 56.6787C13.1249 57.2786 12.1208 57.3195 11.7489 56.9377Z" fill="#FEFFFD"/>
<path d="M16.0525 55.7471C16.0525 55.7471 15.106 55.7471 14.6847 55.7471C14.2635 55.7471 16.2276 55.7471 16.0525 55.7471Z" fill="#FEFFFD"/>
<path d="M472.884 1.09748C472.884 1.09748 473.569 6.60675 478.195 6.72746C479.389 4.17543 475.453 0.998329 472.884 1.09748Z" fill="#FEFFFD"/>
<path d="M480.035 11.3057C480.035 11.3057 480.096 7.60265 474.608 9.30113C474 10.2107 478.811 13.28 480.035 11.3057Z" fill="#FEFFFD"/>
<path d="M481.359 3.12787C481.359 3.12787 478.772 7.63702 481.393 10.0683C484.014 12.4997 482.756 6.45154 481.359 3.12787Z" fill="#FEFFFD"/>
<path d="M476.44 14.8361C476.44 14.8361 481.152 18.6124 483.394 16.5087C483.833 14.4266 479.173 12.7367 476.44 14.8361Z" fill="#FEFFFD"/>
<path d="M484.777 7.40842C484.777 7.40842 482.148 13.1031 484.98 14.6291C487.812 16.1551 485.825 8.42578 484.777 7.40842Z" fill="#FEFFFD"/>
<path d="M478.88 7.30504C478.88 7.30504 477.479 5.86952 478.699 7.53351C481.954 11.9651 490.864 24.6864 489.153 37.4595C487.036 53.2458 478.199 60.3889 473.151 64.7472C473.289 65.2171 473.582 65.0748 473.582 65.0748C473.582 65.0748 487.808 55.5608 489.748 37.2655C489.722 27.1436 489.593 23.5828 478.88 7.30504Z" fill="#FEFFFD"/>
<path d="M480.755 25.1002C480.755 25.1002 484.682 21.6515 486.752 24.0441C488.821 26.4366 482.014 27.1091 480.755 25.1002Z" fill="#FEFFFD"/>
<path d="M488.933 13.4913C488.933 13.4913 485.208 17.19 487.45 19.492C489.692 21.794 489.709 17.5133 488.933 13.4913Z" fill="#FEFFFD"/>
<path d="M478.69 19.7936C478.69 19.7936 484.894 23.7897 485.247 20.8196C485.601 17.8494 481.014 18.5348 478.69 19.7936Z" fill="#FEFFFD"/>
<path d="M492.032 19.5394C492.032 19.5394 487.165 20.8326 488.942 24.0399C490.718 27.2472 491.955 22.4535 492.032 19.5394Z" fill="#FEFFFD"/>
<path d="M480.553 50.0689C480.553 50.0689 482.182 52.3579 484.131 50.931C486.079 49.5041 480.38 49.7154 480.553 50.0689Z" fill="#FEFFFD"/>
<path d="M481.923 29.2387C481.923 29.2387 487.571 32.4201 488.023 29.3982C488.476 26.3763 483.484 27.8851 481.923 29.2387Z" fill="#FEFFFD"/>
<path d="M494.391 24.7813C494.391 24.7813 489.343 25.928 490.511 28.9197C491.679 31.9115 494.084 27.5489 494.391 24.7813Z" fill="#FEFFFD"/>
<path d="M482.527 33.36C482.527 33.36 487.851 29.9889 488.416 33.5928C488.98 37.1967 484.967 34.3989 482.527 33.36Z" fill="#FEFFFD"/>
<path d="M495.658 30.67C495.658 30.67 490.347 30.67 491.007 33.4117C491.666 36.1534 494.636 33.166 495.658 30.67Z" fill="#FEFFFD"/>
<path d="M495.955 34.8385C495.955 34.8385 489.519 35.7912 490.86 37.7785C492.201 39.7659 496.188 36.0801 495.955 34.8385Z" fill="#FEFFFD"/>
<path d="M482.825 37.576C482.825 37.576 486.411 35.3645 487.907 37.6191C489.403 39.8737 485.429 40.5505 482.825 37.576Z" fill="#FEFFFD"/>
<path d="M496.063 40.02C496.063 40.02 490.321 38.2051 490.213 40.8606C490.106 43.5161 494.528 42.128 496.063 40.02Z" fill="#FEFFFD"/>
<path d="M482.337 42.1498C482.337 42.1498 484.062 39.2874 486.571 41.2057C489.08 43.1241 484.114 43.3008 482.337 42.1498Z" fill="#FEFFFD"/>
<path d="M494.46 44.7104C494.46 44.7104 489.972 41.7661 489.321 44.5466C488.67 47.3271 492.662 46.9736 494.46 44.7104Z" fill="#FEFFFD"/>
<path d="M481.958 45.2624C481.958 45.2624 483.851 42.2448 486.062 44.1674C488.274 46.0901 484.394 47.2454 481.958 45.2624Z" fill="#FEFFFD"/>
<path d="M493.037 49.224C493.037 49.224 488.782 45.5468 487.946 48.1075C487.109 50.6681 491.119 50.8406 493.037 49.224Z" fill="#FEFFFD"/>
<path d="M481.285 47.4218C481.285 47.4218 484.941 45.6975 485.467 47.9607C485.993 50.2239 481.798 49.2238 481.285 47.4218Z" fill="#FEFFFD"/>
<path d="M490.231 52.1379C490.231 52.1379 487.726 49.7238 486.64 51.418C485.553 53.1121 488.726 53.0173 490.231 52.1379Z" fill="#FEFFFD"/>
<path d="M480.113 52.0993C480.113 52.0993 482.7 51.3449 483.027 52.8838C483.355 54.4228 480.113 52.7157 480.113 52.0993Z" fill="#FEFFFD"/>
<path d="M488.446 54.0304C488.446 54.0304 485.058 52.4699 485.174 53.8192C485.29 55.1685 487.907 54.7072 488.446 54.0304Z" fill="#FEFFFD"/>
<path d="M479.854 53.7458C479.854 53.7458 482.096 53.7803 482.1 54.5434C482.105 55.3064 480.035 54.6468 479.854 53.7458Z" fill="#FEFFFD"/>
<path d="M486.325 55.6731C486.325 55.6731 484.54 54.2505 484.057 55.0695C483.574 55.8886 485.639 56.1386 486.325 55.6731Z" fill="#FEFFFD"/>
<path d="M484.471 56.7464C484.471 56.7464 483.079 55.9317 483.135 56.5007C483.191 57.0698 484.122 57.1086 484.471 56.7464Z" fill="#FEFFFD"/>
<path d="M480.303 55.6081C480.303 55.6081 481.165 55.177 481.548 55.6943C481.932 56.2116 480.143 55.8796 480.303 55.6081Z" fill="#FEFFFD"/>
<path d="M398.89 61.4627C398.89 58.5827 399.041 55.9223 399.344 53.4816C399.664 51.0409 400.052 48.8443 400.506 46.8918C400.961 44.9392 401.559 42.645 402.299 40.009C403.057 37.2754 403.655 34.9568 404.093 33.0531C404.547 31.1493 404.926 28.9771 405.229 26.5364C405.549 24.0469 405.709 21.3622 405.709 18.4822C405.709 16.7737 405.625 15.4557 405.456 14.5282C405.288 13.552 404.985 13.0638 404.547 13.0638C403.823 13.0638 403.461 14.9432 403.461 18.7018V26.39H398.89L398.839 22.5093C398.839 17.7255 399.008 13.796 399.344 10.7208C399.681 7.6455 400.271 5.30244 401.112 3.69159C401.954 2.08073 403.116 1.2753 404.598 1.2753C406.416 1.2753 407.822 2.76412 408.816 5.74176C409.809 8.67059 410.306 12.8442 410.306 18.2625C410.306 21.7283 410.137 24.8768 409.801 27.708C409.481 30.4903 409.077 32.931 408.588 35.03C408.117 37.129 407.485 39.5941 406.694 42.4253C406.122 44.4267 405.642 46.2084 405.254 47.7704C404.884 49.3324 404.547 50.9433 404.244 52.603H410.154V64.4647H398.89V61.4627Z" fill="#FEFFFD"/>
<path d="M420.639 65.0505C418.804 65.0505 417.389 63.5617 416.396 60.584C415.402 57.5576 414.906 53.262 414.906 47.6972V19.2876C414.906 13.3323 415.386 8.79262 416.345 5.66854C417.305 2.54446 418.736 0.982422 420.639 0.982422C422.558 0.982422 423.998 2.54446 424.958 5.66854C425.917 8.79262 426.397 13.3323 426.397 19.2876V47.6972C426.397 53.3108 425.901 57.6064 424.907 60.584C423.914 63.5617 422.491 65.0505 420.639 65.0505ZM420.639 53.4816C420.959 53.4816 421.22 53.0667 421.422 52.2369C421.624 51.3582 421.725 50.3331 421.725 49.1616V18.1161C421.725 16.3099 421.649 14.9432 421.498 14.0157C421.363 13.0394 421.077 12.5513 420.639 12.5513C420.201 12.5513 419.915 13.0394 419.78 14.0157C419.646 14.9432 419.578 16.3099 419.578 18.1161V49.1616C419.578 50.3331 419.671 51.3582 419.856 52.2369C420.058 53.0667 420.319 53.4816 420.639 53.4816Z" fill="#FEFFFD"/>
<path d="M431.427 61.4627C431.427 58.5827 431.578 55.9223 431.881 53.4816C432.201 51.0409 432.589 48.8443 433.043 46.8918C433.498 44.9392 434.096 42.645 434.836 40.009C435.594 37.2754 436.192 34.9568 436.63 33.0531C437.084 31.1493 437.463 28.9771 437.766 26.5364C438.086 24.0469 438.246 21.3622 438.246 18.4822C438.246 16.7737 438.162 15.4557 437.993 14.5282C437.825 13.552 437.522 13.0638 437.084 13.0638C436.36 13.0638 435.998 14.9432 435.998 18.7018V26.39H431.427L431.376 22.5093C431.376 17.7255 431.545 13.796 431.881 10.7208C432.218 7.6455 432.808 5.30244 433.649 3.69159C434.491 2.08073 435.653 1.2753 437.135 1.2753C438.953 1.2753 440.359 2.76412 441.353 5.74176C442.346 8.67059 442.843 12.8442 442.843 18.2625C442.843 21.7283 442.674 24.8768 442.338 27.708C442.018 30.4903 441.613 32.931 441.125 35.03C440.654 37.129 440.022 39.5941 439.231 42.4253C438.659 44.4267 438.179 46.2084 437.791 47.7704C437.421 49.3324 437.084 50.9433 436.781 52.603H442.691V64.4647H431.427V61.4627Z" fill="#FEFFFD"/>
<path d="M453.176 65.0505C451.341 65.0505 449.926 63.5617 448.933 60.584C447.94 57.5576 447.443 53.262 447.443 47.6972V19.2876C447.443 13.3323 447.923 8.79262 448.882 5.66854C449.842 2.54446 451.273 0.982422 453.176 0.982422C455.095 0.982422 456.535 2.54446 457.495 5.66854C458.454 8.79262 458.934 13.3323 458.934 19.2876V47.6972C458.934 53.3108 458.438 57.6064 457.444 60.584C456.451 63.5617 455.028 65.0505 453.176 65.0505ZM453.176 53.4816C453.496 53.4816 453.757 53.0667 453.959 52.2369C454.161 51.3582 454.262 50.3331 454.262 49.1616V18.1161C454.262 16.3099 454.186 14.9432 454.035 14.0157C453.9 13.0394 453.614 12.5513 453.176 12.5513C452.738 12.5513 452.452 13.0394 452.317 14.0157C452.183 14.9432 452.115 16.3099 452.115 18.1161V49.1616C452.115 50.3331 452.208 51.3582 452.393 52.2369C452.595 53.0667 452.856 53.4816 453.176 53.4816Z" fill="#FEFFFD"/>
</svg>
