<svg width="496" height="66" viewBox="0 0 496 66" fill="none" xmlns="http://www.w3.org/2000/svg">
<path d="M33.8594 0.734375H39.8125L40.75 10.5312L43.3281 46.625H43.7031L42.4844 0.734375H47.6875V64.4844H41.7344L40.75 54.7344L38.0781 17.8906L37.7031 17.8438L39.0156 64.4844H33.8594V0.734375Z" fill="#E1E1E3"/>
<path d="M61.5344 65.0938C57.1281 65.0938 54.925 63.1719 54.925 59.3281V14.5625H60.2219V59.375C60.2219 60.3438 60.6594 60.8281 61.5344 60.8281C62.4094 60.8281 62.8469 60.3438 62.8469 59.375V14.5625H68.0969V59.4219C68.0969 63.2031 65.9094 65.0938 61.5344 65.0938Z" fill="#E1E1E3"/>
<path d="M80.5844 41.0469V60.2656C80.5844 61.1719 81.0219 61.625 81.8969 61.625C82.7719 61.625 83.2094 61.1719 83.2094 60.2656V43.6719H88.3656V60.1719C87.9281 63.4531 85.7719 65.0938 81.8969 65.0938C79.7094 65.0938 78.0531 64.5938 76.9281 63.5938C75.8031 62.5625 75.2406 61.0469 75.2406 59.0469V19.9062C75.2406 17.9062 75.8031 16.4062 76.9281 15.4062C78.0531 14.375 79.7094 13.8594 81.8969 13.8594C84.0844 13.8594 85.7406 14.3594 86.8656 15.3594C87.9906 16.3594 88.5531 17.8281 88.5531 19.7656L88.4594 41.0469H80.5844ZM81.8969 17.6094C81.0219 17.6094 80.5844 18.0625 80.5844 18.9688V37.7656H83.2094V18.9688C83.2094 18.0625 82.7719 17.6094 81.8969 17.6094Z" fill="#E1E1E3"/>
<path d="M102.072 65.0938C99.8531 65.0938 98.2281 64.6094 97.1969 63.6406C96.1656 62.6719 95.65 61.5 95.65 60.125V47.1406L100.666 47.2344V60.125C100.666 60.5 100.759 60.8125 100.947 61.0625C101.166 61.2812 101.494 61.3906 101.931 61.3906C102.369 61.3906 102.697 61.2812 102.916 61.0625C103.166 60.8125 103.291 60.5 103.291 60.125C103.291 59.0312 103.213 56.7344 103.056 53.2344L102.916 49.9531C102.822 47.6719 102.525 45.8125 102.025 44.375C101.525 42.9375 100.775 41.3125 99.775 39.5C98.9 37.9062 98.1813 36.4531 97.6188 35.1406C97.0875 33.8281 96.6344 32.0938 96.2594 29.9375C95.8844 27.7812 95.6969 25.125 95.6969 21.9688V19.0156C95.6969 17.4219 96.2281 16.1875 97.2906 15.3125C98.3844 14.4375 99.8844 14 101.791 14C103.759 14 105.291 14.4531 106.384 15.3594C107.509 16.2344 108.072 17.4375 108.072 18.9688V30.0312L103.197 29.9844V18.875C103.197 18.5938 103.088 18.3281 102.869 18.0781C102.65 17.7969 102.322 17.6562 101.884 17.6562C101.447 17.6562 101.119 17.7969 100.9 18.0781C100.681 18.3281 100.572 18.5938 100.572 18.875C100.572 21.4688 100.713 23.7969 100.994 25.8594C101.275 28.7344 101.681 30.8906 102.213 32.3281C102.744 33.7344 103.463 35.125 104.369 36.5C105.213 37.75 105.884 39 106.384 40.25C106.916 41.4688 107.353 43.375 107.697 45.9688C108.041 48.5312 108.213 52 108.213 56.375V60.2188C108.213 61.6875 107.634 62.875 106.478 63.7812C105.353 64.6562 103.884 65.0938 102.072 65.0938Z" fill="#E1E1E3"/>
<path d="M120.981 64.4844C119.387 64.4844 118.122 64.0156 117.184 63.0781C116.247 62.1094 115.778 60.7656 115.778 59.0469V18.8281H114.231V15.0312L115.872 14.1406L117.184 3.17188H121.45V14.5625H124.122V18.8281H121.45V58.6719C121.45 59.1094 121.575 59.4688 121.825 59.75C122.075 60.0312 122.419 60.1719 122.856 60.1719H124.075V64.4844H120.981Z" fill="#E1E1E3"/>
<path d="M129.766 14.5625H134.406L135.156 16.3906C135.719 14.8281 136.562 14.0469 137.688 14.0469C138.312 14.0469 138.828 14.1562 139.234 14.375V18.6875C139.078 18.5938 138.844 18.5156 138.531 18.4531C138.25 18.3906 137.984 18.3594 137.734 18.3594C136.203 18.3594 135.438 19.1719 135.438 20.7969V64.4844H129.766V14.5625Z" fill="#E1E1E3"/>
<path d="M151.581 65.0938C147.144 65.0938 144.925 63.1094 144.925 59.1406V19.8125C144.925 15.8438 147.144 13.8594 151.581 13.8594C156.019 13.8594 158.238 15.8438 158.238 19.8125V59.1406C158.238 63.1094 156.019 65.0938 151.581 65.0938ZM151.581 60.8281C152.456 60.8281 152.894 60.3438 152.894 59.375V19.625C152.894 18.625 152.456 18.125 151.581 18.125C150.706 18.125 150.269 18.625 150.269 19.625V59.375C150.269 60.3438 150.706 60.8281 151.581 60.8281Z" fill="#E1E1E3"/>
<path d="M171.709 65.0938C169.491 65.0938 167.866 64.6094 166.834 63.6406C165.803 62.6719 165.288 61.5 165.288 60.125V47.1406L170.303 47.2344V60.125C170.303 60.5 170.397 60.8125 170.584 61.0625C170.803 61.2812 171.131 61.3906 171.569 61.3906C172.006 61.3906 172.334 61.2812 172.553 61.0625C172.803 60.8125 172.928 60.5 172.928 60.125C172.928 59.0312 172.85 56.7344 172.694 53.2344L172.553 49.9531C172.459 47.6719 172.163 45.8125 171.663 44.375C171.163 42.9375 170.413 41.3125 169.413 39.5C168.538 37.9062 167.819 36.4531 167.256 35.1406C166.725 33.8281 166.272 32.0938 165.897 29.9375C165.522 27.7812 165.334 25.125 165.334 21.9688V19.0156C165.334 17.4219 165.866 16.1875 166.928 15.3125C168.022 14.4375 169.522 14 171.428 14C173.397 14 174.928 14.4531 176.022 15.3594C177.147 16.2344 177.709 17.4375 177.709 18.9688V30.0312L172.834 29.9844V18.875C172.834 18.5938 172.725 18.3281 172.506 18.0781C172.288 17.7969 171.959 17.6562 171.522 17.6562C171.084 17.6562 170.756 17.7969 170.538 18.0781C170.319 18.3281 170.209 18.5938 170.209 18.875C170.209 21.4688 170.35 23.7969 170.631 25.8594C170.913 28.7344 171.319 30.8906 171.85 32.3281C172.381 33.7344 173.1 35.125 174.006 36.5C174.85 37.75 175.522 39 176.022 40.25C176.553 41.4688 176.991 43.375 177.334 45.9688C177.678 48.5312 177.85 52 177.85 56.375V60.2188C177.85 61.6875 177.272 62.875 176.116 63.7812C174.991 64.6562 173.522 65.0938 171.709 65.0938Z" fill="#E1E1E3"/>
<path d="M198.184 0.734375H204.887C207.2 0.734375 208.934 1.17188 210.091 2.04688C211.278 2.92188 211.872 4.40625 211.872 6.5V43.8125C211.841 45.9062 211.247 47.4062 210.091 48.3125C208.934 49.2188 207.294 49.6719 205.169 49.6719H203.95V64.4844H198.184V0.734375ZM205.028 45.5C205.934 45.5 206.387 44.9688 206.387 43.9062V6.64062C206.387 5.64062 205.919 5.14062 204.981 5.14062H203.716V45.5H205.028Z" fill="#E1E1E3"/>
<path d="M219.109 14.5625H223.75L224.5 16.3906C225.062 14.8281 225.906 14.0469 227.031 14.0469C227.656 14.0469 228.172 14.1562 228.578 14.375V18.6875C228.422 18.5938 228.188 18.5156 227.875 18.4531C227.594 18.3906 227.328 18.3594 227.078 18.3594C225.547 18.3594 224.781 19.1719 224.781 20.7969V64.4844H219.109V14.5625Z" fill="#E1E1E3"/>
<path d="M239.566 41.0469V60.2656C239.566 61.1719 240.003 61.625 240.878 61.625C241.753 61.625 242.191 61.1719 242.191 60.2656V43.6719H247.347V60.1719C246.909 63.4531 244.753 65.0938 240.878 65.0938C238.691 65.0938 237.034 64.5938 235.909 63.5938C234.784 62.5625 234.222 61.0469 234.222 59.0469V19.9062C234.222 17.9062 234.784 16.4062 235.909 15.4062C237.034 14.375 238.691 13.8594 240.878 13.8594C243.066 13.8594 244.722 14.3594 245.847 15.3594C246.972 16.3594 247.534 17.8281 247.534 19.7656L247.441 41.0469H239.566ZM240.878 17.6094C240.003 17.6094 239.566 18.0625 239.566 18.9688V37.7656H242.191V18.9688C242.191 18.0625 241.753 17.6094 240.878 17.6094Z" fill="#E1E1E3"/>
<path d="M271.928 13.9062C274.616 13.9062 275.959 15.8281 275.959 19.6719V64.4844H270.616V19.7188C270.616 18.625 270.256 18.0781 269.538 18.0781C268.506 18.0781 267.991 18.6406 267.991 19.7656V64.4844H262.647V19.7188C262.647 18.625 262.256 18.0781 261.475 18.0781C260.506 18.0781 260.022 18.7969 260.022 20.2344V64.4844H254.772V14.5625H259.506L260.163 16.4844C260.881 14.7656 262.147 13.9062 263.959 13.9062C265.772 13.9062 266.959 14.7656 267.522 16.4844C268.272 14.7656 269.741 13.9062 271.928 13.9062Z" fill="#E1E1E3"/>
<path d="M286.009 13.0625C285.072 13.0625 284.4 12.9531 283.994 12.7344C283.619 12.5156 283.353 12.0312 283.197 11.2812C283.041 10.5 282.963 9.17188 282.963 7.29688C282.963 5.39062 283.041 4.04688 283.197 3.26562C283.353 2.45312 283.619 1.9375 283.994 1.71875C284.4 1.5 285.088 1.39062 286.056 1.39062C286.994 1.39062 287.65 1.5 288.025 1.71875C288.431 1.9375 288.713 2.45312 288.869 3.26562C289.025 4.04688 289.103 5.39062 289.103 7.29688C289.103 9.17188 289.025 10.5 288.869 11.2812C288.713 12.0312 288.431 12.5156 288.025 12.7344C287.65 12.9531 286.978 13.0625 286.009 13.0625ZM283.197 14.6562C284.134 14.75 285.041 14.7969 285.916 14.7969C286.978 14.7969 287.963 14.75 288.869 14.6562V64.4844H283.197V14.6562Z" fill="#E1E1E3"/>
<path d="M302.763 65.0938C298.325 65.0938 296.106 63.1094 296.106 59.1406V19.8125C296.106 15.8438 298.325 13.8594 302.763 13.8594C307.2 13.8594 309.419 15.8438 309.419 19.8125V59.1406C309.419 63.1094 307.2 65.0938 302.763 65.0938ZM302.763 60.8281C303.638 60.8281 304.075 60.3438 304.075 59.375V19.625C304.075 18.625 303.638 18.125 302.763 18.125C301.888 18.125 301.45 18.625 301.45 19.625V59.375C301.45 60.3438 301.888 60.8281 302.763 60.8281Z" fill="#E1E1E3"/>
<path d="M322.891 65.0938C320.672 65.0938 319.047 64.6094 318.016 63.6406C316.984 62.6719 316.469 61.5 316.469 60.125V47.1406L321.484 47.2344V60.125C321.484 60.5 321.578 60.8125 321.766 61.0625C321.984 61.2812 322.312 61.3906 322.75 61.3906C323.188 61.3906 323.516 61.2812 323.734 61.0625C323.984 60.8125 324.109 60.5 324.109 60.125C324.109 59.0312 324.031 56.7344 323.875 53.2344L323.734 49.9531C323.641 47.6719 323.344 45.8125 322.844 44.375C322.344 42.9375 321.594 41.3125 320.594 39.5C319.719 37.9062 319 36.4531 318.438 35.1406C317.906 33.8281 317.453 32.0938 317.078 29.9375C316.703 27.7812 316.516 25.125 316.516 21.9688V19.0156C316.516 17.4219 317.047 16.1875 318.109 15.3125C319.203 14.4375 320.703 14 322.609 14C324.578 14 326.109 14.4531 327.203 15.3594C328.328 16.2344 328.891 17.4375 328.891 18.9688V30.0312L324.016 29.9844V18.875C324.016 18.5938 323.906 18.3281 323.688 18.0781C323.469 17.7969 323.141 17.6562 322.703 17.6562C322.266 17.6562 321.938 17.7969 321.719 18.0781C321.5 18.3281 321.391 18.5938 321.391 18.875C321.391 21.4688 321.531 23.7969 321.812 25.8594C322.094 28.7344 322.5 30.8906 323.031 32.3281C323.562 33.7344 324.281 35.125 325.188 36.5C326.031 37.75 326.703 39 327.203 40.25C327.734 41.4688 328.172 43.375 328.516 45.9688C328.859 48.5312 329.031 52 329.031 56.375V60.2188C329.031 61.6875 328.453 62.875 327.297 63.7812C326.172 64.6562 324.703 65.0938 322.891 65.0938Z" fill="#E1E1E3"/>
<path d="M354.616 41.0469V60.2656C354.616 61.1719 355.053 61.625 355.928 61.625C356.803 61.625 357.241 61.1719 357.241 60.2656V43.6719H362.397V60.1719C361.959 63.4531 359.803 65.0938 355.928 65.0938C353.741 65.0938 352.084 64.5938 350.959 63.5938C349.834 62.5625 349.272 61.0469 349.272 59.0469V19.9062C349.272 17.9062 349.834 16.4062 350.959 15.4062C352.084 14.375 353.741 13.8594 355.928 13.8594C358.116 13.8594 359.772 14.3594 360.897 15.3594C362.022 16.3594 362.584 17.8281 362.584 19.7656L362.491 41.0469H354.616ZM355.928 17.6094C355.053 17.6094 354.616 18.0625 354.616 18.9688V37.7656H357.241V18.9688C357.241 18.0625 356.803 17.6094 355.928 17.6094Z" fill="#E1E1E3"/>
<path d="M369.822 14.5625H374.556L375.212 16.4844C375.931 14.7656 377.197 13.9062 379.009 13.9062C380.384 13.9062 381.4 14.3906 382.056 15.3594C382.712 16.3281 383.041 17.7969 383.041 19.7656V64.4844H377.697V19.8125C377.697 19.1875 377.603 18.75 377.416 18.5C377.228 18.2188 376.931 18.0781 376.525 18.0781C375.556 18.0781 375.072 18.8281 375.072 20.3281V64.4844H369.822V14.5625Z" fill="#E1E1E3"/>
<path d="M23.0111 0.486688C23.0111 0.486688 22.403 6.1139 18.1777 6.23718C17.0909 3.63053 20.6729 0.385415 23.0111 0.486688Z" fill="#E1E1E3"/>
<path d="M15.8202 10.6694C15.8202 10.6694 15.7479 7.24112 21.5133 8.80162C22.178 9.65571 17.1044 12.4973 15.8202 10.6694Z" fill="#E1E1E3"/>
<path d="M14.606 2.64159C14.606 2.64159 17.3622 6.96371 14.5692 9.29419C11.7762 11.6247 13.1221 5.8274 14.606 2.64159Z" fill="#E1E1E3"/>
<path d="M19.4157 14.2743C19.4157 14.2743 15.0481 17.5931 12.9702 15.7442C12.5666 13.9144 16.8703 12.4292 19.4157 14.2743Z" fill="#E1E1E3"/>
<path d="M11.0771 6.95649C11.0771 6.95649 13.7961 12.4758 10.8628 13.9548C7.92946 15.4339 9.96539 7.94253 11.0771 6.95649Z" fill="#E1E1E3"/>
<path d="M17.315 6.81143C17.315 6.81143 18.7112 5.37883 17.4955 7.03945C14.252 11.462 5.37236 24.1576 7.06495 36.9048C9.17425 52.6592 17.9852 59.7878 23.0114 64.1373C22.874 64.6062 22.5818 64.4643 22.5818 64.4643C22.5818 64.4643 8.40528 54.9695 6.47212 36.7112C6.51507 26.6098 6.63536 23.0563 17.315 6.81143Z" fill="#E1E1E3"/>
<path d="M15.1012 24.5485C15.1012 24.5485 11.1173 21.3343 9.02252 23.5641C6.92777 25.794 13.8243 26.4207 15.1012 24.5485Z" fill="#E1E1E3"/>
<path d="M6.97067 12.7089C6.97067 12.7089 10.99 16.3101 8.57745 18.5514C6.16495 20.7927 6.12769 16.6249 6.97067 12.7089Z" fill="#E1E1E3"/>
<path d="M17.2584 19.4286C17.2584 19.4286 11.1532 23.0212 10.8055 20.351C10.4579 17.6808 14.969 18.297 17.2584 19.4286Z" fill="#E1E1E3"/>
<path d="M4.31442 19.181C4.31442 19.181 8.33736 20.3509 6.86799 23.2524C5.39862 26.1538 4.37505 21.8172 4.31442 19.181Z" fill="#E1E1E3"/>
<path d="M15.8166 49.6187C15.8166 49.6187 14.0486 51.6883 11.9447 50.3982C9.84075 49.108 15.9939 49.299 15.8166 49.6187Z" fill="#E1E1E3"/>
<path d="M14.382 28.5931C14.382 28.5931 8.41824 31.583 7.94059 28.743C7.46294 25.9029 12.7307 27.3209 14.382 28.5931Z" fill="#E1E1E3"/>
<path d="M1.43798 24.2147C1.43798 24.2147 6.80887 25.3365 5.56591 28.2632C4.32294 31.19 1.76363 26.9221 1.43798 24.2147Z" fill="#E1E1E3"/>
<path d="M13.6629 32.8986C13.6629 32.8986 8.50887 29.3831 7.96217 33.1408C7.41546 36.8985 11.3008 33.9793 13.6629 32.8986Z" fill="#E1E1E3"/>
<path d="M0.719231 29.9675C0.719231 29.9675 5.58258 29.9675 4.98255 32.5388C4.38253 35.11 1.65479 32.3083 0.719231 29.9675Z" fill="#E1E1E3"/>
<path d="M0.0106993 34.282C0.0106993 34.282 7.03466 35.256 5.54558 37.2877C4.0565 39.3194 -0.242163 35.5512 0.0106993 34.282Z" fill="#E1E1E3"/>
<path d="M12.9438 36.6633C12.9438 36.6633 9.60632 34.5142 8.21437 36.7052C6.82241 38.8962 10.5209 39.554 12.9438 36.6633Z" fill="#E1E1E3"/>
<path d="M0 39.1962C0 39.1962 5.64496 37.3991 5.75091 40.0286C5.85686 42.658 1.50871 41.2835 0 39.1962Z" fill="#E1E1E3"/>
<path d="M13.663 41.5352C13.663 41.5352 11.9224 38.873 9.34434 40.6411C6.76627 42.4092 11.8523 42.6057 13.663 41.5352Z" fill="#E1E1E3"/>
<path d="M1.43798 44.1445C1.43798 44.1445 5.77411 41.4717 6.40308 43.9958C7.03204 46.5199 3.17493 46.199 1.43798 44.1445Z" fill="#E1E1E3"/>
<path d="M14.3818 44.7149C14.3818 44.7149 12.3808 41.5791 10.0425 43.577C7.70417 45.575 11.811 46.7755 14.3818 44.7149Z" fill="#E1E1E3"/>
<path d="M2.87644 48.4032C2.87644 48.4032 6.99162 44.9566 7.80048 47.3567C8.60934 49.7568 4.74016 49.9184 2.87644 48.4032Z" fill="#E1E1E3"/>
<path d="M15.1011 47.0548C15.1011 47.0548 11.3649 45.5519 10.8324 47.5245C10.2999 49.4971 14.573 48.6254 15.1011 47.0548Z" fill="#E1E1E3"/>
<path d="M5.75288 51.5713C5.75288 51.5713 8.11347 48.8902 9.1391 50.7718C10.1647 52.6533 7.16109 52.548 5.75288 51.5713Z" fill="#E1E1E3"/>
<path d="M15.8202 51.7073C15.8202 51.7073 13.2873 51.0272 12.9665 52.4146C12.6457 53.802 15.8202 52.263 15.8202 51.7073Z" fill="#E1E1E3"/>
<path d="M7.9101 53.7503C7.9101 53.7503 10.8862 52.1672 10.7839 53.536C10.6817 54.9048 8.38339 54.4369 7.9101 53.7503Z" fill="#E1E1E3"/>
<path d="M16.5394 52.9786C16.5394 52.9786 13.6685 53.0224 13.663 53.9917C13.6575 54.9609 16.3185 54.1231 16.5394 52.9786Z" fill="#E1E1E3"/>
<path d="M10.0673 54.9828C10.0673 54.9828 11.709 54.0445 12.1571 54.5847C12.6053 55.125 10.6978 55.2899 10.0673 54.9828Z" fill="#E1E1E3"/>
<path d="M11.5058 56.3269C11.5058 56.3269 13.0026 55.468 12.9422 56.0679C12.8818 56.6678 11.8777 56.7087 11.5058 56.3269Z" fill="#E1E1E3"/>
<path d="M15.8093 55.1363C15.8093 55.1363 14.8628 55.1363 14.4416 55.1363C14.0204 55.1363 15.9844 55.1363 15.8093 55.1363Z" fill="#E1E1E3"/>
<path d="M472.641 0.486639C472.641 0.486639 473.326 5.99591 477.952 6.11662C479.146 3.56459 475.21 0.387489 472.641 0.486639Z" fill="#E1E1E3"/>
<path d="M479.792 10.6948C479.792 10.6948 479.853 6.99181 474.365 8.69029C473.757 9.59988 478.568 12.6692 479.792 10.6948Z" fill="#E1E1E3"/>
<path d="M481.116 2.51703C481.116 2.51703 478.529 7.02619 481.15 9.45751C483.771 11.8888 482.512 5.8407 481.116 2.51703Z" fill="#E1E1E3"/>
<path d="M476.197 14.2253C476.197 14.2253 480.909 18.0016 483.151 15.8979C483.59 13.8157 478.93 12.1259 476.197 14.2253Z" fill="#E1E1E3"/>
<path d="M484.534 6.79758C484.534 6.79758 481.905 12.4922 484.737 14.0183C487.569 15.5443 485.582 7.81494 484.534 6.79758Z" fill="#E1E1E3"/>
<path d="M478.637 6.6942C478.637 6.6942 477.236 5.25868 478.456 6.92267C481.711 11.3542 490.621 24.0756 488.91 36.8486C486.793 52.635 477.956 59.7781 472.908 64.1364C473.046 64.6062 473.339 64.464 473.339 64.464C473.339 64.464 487.565 54.9499 489.505 36.6547C489.479 26.5328 489.349 22.972 478.637 6.6942Z" fill="#E1E1E3"/>
<path d="M480.512 24.4894C480.512 24.4894 484.439 21.0407 486.509 23.4332C488.578 25.8257 481.771 26.4982 480.512 24.4894Z" fill="#E1E1E3"/>
<path d="M488.69 12.8804C488.69 12.8804 484.965 16.5792 487.207 18.8812C489.448 21.1832 489.466 16.9025 488.69 12.8804Z" fill="#E1E1E3"/>
<path d="M478.447 19.1827C478.447 19.1827 484.65 23.1789 485.004 20.2087C485.357 17.2385 480.771 17.924 478.447 19.1827Z" fill="#E1E1E3"/>
<path d="M491.789 18.9285C491.789 18.9285 486.922 20.2218 488.698 23.4291C490.474 26.6364 491.712 21.8427 491.789 18.9285Z" fill="#E1E1E3"/>
<path d="M480.31 49.458C480.31 49.458 481.939 51.7471 483.888 50.3202C485.836 48.8933 480.137 49.1045 480.31 49.458Z" fill="#E1E1E3"/>
<path d="M481.68 28.6278C481.68 28.6278 487.328 31.8092 487.78 28.7873C488.233 25.7654 483.241 27.2742 481.68 28.6278Z" fill="#E1E1E3"/>
<path d="M494.147 24.1705C494.147 24.1705 489.099 25.3172 490.268 28.3089C491.436 31.3006 493.841 26.938 494.147 24.1705Z" fill="#E1E1E3"/>
<path d="M482.284 32.7492C482.284 32.7492 487.608 29.3781 488.173 32.982C488.737 36.5859 484.724 33.7881 482.284 32.7492Z" fill="#E1E1E3"/>
<path d="M495.415 30.0592C495.415 30.0592 490.104 30.0592 490.763 32.8009C491.423 35.5426 494.393 32.5552 495.415 30.0592Z" fill="#E1E1E3"/>
<path d="M495.712 34.2277C495.712 34.2277 489.276 35.1804 490.617 37.1677C491.958 39.155 495.945 35.4692 495.712 34.2277Z" fill="#E1E1E3"/>
<path d="M482.582 36.9651C482.582 36.9651 486.168 34.7537 487.664 37.0082C489.16 39.2628 485.185 39.9396 482.582 36.9651Z" fill="#E1E1E3"/>
<path d="M495.82 39.4092C495.82 39.4092 490.078 37.5943 489.97 40.2498C489.862 42.9053 494.285 41.5172 495.82 39.4092Z" fill="#E1E1E3"/>
<path d="M482.094 41.539C482.094 41.539 483.819 38.6766 486.328 40.5949C488.836 42.5132 483.87 42.69 482.094 41.539Z" fill="#E1E1E3"/>
<path d="M494.216 44.0996C494.216 44.0996 489.729 41.1552 489.078 43.9357C488.427 46.7162 492.419 46.3628 494.216 44.0996Z" fill="#E1E1E3"/>
<path d="M481.715 44.6515C481.715 44.6515 483.608 41.6339 485.819 43.5566C488.03 45.4792 484.151 46.6345 481.715 44.6515Z" fill="#E1E1E3"/>
<path d="M492.794 48.6132C492.794 48.6132 488.539 44.936 487.703 47.4966C486.866 50.0573 490.875 50.2297 492.794 48.6132Z" fill="#E1E1E3"/>
<path d="M481.042 46.811C481.042 46.811 484.698 45.0867 485.224 47.3499C485.75 49.6131 481.555 48.6129 481.042 46.811Z" fill="#E1E1E3"/>
<path d="M489.987 51.527C489.987 51.527 487.483 49.1129 486.396 50.8071C485.31 52.5013 488.483 52.4064 489.987 51.527Z" fill="#E1E1E3"/>
<path d="M479.87 51.4884C479.87 51.4884 482.456 50.734 482.784 52.273C483.112 53.812 479.87 52.1049 479.87 51.4884Z" fill="#E1E1E3"/>
<path d="M488.203 53.4195C488.203 53.4195 484.814 51.859 484.931 53.2083C485.047 54.5576 487.664 54.0963 488.203 53.4195Z" fill="#E1E1E3"/>
<path d="M479.611 53.135C479.611 53.135 481.853 53.1695 481.857 53.9325C481.861 54.6955 479.792 54.036 479.611 53.135Z" fill="#E1E1E3"/>
<path d="M486.082 55.0622C486.082 55.0622 484.297 53.6396 483.814 54.4587C483.331 55.2778 485.396 55.5278 486.082 55.0622Z" fill="#E1E1E3"/>
<path d="M484.228 56.1356C484.228 56.1356 482.836 55.3209 482.892 55.8899C482.948 56.4589 483.879 56.4977 484.228 56.1356Z" fill="#E1E1E3"/>
<path d="M480.059 54.9972C480.059 54.9972 480.922 54.5661 481.305 55.0834C481.689 55.6007 479.9 55.2688 480.059 54.9972Z" fill="#E1E1E3"/>
<path d="M398.668 60.8694C398.668 57.9946 398.819 55.3391 399.122 52.9029C399.442 50.4667 399.829 48.2741 400.284 46.3251C400.738 44.3761 401.336 42.086 402.076 39.4549C402.834 36.7263 403.431 34.4119 403.869 32.5116C404.323 30.6114 404.702 28.4431 405.005 26.0069C405.325 23.5219 405.485 20.8421 405.485 17.9673C405.485 16.262 405.401 14.9464 405.232 14.0206C405.064 13.0461 404.761 12.5589 404.323 12.5589C403.6 12.5589 403.238 14.4348 403.238 18.1866V25.8607H398.668L398.617 21.9871C398.617 17.2121 398.786 13.2898 399.122 10.2201C399.459 7.15045 400.048 4.81167 400.89 3.20375C401.731 1.59584 402.893 0.791885 404.374 0.791885C406.192 0.791885 407.597 2.27799 408.59 5.25019C409.583 8.17367 410.08 12.3396 410.08 17.7481C410.08 21.2075 409.912 24.3503 409.575 27.1763C409.255 29.9536 408.851 32.3898 408.363 34.485C407.892 36.5801 407.261 39.0407 406.469 41.8668C405.897 43.8645 405.417 45.6429 405.03 47.2021C404.66 48.7613 404.323 50.3692 404.02 52.0259H409.929V63.866H398.668V60.8694Z" fill="#E1E1E3"/>
<path d="M420.41 64.4507C418.575 64.4507 417.162 62.9646 416.168 59.9924C415.175 56.9714 414.679 52.6837 414.679 47.129V18.7713C414.679 12.8269 415.159 8.29548 416.118 5.1771C417.077 2.05873 418.508 0.499536 420.41 0.499536C422.329 0.499536 423.768 2.05873 424.728 5.1771C425.687 8.29548 426.167 12.8269 426.167 18.7713V47.129C426.167 52.7324 425.67 57.0201 424.677 59.9924C423.684 62.9646 422.262 64.4507 420.41 64.4507ZM420.41 52.9029C420.73 52.9029 420.991 52.4888 421.193 51.6604C421.395 50.7834 421.496 49.7602 421.496 48.5908V17.6019C421.496 15.7991 421.42 14.4348 421.269 13.509C421.134 12.5345 420.848 12.0473 420.41 12.0473C419.973 12.0473 419.686 12.5345 419.552 13.509C419.417 14.4348 419.35 15.7991 419.35 17.6019V48.5908C419.35 49.7602 419.442 50.7834 419.628 51.6604C419.829 52.4888 420.09 52.9029 420.41 52.9029Z" fill="#E1E1E3"/>
<path d="M433.417 15.4824C433.131 16.5056 432.727 17.3339 432.205 17.9673C431.7 18.6008 431.212 18.9175 430.74 18.9175V8.90454C431.481 8.56347 432.213 7.71078 432.937 6.34649C433.678 4.9822 434.208 3.20375 434.528 1.01115H438.012V63.866H433.417V15.4824Z" fill="#E1E1E3"/>
<path d="M448.82 64.5237C446.833 64.5237 445.386 62.8915 444.477 59.6269C443.585 56.3624 443.139 51.5386 443.139 45.1557V40.9897C443.139 37.6765 443.273 35.0453 443.543 33.0963C443.829 31.1474 444.317 29.6856 445.007 28.7111C444.351 27.9315 443.879 26.6403 443.593 24.8375C443.307 23.0347 443.164 20.7203 443.164 17.8942V16.2132C443.164 10.7561 443.635 6.73629 444.578 4.15389C445.537 1.57148 446.951 0.280273 448.82 0.280273C450.722 0.280273 452.136 1.59584 453.061 4.22697C454.004 6.85811 454.475 11.0241 454.475 16.7248C454.475 19.9407 454.341 22.5474 454.071 24.5452C453.802 26.4941 453.322 27.9072 452.632 28.7842C453.406 29.8561 453.911 31.5371 454.147 33.8272C454.383 36.0685 454.501 39.3087 454.501 43.5478C454.501 44.3761 454.492 44.9121 454.475 45.1557C454.475 51.5386 454.029 56.3624 453.137 59.6269C452.245 62.8915 450.806 64.5237 448.82 64.5237ZM448.82 23.3758C449.577 23.3758 449.956 21.3781 449.956 17.3826C449.956 15.8234 449.863 14.5079 449.678 13.4359C449.51 12.364 449.224 11.828 448.82 11.828C448.416 11.828 448.121 12.364 447.936 13.4359C447.768 14.5079 447.684 15.8234 447.684 17.3826C447.684 21.3781 448.062 23.3758 448.82 23.3758ZM448.82 52.099C449.611 52.099 450.006 50.0282 450.006 45.8866L449.981 42.7438C449.981 40.3563 449.914 38.4317 449.779 36.9699C449.644 35.5082 449.325 34.7773 448.82 34.7773C448.399 34.7773 448.096 35.4351 447.911 36.7507C447.726 38.0175 447.633 39.6011 447.633 41.5013C447.633 42.3297 447.641 42.9387 447.658 43.3285V43.9132L447.633 45.8866C447.633 50.0282 448.029 52.099 448.82 52.099Z" fill="#E1E1E3"/>
</svg>
