<svg width="419" height="153" viewBox="0 0 419 153" fill="none" xmlns="http://www.w3.org/2000/svg">
<path d="M0.285156 31.4688H12.8535C17.1895 31.4688 20.4414 32.2891 22.6094 33.9297C24.8359 35.5703 25.9492 38.3535 25.9492 42.2793V112.24C25.8906 116.166 24.7773 118.979 22.6094 120.678C20.4414 122.377 17.3652 123.227 13.3809 123.227H11.0957V151H0.285156V31.4688ZM13.1172 115.404C14.8164 115.404 15.666 114.408 15.666 112.416V42.543C15.666 40.668 14.7871 39.7305 13.0293 39.7305H10.6562V115.404H13.1172Z" fill="#F4F4F4"/>
<path d="M57.9836 93.959C57.9836 97.4746 56.9875 100.141 54.9953 101.957L57.9836 151H47.6125L45.9426 104.682H42.6906V151H32.3195V31.4688H44.8879C49.2238 31.4688 52.4758 32.2891 54.6437 33.9297C56.8703 35.5703 57.9836 38.3535 57.9836 42.2793V93.959ZM45.1516 97.4746C46.8508 97.4746 47.7004 96.3613 47.7004 94.1348V42.543C47.7004 40.668 46.8215 39.7305 45.0637 39.7305H42.6906V97.4746H45.1516Z" fill="#F4F4F4"/>
<path d="M64.1781 31.4688H84.3051V39.6426H75.0766V88.1582H82.3715V95.0137H75.0766V143.002H84.393V151H64.1781V31.4688Z" fill="#F4F4F4"/>
<path d="M89.0055 97.6504H108.869V105.736H89.0055V97.6504Z" fill="#F4F4F4"/>
<path d="M115.239 31.4688H127.807C132.143 31.4688 135.395 32.2891 137.563 33.9297C139.79 35.5703 140.903 38.3535 140.903 42.2793V112.24C140.845 116.166 139.731 118.979 137.563 120.678C135.395 122.377 132.319 123.227 128.335 123.227H126.05V151H115.239V31.4688ZM128.071 115.404C129.77 115.404 130.62 114.408 130.62 112.416V42.543C130.62 40.668 129.741 39.7305 127.983 39.7305H125.61V115.404H128.071Z" fill="#F4F4F4"/>
<path d="M172.938 93.959C172.938 97.4746 171.941 100.141 169.949 101.957L172.938 151H162.566L160.896 104.682H157.645V151H147.273V31.4688H159.842C164.178 31.4688 167.43 32.2891 169.598 33.9297C171.824 35.5703 172.938 38.3535 172.938 42.2793V93.959ZM160.105 97.4746C161.805 97.4746 162.654 96.3613 162.654 94.1348V42.543C162.654 40.668 161.775 39.7305 160.018 39.7305H157.645V97.4746H160.105Z" fill="#F4F4F4"/>
<path d="M178.868 42.4551C178.868 38.5293 180.011 35.541 182.296 33.4902C184.581 31.4395 187.95 30.4141 192.404 30.4141C196.857 30.4141 200.196 31.498 202.423 33.666C204.708 35.7754 205.851 38.9395 205.851 43.1582V139.311C205.851 147.865 201.368 152.143 192.404 152.143C188.068 152.143 184.845 151.088 182.736 148.979C180.685 146.869 179.396 143.646 178.868 139.311V42.4551ZM189.943 140.277C189.943 141.977 190.763 142.826 192.404 142.826C194.044 142.826 194.864 141.977 194.864 140.277V42.1914C194.864 40.4922 194.044 39.6426 192.404 39.6426C190.763 39.6426 189.943 40.4922 189.943 42.1914V140.277Z" fill="#F4F4F4"/>
<path d="M212.045 31.4688H225.053C229.448 31.4688 232.758 32.5234 234.985 34.6328C237.27 36.6836 238.413 39.7598 238.413 43.8613V138.607C238.413 142.709 237.27 145.814 234.985 147.924C232.758 149.975 229.448 151 225.053 151H212.045V31.4688ZM224.965 141.947C225.844 141.947 226.489 141.684 226.899 141.156C227.309 140.629 227.514 139.779 227.514 138.607V43.9492C227.514 42.7188 227.309 41.8398 226.899 41.3125C226.489 40.7852 225.844 40.5215 224.965 40.5215H222.592V141.947H224.965Z" fill="#F4F4F4"/>
<path d="M257.615 152.23C248.884 152.23 244.519 148.656 244.519 141.508V31.4688H255.154V140.629C255.154 142.621 255.974 143.617 257.615 143.617C259.255 143.617 260.076 142.621 260.076 140.629V31.4688H270.711V141.508C270.711 145.082 269.597 147.777 267.371 149.594C265.203 151.352 261.951 152.23 257.615 152.23Z" fill="#F4F4F4"/>
<path d="M290.177 152.143C281.212 152.143 276.729 147.865 276.729 139.311V43.1582C276.729 38.9395 277.843 35.7754 280.069 33.666C282.354 31.498 285.723 30.4141 290.177 30.4141C299.024 30.4141 303.536 34.5742 303.712 42.8945V88.5098H292.638V42.1914C292.638 40.4922 291.817 39.6426 290.177 39.6426C288.536 39.6426 287.716 40.4922 287.716 42.1914V140.277C287.716 141.977 288.536 142.826 290.177 142.826C291.817 142.826 292.638 141.977 292.638 140.277V94.0469H303.712V139.662C303.419 147.982 298.907 152.143 290.177 152.143Z" fill="#F4F4F4"/>
<path d="M322.914 152.143C313.949 152.143 309.467 147.865 309.467 139.311V43.1582C309.467 38.9395 310.58 35.7754 312.807 33.666C315.092 31.498 318.461 30.4141 322.914 30.4141C331.762 30.4141 336.273 34.5742 336.449 42.8945V88.5098H325.375V42.1914C325.375 40.4922 324.555 39.6426 322.914 39.6426C321.273 39.6426 320.453 40.4922 320.453 42.1914V140.277C320.453 141.977 321.273 142.826 322.914 142.826C324.555 142.826 325.375 141.977 325.375 140.277V94.0469H336.449V139.662C336.156 147.982 331.645 152.143 322.914 152.143Z" fill="#F4F4F4"/>
<path d="M342.644 31.4688H353.454V151H342.644V31.4688Z" fill="#F4F4F4"/>
<path d="M359.649 42.4551C359.649 38.5293 360.791 35.541 363.077 33.4902C365.362 31.4395 368.731 30.4141 373.184 30.4141C377.637 30.4141 380.977 31.498 383.204 33.666C385.489 35.7754 386.631 38.9395 386.631 43.1582V139.311C386.631 147.865 382.149 152.143 373.184 152.143C368.848 152.143 365.625 151.088 363.516 148.979C361.465 146.869 360.176 143.646 359.649 139.311V42.4551ZM370.723 140.277C370.723 141.977 371.543 142.826 373.184 142.826C374.825 142.826 375.645 141.977 375.645 140.277V42.1914C375.645 40.4922 374.825 39.6426 373.184 39.6426C371.543 39.6426 370.723 40.4922 370.723 42.1914V140.277ZM372.393 0.355469L382.237 0.619141L376.788 26.6348H368.877L372.393 0.355469Z" fill="#F4F4F4"/>
<path d="M392.826 31.4688H403.988L405.746 49.8379L410.58 117.514H411.283L408.998 31.4688H418.754V151H407.591L405.746 132.719L400.736 63.6367L400.033 63.5488L402.494 151H392.826V31.4688Z" fill="#F4F4F4"/>
</svg>
