<svg width="304" height="153" viewBox="0 0 304 153" fill="none" xmlns="http://www.w3.org/2000/svg">
<path d="M0.112549 31.4688H12.6809C17.0168 31.4688 20.2688 32.2891 22.4368 33.9297C24.6633 35.5703 25.7766 38.3535 25.7766 42.2793V112.24C25.718 116.166 24.6047 118.979 22.4368 120.678C20.2688 122.377 17.1926 123.227 13.2083 123.227H10.9231V151H0.112549V31.4688ZM12.9446 115.404C14.6438 115.404 15.4934 114.408 15.4934 112.416V42.543C15.4934 40.668 14.6145 39.7305 12.8567 39.7305H10.4836V115.404H12.9446Z" fill="#F4F4F4"/>
<path d="M57.811 93.959C57.811 97.4746 56.8149 100.141 54.8227 101.957L57.811 151H47.4399L45.77 104.682H42.518V151H32.1469V31.4688H44.7153C49.0512 31.4688 52.3032 32.2891 54.4711 33.9297C56.6977 35.5703 57.811 38.3535 57.811 42.2793V93.959ZM44.979 97.4746C46.6782 97.4746 47.5278 96.3613 47.5278 94.1348V42.543C47.5278 40.668 46.6489 39.7305 44.8911 39.7305H42.518V97.4746H44.979Z" fill="#F4F4F4"/>
<path d="M63.7418 42.4551C63.7418 38.5293 64.8844 35.541 67.1696 33.4902C69.4547 31.4395 72.8239 30.4141 77.277 30.4141C81.7301 30.4141 85.07 31.498 87.2965 33.666C89.5817 35.7754 90.7243 38.9395 90.7243 43.1582V139.311C90.7243 147.865 86.2418 152.143 77.277 152.143C72.9411 152.143 69.7184 151.088 67.609 148.979C65.5583 146.869 64.2692 143.646 63.7418 139.311V42.4551ZM74.8161 140.277C74.8161 141.977 75.6364 142.826 77.277 142.826C78.9176 142.826 79.7379 141.977 79.7379 140.277V42.1914C79.7379 40.4922 78.9176 39.6426 77.277 39.6426C75.6364 39.6426 74.8161 40.4922 74.8161 42.1914V140.277Z" fill="#F4F4F4"/>
<path d="M96.9188 31.4688H109.927C114.321 31.4688 117.632 32.5234 119.858 34.6328C122.143 36.6836 123.286 39.7598 123.286 43.8613V138.607C123.286 142.709 122.143 145.814 119.858 147.924C117.632 149.975 114.321 151 109.927 151H96.9188V31.4688ZM109.839 141.947C110.718 141.947 111.362 141.684 111.772 141.156C112.182 140.629 112.388 139.779 112.388 138.607V43.9492C112.388 42.7188 112.182 41.8398 111.772 41.3125C111.362 40.7852 110.718 40.5215 109.839 40.5215H107.466V141.947H109.839Z" fill="#F4F4F4"/>
<path d="M142.488 152.23C133.758 152.23 129.393 148.656 129.393 141.508V31.4688H140.027V140.629C140.027 142.621 140.848 143.617 142.488 143.617C144.129 143.617 144.949 142.621 144.949 140.629V31.4688H155.584V141.508C155.584 145.082 154.471 147.777 152.244 149.594C150.076 151.352 146.824 152.23 142.488 152.23Z" fill="#F4F4F4"/>
<path d="M175.05 152.143C166.085 152.143 161.603 147.865 161.603 139.311V43.1582C161.603 38.9395 162.716 35.7754 164.943 33.666C167.228 31.498 170.597 30.4141 175.05 30.4141C183.898 30.4141 188.409 34.5742 188.585 42.8945V88.5098H177.511V42.1914C177.511 40.4922 176.691 39.6426 175.05 39.6426C173.409 39.6426 172.589 40.4922 172.589 42.1914V140.277C172.589 141.977 173.409 142.826 175.05 142.826C176.691 142.826 177.511 141.977 177.511 140.277V94.0469H188.585V139.662C188.292 147.982 183.781 152.143 175.05 152.143Z" fill="#F4F4F4"/>
<path d="M207.788 152.143C198.823 152.143 194.34 147.865 194.34 139.311V43.1582C194.34 38.9395 195.454 35.7754 197.68 33.666C199.965 31.498 203.334 30.4141 207.788 30.4141C216.635 30.4141 221.147 34.5742 221.323 42.8945V88.5098H210.248V42.1914C210.248 40.4922 209.428 39.6426 207.788 39.6426C206.147 39.6426 205.327 40.4922 205.327 42.1914V140.277C205.327 141.977 206.147 142.826 207.788 142.826C209.428 142.826 210.248 141.977 210.248 140.277V94.0469H221.323V139.662C221.03 147.982 216.518 152.143 207.788 152.143Z" fill="#F4F4F4"/>
<path d="M227.517 31.4688H238.328V151H227.517V31.4688Z" fill="#F4F4F4"/>
<path d="M244.522 42.4551C244.522 38.5293 245.665 35.541 247.95 33.4902C250.235 31.4395 253.604 30.4141 258.057 30.4141C262.511 30.4141 265.85 31.498 268.077 33.666C270.362 35.7754 271.505 38.9395 271.505 43.1582V139.311C271.505 147.865 267.022 152.143 258.057 152.143C253.722 152.143 250.499 151.088 248.389 148.979C246.339 146.869 245.05 143.646 244.522 139.311V42.4551ZM255.597 140.277C255.597 141.977 256.417 142.826 258.057 142.826C259.698 142.826 260.518 141.977 260.518 140.277V42.1914C260.518 40.4922 259.698 39.6426 258.057 39.6426C256.417 39.6426 255.597 40.4922 255.597 42.1914V140.277ZM257.266 0.355469L267.11 0.619141L261.661 26.6348H253.751L257.266 0.355469Z" fill="#F4F4F4"/>
<path d="M277.699 31.4688H288.861L290.619 49.8379L295.453 117.514H296.156L293.871 31.4688H303.627V151H292.465L290.619 132.719L285.609 63.6367L284.906 63.5488L287.367 151H277.699V31.4688Z" fill="#F4F4F4"/>
</svg>
