<svg width="207" height="28" viewBox="0 0 207 28" fill="none" xmlns="http://www.w3.org/2000/svg">
<path d="M14.136 0.224365H16.6214L17.0128 4.31446L18.0891 19.3833H18.2457L17.7368 0.224365H19.9091V26.8394H17.4237L17.0128 22.7688L15.8973 7.38693L15.7407 7.36736L16.2887 26.8394H14.136V0.224365Z" fill="#F4F4F4"/>
<path d="M25.69 27.0938C23.8505 27.0938 22.9307 26.2914 22.9307 24.6867V5.99747H25.1421V24.7063C25.1421 25.1107 25.3247 25.3129 25.69 25.3129C26.0553 25.3129 26.238 25.1107 26.238 24.7063V5.99747H28.4298V24.7258C28.4298 26.3045 27.5165 27.0938 25.69 27.0938Z" fill="#F4F4F4"/>
<path d="M33.6432 17.0544V25.0781C33.6432 25.4564 33.8259 25.6456 34.1912 25.6456C34.5565 25.6456 34.7391 25.4564 34.7391 25.0781V18.1504H36.8918V25.0389C36.7092 26.4088 35.8089 27.0938 34.1912 27.0938C33.2779 27.0938 32.5864 26.885 32.1168 26.4675C31.6471 26.037 31.4123 25.4042 31.4123 24.5693V8.22843C31.4123 7.39345 31.6471 6.76722 32.1168 6.34973C32.5864 5.91919 33.2779 5.70392 34.1912 5.70392C35.1044 5.70392 35.7959 5.91267 36.2656 6.33016C36.7353 6.74765 36.9701 7.36084 36.9701 8.16973L36.9309 17.0544H33.6432ZM34.1912 7.26951C33.8259 7.26951 33.6432 7.45869 33.6432 7.83704V15.6845H34.7391V7.83704C34.7391 7.45869 34.5565 7.26951 34.1912 7.26951Z" fill="#F4F4F4"/>
<path d="M42.614 27.0938C41.6877 27.0938 41.0093 26.8916 40.5788 26.4871C40.1482 26.0827 39.933 25.5934 39.933 25.0194V19.5985L42.0269 19.6377V25.0194C42.0269 25.1759 42.0661 25.3064 42.1444 25.4108C42.2357 25.5021 42.3727 25.5478 42.5553 25.5478C42.738 25.5478 42.875 25.5021 42.9663 25.4108C43.0707 25.3064 43.1229 25.1759 43.1229 25.0194C43.1229 24.5627 43.0902 23.6038 43.025 22.1426L42.9663 20.7727C42.9272 19.8203 42.8032 19.044 42.5945 18.4439C42.3857 17.8438 42.0726 17.1653 41.6551 16.4086C41.2898 15.7433 40.9897 15.1366 40.7549 14.5886C40.5331 14.0407 40.3439 13.3166 40.1874 12.4164C40.0308 11.5162 39.9525 10.4072 39.9525 9.08951V7.85661C39.9525 7.19123 40.1743 6.67589 40.6179 6.31059C41.0745 5.94529 41.7008 5.76263 42.4966 5.76263C43.3186 5.76263 43.9578 5.95181 44.4145 6.33016C44.8841 6.69546 45.119 7.19776 45.119 7.83704V12.4555L43.0837 12.436V7.7979C43.0837 7.68048 43.038 7.56958 42.9467 7.46521C42.8554 7.34779 42.7184 7.28908 42.5358 7.28908C42.3531 7.28908 42.2161 7.34779 42.1248 7.46521C42.0335 7.56958 41.9878 7.68048 41.9878 7.7979C41.9878 8.88076 42.0465 9.85273 42.1639 10.7138C42.2813 11.9141 42.451 12.8143 42.6727 13.4144C42.8945 14.0015 43.1946 14.5821 43.573 15.1562C43.9252 15.678 44.2057 16.1999 44.4145 16.7218C44.6363 17.2306 44.8189 18.0264 44.9624 19.1093C45.1059 20.1791 45.1777 21.6273 45.1777 23.4538V25.0585C45.1777 25.6717 44.9363 26.1675 44.4536 26.5458C43.9839 26.9111 43.3707 27.0938 42.614 27.0938Z" fill="#F4F4F4"/>
<path d="M50.5085 26.8394C49.8431 26.8394 49.3148 26.6437 48.9234 26.2523C48.532 25.8478 48.3363 25.2868 48.3363 24.5693V7.77833H47.6905V6.19317L48.3754 5.82134L48.9234 1.242H50.7042V5.99747H51.8197V7.77833H50.7042V24.4127C50.7042 24.5954 50.7564 24.7454 50.8608 24.8628C50.9651 24.9802 51.1087 25.0389 51.2913 25.0389H51.8001V26.8394H50.5085Z" fill="#F4F4F4"/>
<path d="M54.1759 5.99747H56.1133L56.4264 6.7607C56.6613 6.10837 57.0135 5.7822 57.4832 5.7822C57.7441 5.7822 57.9594 5.82787 58.129 5.91919V7.71962C58.0638 7.68048 57.9659 7.64786 57.8355 7.62177C57.718 7.59568 57.6072 7.58263 57.5028 7.58263C56.8635 7.58263 56.5439 7.92184 56.5439 8.60026V26.8394H54.1759V5.99747Z" fill="#F4F4F4"/>
<path d="M63.2837 27.0938C61.4311 27.0938 60.5048 26.2653 60.5048 24.6084V8.1893C60.5048 6.53238 61.4311 5.70392 63.2837 5.70392C65.1363 5.70392 66.0626 6.53238 66.0626 8.1893V24.6084C66.0626 26.2653 65.1363 27.0938 63.2837 27.0938ZM63.2837 25.3129C63.649 25.3129 63.8317 25.1107 63.8317 24.7063V8.11102C63.8317 7.69353 63.649 7.48478 63.2837 7.48478C62.9184 7.48478 62.7358 7.69353 62.7358 8.11102V24.7063C62.7358 25.1107 62.9184 25.3129 63.2837 25.3129Z" fill="#F4F4F4"/>
<path d="M71.687 27.0938C70.7607 27.0938 70.0823 26.8916 69.6517 26.4871C69.2212 26.0827 69.0059 25.5934 69.0059 25.0194V19.5985L71.0999 19.6377V25.0194C71.0999 25.1759 71.1391 25.3064 71.2173 25.4108C71.3087 25.5021 71.4456 25.5478 71.6283 25.5478C71.811 25.5478 71.9479 25.5021 72.0393 25.4108C72.1436 25.3064 72.1958 25.1759 72.1958 25.0194C72.1958 24.5627 72.1632 23.6038 72.098 22.1426L72.0393 20.7727C72.0001 19.8203 71.8762 19.044 71.6674 18.4439C71.4587 17.8438 71.1456 17.1653 70.7281 16.4086C70.3628 15.7433 70.0627 15.1366 69.8279 14.5886C69.6061 14.0407 69.4169 13.3166 69.2603 12.4164C69.1038 11.5162 69.0255 10.4072 69.0255 9.08951V7.85661C69.0255 7.19123 69.2473 6.67589 69.6909 6.31059C70.1475 5.94529 70.7738 5.76263 71.5696 5.76263C72.3915 5.76263 73.0308 5.95181 73.4874 6.33016C73.9571 6.69546 74.192 7.19776 74.192 7.83704V12.4555L72.1567 12.436V7.7979C72.1567 7.68048 72.111 7.56958 72.0197 7.46521C71.9284 7.34779 71.7914 7.28908 71.6087 7.28908C71.4261 7.28908 71.2891 7.34779 71.1978 7.46521C71.1064 7.56958 71.0608 7.68048 71.0608 7.7979C71.0608 8.88076 71.1195 9.85273 71.2369 10.7138C71.3543 11.9141 71.5239 12.8143 71.7457 13.4144C71.9675 14.0015 72.2676 14.5821 72.6459 15.1562C72.9982 15.678 73.2787 16.1999 73.4874 16.7218C73.7092 17.2306 73.8919 18.0264 74.0354 19.1093C74.1789 20.1791 74.2507 21.6273 74.2507 23.4538V25.0585C74.2507 25.6717 74.0093 26.1675 73.5266 26.5458C73.0569 26.9111 72.4437 27.0938 71.687 27.0938Z" fill="#F4F4F4"/>
<path d="M82.7401 0.224365H85.5385C86.504 0.224365 87.2281 0.407017 87.7108 0.772321C88.2066 1.13763 88.4545 1.75734 88.4545 2.63146V18.2091C88.4414 19.0832 88.1935 19.7094 87.7108 20.0878C87.2281 20.4661 86.5431 20.6553 85.656 20.6553H85.1472V26.8394H82.7401V0.224365ZM85.5973 18.9136C85.9756 18.9136 86.1648 18.6918 86.1648 18.2482V2.69017C86.1648 2.27268 85.9691 2.06393 85.5777 2.06393H85.0493V18.9136H85.5973Z" fill="#F4F4F4"/>
<path d="M91.476 5.99747H93.4135L93.7266 6.7607C93.9614 6.10837 94.3137 5.7822 94.7833 5.7822C95.0443 5.7822 95.2595 5.82787 95.4292 5.91919V7.71962C95.3639 7.68048 95.2661 7.64786 95.1356 7.62177C95.0182 7.59568 94.9073 7.58263 94.8029 7.58263C94.1636 7.58263 93.844 7.92184 93.844 8.60026V26.8394H91.476V5.99747Z" fill="#F4F4F4"/>
<path d="M100.016 17.0544V25.0781C100.016 25.4564 100.199 25.6456 100.564 25.6456C100.93 25.6456 101.112 25.4564 101.112 25.0781V18.1504H103.265V25.0389C103.082 26.4088 102.182 27.0938 100.564 27.0938C99.651 27.0938 98.9596 26.885 98.4899 26.4675C98.0202 26.037 97.7854 25.4042 97.7854 24.5693V8.22843C97.7854 7.39345 98.0202 6.76722 98.4899 6.34973C98.9596 5.91919 99.651 5.70392 100.564 5.70392C101.478 5.70392 102.169 5.91267 102.639 6.33016C103.108 6.74765 103.343 7.36084 103.343 8.16973L103.304 17.0544H100.016ZM100.564 7.26951C100.199 7.26951 100.016 7.45869 100.016 7.83704V15.6845H101.112V7.83704C101.112 7.45869 100.93 7.26951 100.564 7.26951Z" fill="#F4F4F4"/>
<path d="M113.527 5.72349C114.649 5.72349 115.21 6.52586 115.21 8.13059V26.8394H112.979V8.15016C112.979 7.69353 112.829 7.46521 112.529 7.46521C112.099 7.46521 111.883 7.70005 111.883 8.16973V26.8394H109.653V8.15016C109.653 7.69353 109.489 7.46521 109.163 7.46521C108.759 7.46521 108.557 7.76528 108.557 8.36542V26.8394H106.365V5.99747H108.341L108.615 6.79984C108.915 6.08227 109.444 5.72349 110.2 5.72349C110.957 5.72349 111.453 6.08227 111.688 6.79984C112.001 6.08227 112.614 5.72349 113.527 5.72349Z" fill="#F4F4F4"/>
<path d="M119.406 5.37124C119.015 5.37124 118.734 5.32557 118.565 5.23425C118.408 5.14292 118.297 4.9407 118.232 4.62758C118.167 4.30142 118.134 3.74694 118.134 2.96414C118.134 2.1683 118.167 1.6073 118.232 1.28114C118.297 0.941926 118.408 0.726658 118.565 0.635332C118.734 0.544006 119.021 0.498343 119.426 0.498343C119.817 0.498343 120.091 0.544006 120.248 0.635332C120.417 0.726658 120.535 0.941926 120.6 1.28114C120.665 1.6073 120.698 2.1683 120.698 2.96414C120.698 3.74694 120.665 4.30142 120.6 4.62758C120.535 4.9407 120.417 5.14292 120.248 5.23425C120.091 5.32557 119.811 5.37124 119.406 5.37124ZM118.232 6.03661C118.623 6.07575 119.002 6.09532 119.367 6.09532C119.811 6.09532 120.222 6.07575 120.6 6.03661V26.8394H118.232V6.03661Z" fill="#F4F4F4"/>
<path d="M126.4 27.0938C124.548 27.0938 123.621 26.2653 123.621 24.6084V8.1893C123.621 6.53238 124.548 5.70392 126.4 5.70392C128.253 5.70392 129.179 6.53238 129.179 8.1893V24.6084C129.179 26.2653 128.253 27.0938 126.4 27.0938ZM126.4 25.3129C126.766 25.3129 126.948 25.1107 126.948 24.7063V8.11102C126.948 7.69353 126.766 7.48478 126.4 7.48478C126.035 7.48478 125.852 7.69353 125.852 8.11102V24.7063C125.852 25.1107 126.035 25.3129 126.4 25.3129Z" fill="#F4F4F4"/>
<path d="M134.804 27.0938C133.877 27.0938 133.199 26.8916 132.768 26.4871C132.338 26.0827 132.123 25.5934 132.123 25.0194V19.5985L134.217 19.6377V25.0194C134.217 25.1759 134.256 25.3064 134.334 25.4108C134.425 25.5021 134.562 25.5478 134.745 25.5478C134.928 25.5478 135.065 25.5021 135.156 25.4108C135.26 25.3064 135.313 25.1759 135.313 25.0194C135.313 24.5627 135.28 23.6038 135.215 22.1426L135.156 20.7727C135.117 19.8203 134.993 19.044 134.784 18.4439C134.575 17.8438 134.262 17.1653 133.845 16.4086C133.479 15.7433 133.179 15.1366 132.945 14.5886C132.723 14.0407 132.534 13.3166 132.377 12.4164C132.22 11.5162 132.142 10.4072 132.142 9.08951V7.85661C132.142 7.19123 132.364 6.67589 132.808 6.31059C133.264 5.94529 133.89 5.76263 134.686 5.76263C135.508 5.76263 136.147 5.95181 136.604 6.33016C137.074 6.69546 137.309 7.19776 137.309 7.83704V12.4555L135.273 12.436V7.7979C135.273 7.68048 135.228 7.56958 135.136 7.46521C135.045 7.34779 134.908 7.28908 134.725 7.28908C134.543 7.28908 134.406 7.34779 134.314 7.46521C134.223 7.56958 134.177 7.68048 134.177 7.7979C134.177 8.88076 134.236 9.85273 134.354 10.7138C134.471 11.9141 134.641 12.8143 134.862 13.4144C135.084 14.0015 135.384 14.5821 135.763 15.1562C136.115 15.678 136.395 16.1999 136.604 16.7218C136.826 17.2306 137.009 18.0264 137.152 19.1093C137.296 20.1791 137.367 21.6273 137.367 23.4538V25.0585C137.367 25.6717 137.126 26.1675 136.643 26.5458C136.174 26.9111 135.56 27.0938 134.804 27.0938Z" fill="#F4F4F4"/>
<path d="M148.049 17.0544V25.0781C148.049 25.4564 148.231 25.6456 148.597 25.6456C148.962 25.6456 149.144 25.4564 149.144 25.0781V18.1504H151.297V25.0389C151.115 26.4088 150.214 27.0938 148.597 27.0938C147.683 27.0938 146.992 26.885 146.522 26.4675C146.052 26.037 145.818 25.4042 145.818 24.5693V8.22843C145.818 7.39345 146.052 6.76722 146.522 6.34973C146.992 5.91919 147.683 5.70392 148.597 5.70392C149.51 5.70392 150.201 5.91267 150.671 6.33016C151.141 6.74765 151.375 7.36084 151.375 8.16973L151.336 17.0544H148.049ZM148.597 7.26951C148.231 7.26951 148.049 7.45869 148.049 7.83704V15.6845H149.144V7.83704C149.144 7.45869 148.962 7.26951 148.597 7.26951Z" fill="#F4F4F4"/>
<path d="M154.397 5.99747H156.374L156.648 6.79984C156.948 6.08227 157.476 5.72349 158.233 5.72349C158.807 5.72349 159.231 5.92572 159.505 6.33016C159.779 6.7346 159.916 7.34779 159.916 8.16973V26.8394H157.685V8.1893C157.685 7.92836 157.646 7.74571 157.567 7.64134C157.489 7.52392 157.365 7.46521 157.196 7.46521C156.791 7.46521 156.589 7.77833 156.589 8.40456V26.8394H154.397V5.99747Z" fill="#F4F4F4"/>
<path d="M9.60689 0.120961C9.60689 0.120961 9.35302 2.47026 7.58898 2.52174C7.13527 1.43348 8.63069 0.0786805 9.60689 0.120961Z" fill="#F4F4F4"/>
<path d="M6.60475 4.37226C6.60475 4.37226 6.57455 2.94097 8.98153 3.59247C9.25904 3.94904 7.1409 5.13539 6.60475 4.37226Z" fill="#F4F4F4"/>
<path d="M6.09776 1.02063C6.09776 1.02063 7.24849 2.82508 6.08242 3.79803C4.91635 4.77098 5.47829 2.35068 6.09776 1.02063Z" fill="#F4F4F4"/>
<path d="M8.10577 5.87719C8.10577 5.87719 6.28236 7.26274 5.41487 6.49088C5.24637 5.72693 7.04309 5.1069 8.10577 5.87719Z" fill="#F4F4F4"/>
<path d="M4.62456 2.82214C4.62456 2.82214 5.75973 5.1264 4.53509 5.74389C3.31045 6.36138 4.16043 3.2338 4.62456 2.82214Z" fill="#F4F4F4"/>
<path d="M7.22884 2.76144C7.22884 2.76144 7.81173 2.16334 7.30417 2.85663C5.95007 4.70302 2.24289 10.0033 2.94953 15.3251C3.83014 21.9024 7.50863 24.8786 9.60703 26.6944C9.54964 26.8902 9.42768 26.8309 9.42768 26.8309C9.42768 26.8309 3.50911 22.8669 2.70203 15.2443C2.71996 11.0271 2.77018 9.5435 7.22884 2.76144Z" fill="#F4F4F4"/>
<path d="M6.30462 10.1665C6.30462 10.1665 4.64136 8.82458 3.76682 9.75551C2.89228 10.6864 5.7715 10.9481 6.30462 10.1665Z" fill="#F4F4F4"/>
<path d="M2.91017 5.22351C2.91017 5.22351 4.58818 6.72697 3.58098 7.66269C2.57379 8.59841 2.55823 6.85839 2.91017 5.22351Z" fill="#F4F4F4"/>
<path d="M7.20525 8.02902C7.20525 8.02902 4.65637 9.52888 4.51123 8.41409C4.36608 7.29931 6.24942 7.55657 7.20525 8.02902Z" fill="#F4F4F4"/>
<path d="M1.80127 7.92566C1.80127 7.92566 3.48081 8.41409 2.86736 9.62541C2.25391 10.8367 1.82658 9.02626 1.80127 7.92566Z" fill="#F4F4F4"/>
<path d="M6.60332 20.6331C6.60332 20.6331 5.86519 21.4972 4.98682 20.9586C4.10846 20.4199 6.67733 20.4997 6.60332 20.6331Z" fill="#F4F4F4"/>
<path d="M6.00445 11.8551C6.00445 11.8551 3.51463 13.1034 3.31522 11.9177C3.11581 10.732 5.31505 11.324 6.00445 11.8551Z" fill="#F4F4F4"/>
<path d="M0.600342 10.0272C0.600342 10.0272 2.84264 10.4956 2.32371 11.7175C1.80478 12.9394 0.736296 11.1576 0.600342 10.0272Z" fill="#F4F4F4"/>
<path d="M5.70423 13.6527C5.70423 13.6527 3.55247 12.185 3.32423 13.7538C3.09599 15.3226 4.71808 14.1038 5.70423 13.6527Z" fill="#F4F4F4"/>
<path d="M0.300293 12.429C0.300293 12.429 2.33069 12.429 2.08019 13.5024C1.82969 14.5759 0.690881 13.4062 0.300293 12.429Z" fill="#F4F4F4"/>
<path d="M0.00446684 14.2301C0.00446684 14.2301 2.9369 14.6367 2.31522 15.485C1.69355 16.3332 -0.101101 14.76 0.00446684 14.2301Z" fill="#F4F4F4"/>
<path d="M5.40401 15.2243C5.40401 15.2243 4.01065 14.3271 3.42952 15.2418C2.84839 16.1566 4.39248 16.4312 5.40401 15.2243Z" fill="#F4F4F4"/>
<path d="M0 16.2818C0 16.2818 2.35671 15.5316 2.40095 16.6293C2.44518 17.7271 0.629873 17.1533 0 16.2818Z" fill="#F4F4F4"/>
<path d="M5.70418 17.2583C5.70418 17.2583 4.97749 16.1469 3.90117 16.8851C2.82485 17.6232 4.9482 17.7052 5.70418 17.2583Z" fill="#F4F4F4"/>
<path d="M0.600342 18.3476C0.600342 18.3476 2.41063 17.2318 2.67322 18.2855C2.93581 19.3393 1.3255 19.2053 0.600342 18.3476Z" fill="#F4F4F4"/>
<path d="M6.00423 18.5857C6.00423 18.5857 5.16883 17.2766 4.19261 18.1107C3.21639 18.9448 4.93096 19.446 6.00423 18.5857Z" fill="#F4F4F4"/>
<path d="M1.20081 20.1256C1.20081 20.1256 2.91885 18.6867 3.25654 19.6887C3.59423 20.6907 1.97889 20.7582 1.20081 20.1256Z" fill="#F4F4F4"/>
<path d="M6.3046 19.5627C6.3046 19.5627 4.74474 18.9353 4.52243 19.7588C4.30012 20.5823 6.08413 20.2184 6.3046 19.5627Z" fill="#F4F4F4"/>
<path d="M2.40186 21.4483C2.40186 21.4483 3.38738 20.329 3.81557 21.1145C4.24376 21.9001 2.98977 21.8561 2.40186 21.4483Z" fill="#F4F4F4"/>
<path d="M6.60468 21.5051C6.60468 21.5051 5.54726 21.2212 5.41332 21.8004C5.27938 22.3797 6.60468 21.7371 6.60468 21.5051Z" fill="#F4F4F4"/>
<path d="M3.30249 22.3579C3.30249 22.3579 4.54497 21.697 4.50229 22.2685C4.45961 22.8399 3.50009 22.6446 3.30249 22.3579Z" fill="#F4F4F4"/>
<path d="M6.90497 22.0358C6.90497 22.0358 5.70641 22.0541 5.70411 22.4587C5.7018 22.8634 6.81278 22.5136 6.90497 22.0358Z" fill="#F4F4F4"/>
<path d="M4.203 22.8727C4.203 22.8727 4.88841 22.4809 5.07549 22.7065C5.26257 22.932 4.46624 23.0009 4.203 22.8727Z" fill="#F4F4F4"/>
<path d="M4.80359 23.4337C4.80359 23.4337 5.42851 23.0751 5.40328 23.3255C5.37805 23.576 4.95885 23.5931 4.80359 23.4337Z" fill="#F4F4F4"/>
<path d="M197.323 0.12094C197.323 0.12094 197.609 2.42101 199.54 2.4714C200.039 1.40596 198.396 0.0795463 197.323 0.12094Z" fill="#F4F4F4"/>
<path d="M200.309 4.38271C200.309 4.38271 200.334 2.83673 198.043 3.54583C197.789 3.92557 199.797 5.20699 200.309 4.38271Z" fill="#F4F4F4"/>
<path d="M200.861 0.968628C200.861 0.968628 199.781 2.85116 200.875 3.86621C201.97 4.88126 201.444 2.35623 200.861 0.968628Z" fill="#F4F4F4"/>
<path d="M198.808 5.8568C198.808 5.8568 200.775 7.43337 201.711 6.55509C201.894 5.68582 199.949 4.98032 198.808 5.8568Z" fill="#F4F4F4"/>
<path d="M202.288 2.75562C202.288 2.75562 201.19 5.13307 202.373 5.77018C203.555 6.40729 202.726 3.18035 202.288 2.75562Z" fill="#F4F4F4"/>
<path d="M199.826 2.71261C199.826 2.71261 199.241 2.1133 199.751 2.808C201.109 4.65813 204.829 9.96916 204.115 15.3018C203.231 21.8924 199.542 24.8746 197.434 26.6942C197.492 26.8903 197.614 26.8309 197.614 26.8309C197.614 26.8309 203.553 22.8589 204.363 15.2208C204.353 10.995 204.299 9.50843 199.826 2.71261Z" fill="#F4F4F4"/>
<path d="M200.609 10.1418C200.609 10.1418 202.249 8.70203 203.113 9.70089C203.976 10.6997 201.135 10.9805 200.609 10.1418Z" fill="#F4F4F4"/>
<path d="M204.023 5.29529C204.023 5.29529 202.468 6.83946 203.404 7.80053C204.34 8.76159 204.347 6.97445 204.023 5.29529Z" fill="#F4F4F4"/>
<path d="M199.747 7.92641C199.747 7.92641 202.337 9.59477 202.484 8.35475C202.632 7.11473 200.717 7.40089 199.747 7.92641Z" fill="#F4F4F4"/>
<path d="M205.317 7.82031C205.317 7.82031 203.285 8.36024 204.027 9.69924C204.768 11.0382 205.285 9.03694 205.317 7.82031Z" fill="#F4F4F4"/>
<path d="M200.524 20.566C200.524 20.566 201.205 21.5217 202.018 20.926C202.832 20.3302 200.452 20.4184 200.524 20.566Z" fill="#F4F4F4"/>
<path d="M201.097 11.8697C201.097 11.8697 203.454 13.1979 203.643 11.9363C203.832 10.6747 201.748 11.3046 201.097 11.8697Z" fill="#F4F4F4"/>
<path d="M206.302 10.0088C206.302 10.0088 204.194 10.4875 204.682 11.7365C205.17 12.9856 206.174 11.1642 206.302 10.0088Z" fill="#F4F4F4"/>
<path d="M201.349 13.5902C201.349 13.5902 203.571 12.1828 203.807 13.6874C204.043 15.192 202.367 14.024 201.349 13.5902Z" fill="#F4F4F4"/>
<path d="M206.831 12.4673C206.831 12.4673 204.614 12.4673 204.889 13.6119C205.164 14.7566 206.404 13.5093 206.831 12.4673Z" fill="#F4F4F4"/>
<path d="M206.955 14.2075C206.955 14.2075 204.268 14.6053 204.828 15.4349C205.387 16.2646 207.052 14.7258 206.955 14.2075Z" fill="#F4F4F4"/>
<path d="M201.473 15.3504C201.473 15.3504 202.971 14.4271 203.595 15.3684C204.22 16.3096 202.56 16.5922 201.473 15.3504Z" fill="#F4F4F4"/>
<path d="M207 16.3707C207 16.3707 204.603 15.613 204.558 16.7217C204.513 17.8303 206.359 17.2508 207 16.3707Z" fill="#F4F4F4"/>
<path d="M201.27 17.2599C201.27 17.2599 201.99 16.0649 203.037 16.8658C204.084 17.6667 202.011 17.7404 201.27 17.2599Z" fill="#F4F4F4"/>
<path d="M206.33 18.3289C206.33 18.3289 204.457 17.0997 204.185 18.2605C203.913 19.4213 205.58 19.2737 206.33 18.3289Z" fill="#F4F4F4"/>
<path d="M201.111 18.5593C201.111 18.5593 201.901 17.2995 202.825 18.1022C203.748 18.9049 202.128 19.3872 201.111 18.5593Z" fill="#F4F4F4"/>
<path d="M205.736 20.2133C205.736 20.2133 203.96 18.6781 203.611 19.7471C203.262 20.8162 204.936 20.8882 205.736 20.2133Z" fill="#F4F4F4"/>
<path d="M200.83 19.4609C200.83 19.4609 202.357 18.741 202.576 19.6859C202.796 20.6308 201.045 20.2132 200.83 19.4609Z" fill="#F4F4F4"/>
<path d="M204.565 21.4298C204.565 21.4298 203.519 20.422 203.066 21.1293C202.612 21.8366 203.937 21.797 204.565 21.4298Z" fill="#F4F4F4"/>
<path d="M200.341 21.4137C200.341 21.4137 201.421 21.0988 201.558 21.7413C201.694 22.3838 200.341 21.6711 200.341 21.4137Z" fill="#F4F4F4"/>
<path d="M203.82 22.2199C203.82 22.2199 202.405 21.5684 202.454 22.1317C202.502 22.695 203.595 22.5025 203.82 22.2199Z" fill="#F4F4F4"/>
<path d="M200.233 22.1011C200.233 22.1011 201.169 22.1155 201.171 22.434C201.172 22.7526 200.308 22.4772 200.233 22.1011Z" fill="#F4F4F4"/>
<path d="M202.934 22.9058C202.934 22.9058 202.189 22.3119 201.988 22.6538C201.786 22.9958 202.648 23.1002 202.934 22.9058Z" fill="#F4F4F4"/>
<path d="M202.16 23.3539C202.16 23.3539 201.579 23.0137 201.602 23.2513C201.626 23.4888 202.015 23.505 202.16 23.3539Z" fill="#F4F4F4"/>
<path d="M200.42 22.8787C200.42 22.8787 200.78 22.6987 200.94 22.9146C201.1 23.1306 200.354 22.992 200.42 22.8787Z" fill="#F4F4F4"/>
<path d="M166.44 25.3302C166.44 24.13 166.503 23.0213 166.63 22.0042C166.763 20.9871 166.925 20.0717 167.115 19.258C167.304 18.4444 167.554 17.4883 167.863 16.3898C168.179 15.2507 168.429 14.2844 168.611 13.4911C168.801 12.6977 168.959 11.7925 169.086 10.7754C169.219 9.73796 169.286 8.61914 169.286 7.41896C169.286 6.70699 169.251 6.15775 169.181 5.77125C169.11 5.36441 168.984 5.16099 168.801 5.16099C168.499 5.16099 168.348 5.94416 168.348 7.5105V10.7144H166.44L166.419 9.09718C166.419 7.10366 166.489 5.46612 166.63 4.18457C166.77 2.90302 167.016 1.9266 167.368 1.25531C167.719 0.584027 168.204 0.248383 168.822 0.248383C169.581 0.248383 170.168 0.868816 170.583 2.10968C170.997 3.33021 171.204 5.06945 171.204 7.32742C171.204 8.77171 171.134 10.0838 170.994 11.2636C170.86 12.4231 170.691 13.4402 170.488 14.3149C170.291 15.1896 170.027 16.2169 169.697 17.3967C169.458 18.2308 169.258 18.9733 169.096 19.6242C168.942 20.2751 168.801 20.9464 168.675 21.6381H171.141V26.5812H166.44V25.3302Z" fill="#F4F4F4"/>
<path d="M175.517 26.8253C174.751 26.8253 174.161 26.2049 173.746 24.964C173.332 23.7028 173.124 21.9127 173.124 19.5937V7.75461C173.124 5.27287 173.325 3.38106 173.725 2.07917C174.126 0.777276 174.723 0.12633 175.517 0.12633C176.318 0.12633 176.919 0.777276 177.32 2.07917C177.72 3.38106 177.921 5.27287 177.921 7.75461V19.5937C177.921 21.933 177.713 23.7231 177.299 24.964C176.884 26.2049 176.29 26.8253 175.517 26.8253ZM175.517 22.0042C175.651 22.0042 175.76 21.8313 175.844 21.4855C175.928 21.1193 175.97 20.6922 175.97 20.204V7.2664C175.97 6.51374 175.939 5.94416 175.876 5.55766C175.819 5.15082 175.7 4.9474 175.517 4.9474C175.334 4.9474 175.215 5.15082 175.159 5.55766C175.103 5.94416 175.074 6.51374 175.074 7.2664V20.204C175.074 20.6922 175.113 21.1193 175.19 21.4855C175.275 21.8313 175.384 22.0042 175.517 22.0042Z" fill="#F4F4F4"/>
<path d="M180.947 6.38152C180.828 6.8087 180.659 7.15451 180.441 7.41896C180.23 7.68341 180.027 7.81563 179.83 7.81563V3.63534C180.139 3.49294 180.445 3.13696 180.747 2.56738C181.056 1.9978 181.278 1.25531 181.411 0.339923H182.866V26.5812H180.947V6.38152Z" fill="#F4F4F4"/>
<path d="M187.378 26.8558C186.549 26.8558 185.944 26.1743 185.565 24.8114C185.192 23.4485 185.006 21.4346 185.006 18.7698V17.0306C185.006 15.6473 185.062 14.5489 185.175 13.7352C185.294 12.9215 185.498 12.3112 185.786 11.9044C185.512 11.5789 185.315 11.0399 185.196 10.2872C185.076 9.53454 185.017 8.56829 185.017 7.38845V6.68665C185.017 4.40834 185.213 2.73011 185.607 1.65199C186.008 0.573855 186.598 0.03479 187.378 0.03479C188.172 0.03479 188.762 0.584026 189.149 1.6825C189.542 2.78097 189.739 4.52022 189.739 6.90024C189.739 8.24281 189.683 9.33112 189.57 10.1651C189.458 10.9788 189.258 11.5687 188.97 11.9349C189.293 12.3824 189.504 13.0842 189.602 14.0403C189.7 14.976 189.75 16.3288 189.75 18.0985C189.75 18.4444 189.746 18.6681 189.739 18.7698C189.739 21.4346 189.553 23.4485 189.18 24.8114C188.808 26.1743 188.207 26.8558 187.378 26.8558ZM187.378 9.67693C187.694 9.67693 187.852 8.84291 187.852 7.17486C187.852 6.52391 187.814 5.97467 187.736 5.52715C187.666 5.07962 187.547 4.85586 187.378 4.85586C187.209 4.85586 187.086 5.07962 187.009 5.52715C186.939 5.97467 186.904 6.52391 186.904 7.17486C186.904 8.84291 187.062 9.67693 187.378 9.67693ZM187.378 21.6686C187.708 21.6686 187.873 20.804 187.873 19.075L187.863 17.7629C187.863 16.7661 187.835 15.9626 187.778 15.3524C187.722 14.7421 187.589 14.437 187.378 14.437C187.202 14.437 187.076 14.7116 186.998 15.2608C186.921 15.7897 186.882 16.4508 186.882 17.2442C186.882 17.59 186.886 17.8443 186.893 18.007V18.2511L186.882 19.075C186.882 20.804 187.048 21.6686 187.378 21.6686Z" fill="#F4F4F4"/>
</svg>
