<svg width="434" height="123" viewBox="0 0 434 123" fill="none" xmlns="http://www.w3.org/2000/svg">
<path d="M16.6992 100.697H12.1289L11.6016 121H0.878906L7.91016 1.46875H20.918L28.0371 121H17.2266L16.6992 100.697ZM16.4355 93.4902L14.6777 27.6602H14.1504L12.3926 93.4902H16.4355Z" fill="#F4F4F4"/>
<path d="M33.0891 1.46875H43.8996V112.562H51.1945V121H33.0891V1.46875Z" fill="#F4F4F4"/>
<path d="M87.1383 122.143C78.1734 122.143 73.691 117.865 73.691 109.311V13.1582C73.691 8.93945 74.8043 5.77539 77.0309 3.66602C79.316 1.49805 82.6852 0.414062 87.1383 0.414062C95.9859 0.414062 100.498 4.57422 100.673 12.8945V58.5098H89.5992V12.1914C89.5992 10.4922 88.7789 9.64258 87.1383 9.64258C85.4977 9.64258 84.6773 10.4922 84.6773 12.1914V110.277C84.6773 111.977 85.4977 112.826 87.1383 112.826C88.7789 112.826 89.5992 111.977 89.5992 110.277V64.0469H100.673V109.662C100.38 117.982 95.8688 122.143 87.1383 122.143Z" fill="#F4F4F4"/>
<path d="M120.052 100.697H115.481L114.954 121H104.231L111.262 1.46875H124.27L131.389 121H120.579L120.052 100.697ZM119.788 93.4902L118.03 27.6602H117.503L115.745 93.4902H119.788Z" fill="#F4F4F4"/>
<path d="M136.441 1.46875H156.568V9.64258H147.34V58.1582H154.635V65.0137H147.34V113.002H156.656V121H136.441V1.46875Z" fill="#F4F4F4"/>
<path d="M186.933 63.959C186.933 67.4746 185.937 70.1406 183.945 71.957L186.933 121H176.562L174.892 74.6816H171.64V121H161.269V1.46875H173.837C178.173 1.46875 181.425 2.28906 183.593 3.92969C185.82 5.57031 186.933 8.35352 186.933 12.2793V63.959ZM174.101 67.4746C175.8 67.4746 176.65 66.3613 176.65 64.1348V12.543C176.65 10.668 175.771 9.73047 174.013 9.73047H171.64V67.4746H174.101Z" fill="#F4F4F4"/>
<path d="M210.572 1.46875H221.382V112.562H228.677V121H210.572V1.46875Z" fill="#F4F4F4"/>
<path d="M248.407 100.697H243.837L243.309 121H232.587L239.618 1.46875H252.626L259.745 121H248.934L248.407 100.697ZM248.143 93.4902L246.386 27.6602H245.858L244.1 93.4902H248.143Z" fill="#F4F4F4"/>
<path d="M282.241 1.46875H293.404L295.161 19.8379L299.995 87.5137H300.698L298.413 1.46875H308.169V121H297.007L295.161 102.719L290.152 33.6367L289.448 33.5488L291.909 121H282.241V1.46875Z" fill="#F4F4F4"/>
<path d="M314.364 12.4551C314.364 8.5293 315.506 5.54102 317.791 3.49023C320.077 1.43945 323.446 0.414062 327.899 0.414062C332.352 0.414062 335.692 1.49805 337.918 3.66602C340.204 5.77539 341.346 8.93945 341.346 13.1582V109.311C341.346 117.865 336.864 122.143 327.899 122.143C323.563 122.143 320.34 121.088 318.231 118.979C316.18 116.869 314.891 113.646 314.364 109.311V12.4551ZM325.438 110.277C325.438 111.977 326.258 112.826 327.899 112.826C329.539 112.826 330.36 111.977 330.36 110.277V12.1914C330.36 10.4922 329.539 9.64258 327.899 9.64258C326.258 9.64258 325.438 10.4922 325.438 12.1914V110.277Z" fill="#F4F4F4"/>
<path d="M360.548 122.143C351.584 122.143 347.101 117.865 347.101 109.311V13.1582C347.101 8.93945 348.214 5.77539 350.441 3.66602C352.726 1.49805 356.095 0.414062 360.548 0.414062C369.396 0.414062 373.908 4.57422 374.084 12.8945V58.5098H363.009V12.1914C363.009 10.4922 362.189 9.64258 360.548 9.64258C358.908 9.64258 358.087 10.4922 358.087 12.1914V110.277C358.087 111.977 358.908 112.826 360.548 112.826C362.189 112.826 363.009 111.977 363.009 110.277V64.0469H374.084V109.662C373.791 117.982 369.279 122.143 360.548 122.143Z" fill="#F4F4F4"/>
<path d="M380.278 1.46875H390.825V57.2793H395.747V1.46875H406.382V121H395.747V65.4531H390.825V121H380.278V1.46875Z" fill="#F4F4F4"/>
<path d="M412.84 1.46875H432.967V9.64258H423.738V58.1582H431.033V65.0137H423.738V113.002H433.055V121H412.84V1.46875Z" fill="#F4F4F4"/>
</svg>
