<svg width="872" height="110" viewBox="0 0 872 110" fill="none" xmlns="http://www.w3.org/2000/svg">
<path d="M18.9688 109.25C12.9271 109.25 8.36979 107.844 5.29688 105.031C2.27604 102.167 0.765625 97.9219 0.765625 92.2969V17.4531C0.765625 11.8802 2.30208 7.66146 5.375 4.79688C8.44792 1.93229 12.9792 0.5 18.9688 0.5C24.8021 0.5 29.2552 1.90625 32.3281 4.71875C35.401 7.47917 37.0156 11.5677 37.1719 16.9844V52.4531H21.1562V15.7344C21.1562 14.224 20.4271 13.4688 18.9688 13.4688C17.4583 13.4688 16.7031 14.224 16.7031 15.7344V94.0156C16.7031 95.526 17.4583 96.2812 18.9688 96.2812C20.4271 96.2812 21.1562 95.526 21.1562 94.0156V57.2969H37.1719V92.8438C37.0156 98.2604 35.401 102.349 32.3281 105.109C29.3073 107.87 24.8542 109.25 18.9688 109.25Z" fill="#F4F4F4"/>
<path d="M61.8188 108L60.2563 68.2344H57.4438V108H42.5219V1.75H59.0844C64.9177 1.75 69.2927 2.73958 72.2094 4.71875C75.126 6.64583 76.5844 10.1615 76.5844 15.2656V55.5C76.5844 59.6146 75.3865 62.7135 72.9906 64.7969L76.6625 108H61.8188ZM59.475 59.0156C60.3083 59.0156 60.9073 58.7812 61.2719 58.3125C61.6365 57.7917 61.8188 56.9844 61.8188 55.8906V15.6562C61.8188 14.6667 61.6104 13.9635 61.1938 13.5469C60.8292 13.0781 60.2302 12.8438 59.3969 12.8438H57.4438V59.0156H59.475Z" fill="#F4F4F4"/>
<path d="M82.0906 1.75H108.653V12.7656H97.8719V50.9688H106.388V59.5625H97.8719V97.2969H108.809V108H82.0906V1.75Z" fill="#F4F4F4"/>
<path d="M132.05 91.4375H127.675L127.206 108H111.581L121.034 1.75H138.612L148.066 108H132.519L132.05 91.4375ZM131.737 82.2188L130.097 28.1562H129.472L127.909 82.2188H131.737Z" fill="#F4F4F4"/>
<path d="M159.353 109.328C157.27 109.328 155.733 109.068 154.744 108.547C153.754 108.026 153.051 107.036 152.634 105.578C152.218 104.068 152.009 101.75 152.009 98.625C152.009 95.1354 152.218 92.5833 152.634 90.9688C153.051 89.3542 153.754 88.2865 154.744 87.7656C155.785 87.1927 157.348 86.9062 159.431 86.9062C161.515 86.9062 163.051 87.1927 164.041 87.7656C165.03 88.2865 165.733 89.3542 166.15 90.9688C166.567 92.5833 166.775 95.1354 166.775 98.625C166.775 101.802 166.567 104.12 166.15 105.578C165.733 107.036 165.004 108.026 163.962 108.547C162.973 109.068 161.436 109.328 159.353 109.328Z" fill="#F4F4F4"/>
<path d="M191.303 1.75H207.866C213.699 1.75 218.074 2.73958 220.991 4.71875C223.907 6.64583 225.366 10.1615 225.366 15.2656V69.7188C225.314 74.7188 223.829 78.2344 220.913 80.2656C218.048 82.2448 214.011 83.2344 208.803 83.2344H206.85V108H191.303V1.75ZM208.256 73C209.09 73 209.689 72.7656 210.053 72.2969C210.418 71.8281 210.6 71.099 210.6 70.1094V15.6562C210.6 14.6667 210.392 13.9635 209.975 13.5469C209.61 13.0781 209.011 12.8438 208.178 12.8438H206.225V73H208.256Z" fill="#F4F4F4"/>
<path d="M250.169 108L248.606 68.2344H245.794V108H230.872V1.75H247.434C253.268 1.75 257.643 2.73958 260.559 4.71875C263.476 6.64583 264.934 10.1615 264.934 15.2656V55.5C264.934 59.6146 263.736 62.7135 261.341 64.7969L265.013 108H250.169ZM247.825 59.0156C248.658 59.0156 249.257 58.7812 249.622 58.3125C249.986 57.7917 250.169 56.9844 250.169 55.8906V15.6562C250.169 14.6667 249.96 13.9635 249.544 13.5469C249.179 13.0781 248.58 12.8438 247.747 12.8438H245.794V59.0156H247.825Z" fill="#F4F4F4"/>
<path d="M270.128 16.9062C270.128 11.5417 271.665 7.47917 274.737 4.71875C277.81 1.90625 282.342 0.5 288.331 0.5C294.321 0.5 298.852 1.93229 301.925 4.79688C304.998 7.66146 306.534 11.8802 306.534 17.4531V92.2188C306.534 97.8438 304.998 102.089 301.925 104.953C298.852 107.818 294.321 109.25 288.331 109.25C282.394 109.25 277.967 107.844 275.05 105.031C272.185 102.219 270.545 97.9479 270.128 92.2188V16.9062ZM286.144 94.0156C286.144 95.526 286.873 96.2812 288.331 96.2812C289.79 96.2812 290.519 95.526 290.519 94.0156V15.7344C290.519 14.224 289.79 13.4688 288.331 13.4688C286.873 13.4688 286.144 14.224 286.144 15.7344V94.0156Z" fill="#F4F4F4"/>
<path d="M311.884 1.75H329.228C335.166 1.75 339.645 3.13021 342.666 5.89062C345.686 8.59896 347.197 12.6354 347.197 18V91.6719C347.197 97.0365 345.686 101.099 342.666 103.859C339.645 106.62 335.192 108 329.306 108H311.884V1.75ZM329.072 95.4219C329.957 95.4219 330.556 95.1615 330.869 94.6406C331.233 94.0677 331.416 93.1042 331.416 91.75V18.0781C331.416 16.6719 331.233 15.7083 330.869 15.1875C330.556 14.6146 329.957 14.3281 329.072 14.3281H327.041V95.4219H329.072Z" fill="#F4F4F4"/>
<path d="M369.891 109.406C358.276 109.406 352.469 105.005 352.469 96.2031V1.75H367.781V94.5625C367.781 95.5521 367.964 96.3073 368.328 96.8281C368.745 97.349 369.292 97.6094 369.969 97.6094C370.646 97.6094 371.167 97.349 371.531 96.8281C371.948 96.3073 372.156 95.5521 372.156 94.5625V1.75H387.391V96.2031C387.391 100.578 385.906 103.885 382.938 106.125C380.021 108.312 375.672 109.406 369.891 109.406Z" fill="#F4F4F4"/>
<path d="M410.944 109.25C404.902 109.25 400.345 107.844 397.272 105.031C394.251 102.167 392.741 97.9219 392.741 92.2969V17.4531C392.741 11.8802 394.277 7.66146 397.35 4.79688C400.423 1.93229 404.954 0.5 410.944 0.5C416.777 0.5 421.23 1.90625 424.303 4.71875C427.376 7.47917 428.991 11.5677 429.147 16.9844V52.4531H413.131V15.7344C413.131 14.224 412.402 13.4688 410.944 13.4688C409.433 13.4688 408.678 14.224 408.678 15.7344V94.0156C408.678 95.526 409.433 96.2812 410.944 96.2812C412.402 96.2812 413.131 95.526 413.131 94.0156V57.2969H429.147V92.8438C428.991 98.2604 427.376 102.349 424.303 105.109C421.282 107.87 416.829 109.25 410.944 109.25Z" fill="#F4F4F4"/>
<path d="M434.497 1.75H461.059V12.7656H450.278V50.9688H458.794V59.5625H450.278V97.2969H461.216V108H434.497V1.75Z" fill="#F4F4F4"/>
<path d="M472.503 109.328C470.42 109.328 468.883 109.068 467.894 108.547C466.904 108.026 466.201 107.036 465.784 105.578C465.368 104.068 465.159 101.75 465.159 98.625C465.159 95.1354 465.368 92.5833 465.784 90.9688C466.201 89.3542 466.904 88.2865 467.894 87.7656C468.935 87.1927 470.498 86.9062 472.581 86.9062C474.665 86.9062 476.201 87.1927 477.191 87.7656C478.18 88.2865 478.883 89.3542 479.3 90.9688C479.717 92.5833 479.925 95.1354 479.925 98.625C479.925 101.802 479.717 104.12 479.3 105.578C478.883 107.036 478.154 108.026 477.112 108.547C476.123 109.068 474.586 109.328 472.503 109.328Z" fill="#F4F4F4"/>
<path d="M509.062 13.625H502.891V1.75H530.703V13.625H524.531V108H509.062V13.625Z" fill="#F4F4F4"/>
<path d="M554.256 108L552.694 68.2344H549.881V108H534.959V1.75H551.522C557.355 1.75 561.73 2.73958 564.647 4.71875C567.564 6.64583 569.022 10.1615 569.022 15.2656V55.5C569.022 59.6146 567.824 62.7135 565.428 64.7969L569.1 108H554.256ZM551.912 59.0156C552.746 59.0156 553.345 58.7812 553.709 58.3125C554.074 57.7917 554.256 56.9844 554.256 55.8906V15.6562C554.256 14.6667 554.048 13.9635 553.631 13.5469C553.267 13.0781 552.668 12.8438 551.834 12.8438H549.881V59.0156H551.912Z" fill="#F4F4F4"/>
<path d="M593.513 91.4375H589.138L588.669 108H573.044L582.497 1.75H600.075L609.528 108H593.981L593.513 91.4375ZM593.2 82.2188L591.559 28.1562H590.934L589.372 82.2188H593.2Z" fill="#F4F4F4"/>
<path d="M629.566 109.328C618.159 109.328 612.456 105.031 612.456 96.4375V72.5312H626.597V96.5156C626.701 98.026 627.456 98.7812 628.862 98.7812C629.54 98.7812 630.06 98.599 630.425 98.2344C630.842 97.8177 631.05 97.2448 631.05 96.5156C631.05 90.2135 630.816 85.2135 630.347 81.5156C629.878 76.9323 629.149 72.8438 628.159 69.25C627.222 65.6042 626.206 62.5052 625.112 59.9531C624.019 57.349 622.612 54.3021 620.894 50.8125C618.967 46.9583 617.456 43.6771 616.362 40.9688C615.269 38.2604 614.357 35.0052 613.628 31.2031C612.899 27.349 612.534 22.8698 612.534 17.7656V13.5469C612.586 9.01562 613.941 5.70833 616.597 3.625C619.305 1.54167 623.264 0.5 628.472 0.5C633.993 0.5 638.107 1.64583 640.816 3.9375C643.576 6.17708 644.956 9.32812 644.956 13.3906V31.2812H631.284V13.3125C631.284 12.5833 631.076 12.0365 630.659 11.6719C630.295 11.2552 629.774 11.0469 629.097 11.0469C628.42 11.0469 627.873 11.2552 627.456 11.6719C627.04 12.0365 626.831 12.5833 626.831 13.3125C626.831 16.8021 627.092 20.2396 627.612 23.625C628.185 27.375 629.045 30.7344 630.191 33.7031C631.336 36.6198 632.899 40.1354 634.878 44.25C637.17 48.8854 639.019 53.0781 640.425 56.8281C641.831 60.526 643.029 65.2396 644.019 70.9688C645.008 76.6979 645.503 83.5208 645.503 91.4375V97.0625C645.451 101.073 643.993 104.12 641.128 106.203C638.316 108.286 634.461 109.328 629.566 109.328Z" fill="#F4F4F4"/>
<path d="M669.056 109.25C663.015 109.25 658.457 107.844 655.384 105.031C652.364 102.167 650.853 97.9219 650.853 92.2969V17.4531C650.853 11.8802 652.39 7.66146 655.463 4.79688C658.535 1.93229 663.067 0.5 669.056 0.5C674.89 0.5 679.343 1.90625 682.416 4.71875C685.489 7.47917 687.103 11.5677 687.259 16.9844V52.4531H671.244V15.7344C671.244 14.224 670.515 13.4688 669.056 13.4688C667.546 13.4688 666.791 14.224 666.791 15.7344V94.0156C666.791 95.526 667.546 96.2812 669.056 96.2812C670.515 96.2812 671.244 95.526 671.244 94.0156V57.2969H687.259V92.8438C687.103 98.2604 685.489 102.349 682.416 105.109C679.395 107.87 674.942 109.25 669.056 109.25Z" fill="#F4F4F4"/>
<path d="M692.609 1.75H708.156V108H692.609V1.75Z" fill="#F4F4F4"/>
<path d="M713.897 1.75H740.459V12.7656H729.678V50.9688H738.194V59.5625H729.678V97.2969H740.616V108H713.897V1.75Z" fill="#F4F4F4"/>
<path d="M744.872 1.75H761.122L762.762 17.2969L767.45 73.4688H768.231L765.653 1.75H779.403V108H763.153L761.434 92.5312L756.434 33.9375H755.497L758.387 108H744.872V1.75Z" fill="#F4F4F4"/>
<path d="M785.066 1.75H802.409C808.347 1.75 812.826 3.13021 815.847 5.89062C818.868 8.59896 820.378 12.6354 820.378 18V91.6719C820.378 97.0365 818.868 101.099 815.847 103.859C812.826 106.62 808.373 108 802.488 108H785.066V1.75ZM802.253 95.4219C803.139 95.4219 803.738 95.1615 804.05 94.6406C804.415 94.0677 804.597 93.1042 804.597 91.75V18.0781C804.597 16.6719 804.415 15.7083 804.05 15.1875C803.738 14.6146 803.139 14.3281 802.253 14.3281H800.222V95.4219H802.253Z" fill="#F4F4F4"/>
<path d="M825.728 1.75H852.291V12.7656H841.509V50.9688H850.025V59.5625H841.509V97.2969H852.447V108H825.728V1.75Z" fill="#F4F4F4"/>
<path d="M863.734 109.328C861.651 109.328 860.115 109.068 859.125 108.547C858.135 108.026 857.432 107.036 857.016 105.578C856.599 104.068 856.391 101.75 856.391 98.625C856.391 95.1354 856.599 92.5833 857.016 90.9688C857.432 89.3542 858.135 88.2865 859.125 87.7656C860.167 87.1927 861.729 86.9062 863.812 86.9062C865.896 86.9062 867.432 87.1927 868.422 87.7656C869.411 88.2865 870.115 89.3542 870.531 90.9688C870.948 92.5833 871.156 95.1354 871.156 98.625C871.156 101.802 870.948 104.12 870.531 105.578C870.115 107.036 869.385 108.026 868.344 108.547C867.354 109.068 865.818 109.328 863.734 109.328Z" fill="#F4F4F4"/>
</svg>
