<svg width="327" height="153" viewBox="0 0 327 153" fill="none" xmlns="http://www.w3.org/2000/svg">
<path d="M0.285156 31.4688H13.293C17.6875 31.4688 20.998 32.5234 23.2246 34.6328C25.5098 36.6836 26.6523 39.7598 26.6523 43.8613V138.607C26.6523 142.709 25.5098 145.814 23.2246 147.924C20.998 149.975 17.6875 151 13.293 151H0.285156V31.4688ZM13.2051 141.947C14.084 141.947 14.7285 141.684 15.1387 141.156C15.5488 140.629 15.7539 139.779 15.7539 138.607V43.9492C15.7539 42.7188 15.5488 41.8398 15.1387 41.3125C14.7285 40.7852 14.084 40.5215 13.2051 40.5215H10.832V141.947H13.2051Z" fill="#F4F4F4"/>
<path d="M32.8469 31.4688H43.6574V151H32.8469V31.4688Z" fill="#F4F4F4"/>
<path d="M62.9477 152.23C54.393 152.23 50.1156 148.715 50.1156 141.684V111.098H60.0473V141.771C60.0473 142.533 60.2523 143.148 60.6625 143.617C61.1312 144.086 61.7465 144.32 62.5082 144.32C63.3285 144.32 63.9437 144.115 64.3539 143.705C64.8227 143.236 65.057 142.592 65.057 141.771C65.057 134.213 64.852 127.885 64.4418 122.787C63.8559 114.057 62.9184 106.879 61.6293 101.254C60.3402 95.6289 58.6117 89.5059 56.4437 82.8848C54.9789 78.5488 53.8363 74.8574 53.016 71.8105C52.1957 68.7051 51.4926 65.0723 50.9066 60.9121C50.3793 56.6934 50.1156 51.8594 50.1156 46.4102V40.9609C50.1742 37.3281 51.2289 34.6621 53.2797 32.9629C55.3305 31.2637 58.348 30.4141 62.3324 30.4141C66.4926 30.4141 69.598 31.3223 71.6488 33.1387C73.7582 34.8965 74.8422 37.4746 74.9008 40.873V63.8125H65.1449V40.7852C65.1449 39.1445 64.3246 38.3242 62.684 38.3242C61.0434 38.3242 60.223 39.1738 60.223 40.873C60.223 45.7949 60.4281 50.0723 60.8383 53.7051C61.307 58.7441 62.0102 63.2266 62.9477 67.1523C63.9437 71.0195 65.2914 75.5605 66.9906 80.7754C68.7484 86.4004 70.1547 91.3809 71.2094 95.7168C72.3227 100.053 73.2602 105.473 74.0219 111.977C74.7836 118.48 75.1645 126.127 75.1645 134.916V142.035C75.1059 145.375 73.9926 147.924 71.8246 149.682C69.7152 151.381 66.7562 152.23 62.9477 152.23Z" fill="#F4F4F4"/>
<path d="M83.5563 40.1699H78.6344V31.4688H99.3766V40.1699H94.3668V151H83.5563V40.1699Z" fill="#F4F4F4"/>
<path d="M129.653 93.959C129.653 97.4746 128.657 100.141 126.665 101.957L129.653 151H119.282L117.612 104.682H114.36V151H103.989V31.4688H116.557C120.893 31.4688 124.145 32.2891 126.313 33.9297C128.54 35.5703 129.653 38.3535 129.653 42.2793V93.959ZM116.821 97.4746C118.52 97.4746 119.37 96.3613 119.37 94.1348V42.543C119.37 40.668 118.491 39.7305 116.733 39.7305H114.36V97.4746H116.821Z" fill="#F4F4F4"/>
<path d="M135.848 31.4688H146.658V151H135.848V31.4688Z" fill="#F4F4F4"/>
<path d="M153.116 31.4688H166.036C170.431 31.4688 173.654 32.2305 175.704 33.7539C177.755 35.2773 178.78 37.6797 178.78 40.9609V83.5C178.78 87.4844 177.404 90.1504 174.65 91.498C177.521 92.7285 178.956 95.2773 178.956 99.1445V141.508C178.956 144.789 177.931 147.191 175.88 148.715C173.888 150.238 170.665 151 166.212 151H153.116V31.4688ZM164.718 87.8945C167.238 87.8945 168.497 86.6641 168.497 84.2031V41.752C168.497 39.877 167.618 38.9395 165.861 38.9395H163.488V87.8945H164.718ZM165.861 143.441C167.618 143.441 168.497 142.533 168.497 140.717V98.4414C168.497 95.9219 167.238 94.6621 164.718 94.6621H163.488V143.441H165.861Z" fill="#F4F4F4"/>
<path d="M198.159 152.23C189.428 152.23 185.063 148.656 185.063 141.508V31.4688H195.698V140.629C195.698 142.621 196.518 143.617 198.159 143.617C199.799 143.617 200.62 142.621 200.62 140.629V31.4688H211.254V141.508C211.254 145.082 210.141 147.777 207.914 149.594C205.746 151.352 202.495 152.23 198.159 152.23Z" fill="#F4F4F4"/>
<path d="M230.72 152.143C221.755 152.143 217.273 147.865 217.273 139.311V43.1582C217.273 38.9395 218.386 35.7754 220.613 33.666C222.898 31.498 226.267 30.4141 230.72 30.4141C239.568 30.4141 244.08 34.5742 244.255 42.8945V88.5098H233.181V42.1914C233.181 40.4922 232.361 39.6426 230.72 39.6426C229.08 39.6426 228.259 40.4922 228.259 42.1914V140.277C228.259 141.977 229.08 142.826 230.72 142.826C232.361 142.826 233.181 141.977 233.181 140.277V94.0469H244.255V139.662C243.962 147.982 239.451 152.143 230.72 152.143Z" fill="#F4F4F4"/>
<path d="M250.45 31.4688H261.261V151H250.45V31.4688Z" fill="#F4F4F4"/>
<path d="M267.455 42.4551C267.455 38.5293 268.598 35.541 270.883 33.4902C273.168 31.4395 276.537 30.4141 280.99 30.4141C285.443 30.4141 288.783 31.498 291.01 33.666C293.295 35.7754 294.438 38.9395 294.438 43.1582V139.311C294.438 147.865 289.955 152.143 280.99 152.143C276.654 152.143 273.432 151.088 271.322 148.979C269.271 146.869 267.982 143.646 267.455 139.311V42.4551ZM278.529 140.277C278.529 141.977 279.35 142.826 280.99 142.826C282.631 142.826 283.451 141.977 283.451 140.277V42.1914C283.451 40.4922 282.631 39.6426 280.99 39.6426C279.35 39.6426 278.529 40.4922 278.529 42.1914V140.277ZM280.199 0.355469L290.043 0.619141L284.594 26.6348H276.684L280.199 0.355469Z" fill="#F4F4F4"/>
<path d="M300.632 31.4688H311.794L313.552 49.8379L318.386 117.514H319.089L316.804 31.4688H326.56V151H315.398L313.552 132.719L308.542 63.6367L307.839 63.5488L310.3 151H300.632V31.4688Z" fill="#F4F4F4"/>
</svg>
