<svg width="470" height="145" viewBox="0 0 470 145" fill="none" xmlns="http://www.w3.org/2000/svg">
<path d="M0.285156 23.4688H20.4121V31.6426H11.1836V80.1582H18.4785V87.0137H11.1836V135.002H20.5V143H0.285156V23.4688Z" fill="#F4F4F4"/>
<path d="M25.1125 23.4688H35.923V134.562H43.218V143H25.1125V23.4688Z" fill="#F4F4F4"/>
<path d="M80.3922 122.697H75.8219L75.2945 143H64.5719L71.6031 23.4688H84.6109L91.7301 143H80.9195L80.3922 122.697ZM80.1285 115.49L78.3707 49.6602H77.8434L76.0855 115.49H80.1285Z" fill="#F4F4F4"/>
<path d="M96.782 23.4688H107.944L109.702 41.8379L114.536 109.514H115.239L112.954 23.4688H122.71V143H111.548L109.702 124.719L104.692 55.6367L103.989 55.5488L106.45 143H96.782V23.4688ZM99.4187 7.73633C99.4187 4.98242 99.9461 3.01953 101.001 1.84766C102.114 0.675781 103.96 0.0898438 106.538 0.0898438C108.589 0.0898438 110.054 0.441406 110.932 1.14453C111.811 1.78906 112.28 2.93164 112.339 4.57227L112.427 12.3066C112.485 13.5371 112.807 14.1523 113.393 14.1523C113.921 14.1523 114.184 13.4199 114.184 11.9551V0.177734H120.337V12.1309C120.337 14.8848 119.78 16.8477 118.667 18.0195C117.612 19.1328 115.796 19.6895 113.218 19.6895C111.225 19.6895 109.761 19.3672 108.823 18.7227C107.944 18.0195 107.475 16.8477 107.417 15.207L107.329 7.47266C107.27 6.24219 106.948 5.62695 106.362 5.62695C105.835 5.62695 105.571 6.35938 105.571 7.82422V19.6016H99.4187V7.73633Z" fill="#F4F4F4"/>
<path d="M128.904 34.4551C128.904 30.5293 130.047 27.541 132.332 25.4902C134.617 23.4395 137.986 22.4141 142.439 22.4141C146.893 22.4141 150.232 23.498 152.459 25.666C154.744 27.7754 155.887 30.9395 155.887 35.1582V131.311C155.887 139.865 151.404 144.143 142.439 144.143C138.104 144.143 134.881 143.088 132.771 140.979C130.721 138.869 129.432 135.646 128.904 131.311V34.4551ZM139.979 132.277C139.979 133.977 140.799 134.826 142.439 134.826C144.08 134.826 144.9 133.977 144.9 132.277V34.1914C144.9 32.4922 144.08 31.6426 142.439 31.6426C140.799 31.6426 139.979 32.4922 139.979 34.1914V132.277Z" fill="#F4F4F4"/>
<path d="M179.526 23.4688H192.534C196.928 23.4688 200.239 24.5234 202.465 26.6328C204.75 28.6836 205.893 31.7598 205.893 35.8613V130.607C205.893 134.709 204.75 137.814 202.465 139.924C200.239 141.975 196.928 143 192.534 143H179.526V23.4688ZM192.446 133.947C193.325 133.947 193.969 133.684 194.379 133.156C194.789 132.629 194.995 131.779 194.995 130.607V35.9492C194.995 34.7188 194.789 33.8398 194.379 33.3125C193.969 32.7852 193.325 32.5215 192.446 32.5215H190.073V133.947H192.446Z" fill="#F4F4F4"/>
<path d="M212.087 23.4688H232.214V31.6426H222.986V80.1582H230.281V87.0137H222.986V135.002H232.302V143H212.087V23.4688Z" fill="#F4F4F4"/>
<path d="M254.359 23.4688H265.17V134.562H272.465V143H254.359V23.4688Z" fill="#F4F4F4"/>
<path d="M292.195 122.697H287.624L287.097 143H276.374L283.405 23.4688H296.413L303.532 143H292.722L292.195 122.697ZM291.931 115.49L290.173 49.6602H289.646L287.888 115.49H291.931Z" fill="#F4F4F4"/>
<path d="M326.029 23.4688H338.597C342.933 23.4688 346.185 24.2891 348.353 25.9297C350.58 27.5703 351.693 30.3535 351.693 34.2793V104.24C351.634 108.166 350.521 110.979 348.353 112.678C346.185 114.377 343.109 115.227 339.125 115.227H336.839V143H326.029V23.4688ZM338.861 107.404C340.56 107.404 341.41 106.408 341.41 104.416V34.543C341.41 32.668 340.531 31.7305 338.773 31.7305H336.4V107.404H338.861Z" fill="#F4F4F4"/>
<path d="M358.063 23.4688H368.874V134.562H376.169V143H358.063V23.4688Z" fill="#F4F4F4"/>
<path d="M395.898 122.697H391.328L390.801 143H380.078L387.109 23.4688H400.117L407.236 143H396.426L395.898 122.697ZM395.635 115.49L393.877 49.6602H393.35L391.592 115.49H395.635Z" fill="#F4F4F4"/>
<path d="M424.241 144.143C419.788 144.143 416.419 143.088 414.134 140.979C411.907 138.811 410.794 135.646 410.794 131.486V35.0703C410.794 30.9102 411.907 27.7754 414.134 25.666C416.419 23.498 419.788 22.4141 424.241 22.4141C433.148 22.4141 437.601 26.252 437.601 33.9277V76.8184L426.702 76.7305V33.4004C426.702 31.7012 425.882 30.8516 424.241 30.8516C422.601 30.8516 421.78 31.7012 421.78 33.4004V133.947C421.78 135.646 422.601 136.496 424.241 136.496C425.355 136.496 426.204 136.262 426.79 135.793V87.541H424.593V80.7734H437.689V140.715C434.349 143 429.866 144.143 424.241 144.143Z" fill="#F4F4F4"/>
<path d="M458.385 122.697H453.815L453.288 143H442.565L449.596 23.4688H462.604L469.723 143H458.913L458.385 122.697ZM458.121 115.49L456.364 49.6602H455.836L454.079 115.49H458.121Z" fill="#F4F4F4"/>
</svg>
