<svg width="527" height="123" viewBox="0 0 527 123" fill="none" xmlns="http://www.w3.org/2000/svg">
<path d="M0.285156 1.46875H20.4121V9.64258H11.1836V58.1582H18.4785V65.0137H11.1836V113.002H20.5V121H0.285156V1.46875Z" fill="#F4F4F4"/>
<path d="M25.1125 1.46875H35.923V112.562H43.218V121H25.1125V1.46875Z" fill="#F4F4F4"/>
<path d="M65.9781 1.46875H78.898C83.2926 1.46875 86.5152 2.23047 88.566 3.75391C90.6168 5.27734 91.6422 7.67969 91.6422 10.9609V53.5C91.6422 57.4844 90.2652 60.1504 87.5113 61.498C90.3824 62.7285 91.818 65.2773 91.818 69.1445V111.508C91.818 114.789 90.7926 117.191 88.7418 118.715C86.7496 120.238 83.527 121 79.0738 121H65.9781V1.46875ZM77.5797 57.8945C80.0992 57.8945 81.359 56.6641 81.359 54.2031V11.752C81.359 9.87695 80.4801 8.93945 78.7223 8.93945H76.3492V57.8945H77.5797ZM78.7223 113.441C80.4801 113.441 81.359 112.533 81.359 110.717V68.4414C81.359 65.9219 80.0992 64.6621 77.5797 64.6621H76.3492V113.441H78.7223Z" fill="#F4F4F4"/>
<path d="M110.845 100.697H106.274L105.747 121H95.0242L102.055 1.46875H115.063L122.182 121H111.372L110.845 100.697ZM110.581 93.4902L108.823 27.6602H108.296L106.538 93.4902H110.581Z" fill="#F4F4F4"/>
<path d="M127.234 1.46875H138.045V121H127.234V1.46875Z" fill="#F4F4F4"/>
<path d="M144.503 1.46875H155.314V112.562H162.609V121H144.503V1.46875Z" fill="#F4F4F4"/>
<path d="M167.924 1.46875H188.051V9.64258H178.823V58.1582H186.118V65.0137H178.823V113.002H188.139V121H167.924V1.46875Z" fill="#F4F4F4"/>
<path d="M210.196 1.46875H223.204C227.598 1.46875 230.909 2.52344 233.136 4.63281C235.421 6.68359 236.563 9.75977 236.563 13.8613V108.607C236.563 112.709 235.421 115.814 233.136 117.924C230.909 119.975 227.598 121 223.204 121H210.196V1.46875ZM223.116 111.947C223.995 111.947 224.639 111.684 225.05 111.156C225.46 110.629 225.665 109.779 225.665 108.607V13.9492C225.665 12.7188 225.46 11.8398 225.05 11.3125C224.639 10.7852 223.995 10.5215 223.116 10.5215H220.743V111.947H223.116Z" fill="#F4F4F4"/>
<path d="M242.758 1.46875H262.885V9.64258H253.656V58.1582H260.951V65.0137H253.656V113.002H262.973V121H242.758V1.46875Z" fill="#F4F4F4"/>
<path d="M285.03 1.46875H295.84V112.562H303.135V121H285.03V1.46875Z" fill="#F4F4F4"/>
<path d="M322.865 100.697H318.295L317.767 121H307.045L314.076 1.46875H327.084L334.203 121H323.392L322.865 100.697ZM322.601 93.4902L320.843 27.6602H320.316L318.558 93.4902H322.601Z" fill="#F4F4F4"/>
<path d="M369.883 122.143C365.43 122.143 362.061 121.088 359.775 118.979C357.549 116.811 356.436 113.646 356.436 109.486V13.0703C356.436 8.91016 357.549 5.77539 359.775 3.66602C362.061 1.49805 365.43 0.414062 369.883 0.414062C378.789 0.414062 383.242 4.25195 383.242 11.9277V54.8184L372.344 54.7305V11.4004C372.344 9.70117 371.523 8.85156 369.883 8.85156C368.242 8.85156 367.422 9.70117 367.422 11.4004V111.947C367.422 113.646 368.242 114.496 369.883 114.496C370.996 114.496 371.846 114.262 372.432 113.793V65.541H370.234V58.7734H383.33V118.715C379.99 121 375.508 122.143 369.883 122.143Z" fill="#F4F4F4"/>
<path d="M404.027 100.697H399.456L398.929 121H388.206L395.237 1.46875H408.245L415.364 121H404.554L404.027 100.697ZM403.763 93.4902L402.005 27.6602H401.478L399.72 93.4902H403.763Z" fill="#F4F4F4"/>
<path d="M432.37 122.143C423.405 122.143 418.922 117.865 418.922 109.311V13.1582C418.922 8.93945 420.036 5.77539 422.262 3.66602C424.547 1.49805 427.916 0.414062 432.37 0.414062C441.217 0.414062 445.729 4.57422 445.905 12.8945V58.5098H434.83V12.1914C434.83 10.4922 434.01 9.64258 432.37 9.64258C430.729 9.64258 429.909 10.4922 429.909 12.1914V110.277C429.909 111.977 430.729 112.826 432.37 112.826C434.01 112.826 434.83 111.977 434.83 110.277V64.0469H445.905V109.662C445.612 117.982 441.1 122.143 432.37 122.143Z" fill="#F4F4F4"/>
<path d="M452.099 1.46875H472.226V9.64258H462.998V58.1582H470.293V65.0137H462.998V113.002H472.314V121H452.099V1.46875Z" fill="#F4F4F4"/>
<path d="M476.927 1.46875H487.737V112.562H495.032V121H476.927V1.46875Z" fill="#F4F4F4"/>
<path d="M514.762 100.697H510.191L509.664 121H498.941L505.973 1.46875H518.98L526.1 121H515.289L514.762 100.697ZM514.498 93.4902L512.74 27.6602H512.213L510.455 93.4902H514.498Z" fill="#F4F4F4"/>
</svg>
