<svg width="132" height="120" viewBox="0 0 132 120" fill="none" xmlns="http://www.w3.org/2000/svg">
<path d="M0.285156 0.46875H19.8848V8.64258H11.0957V61.1133H18.4785V69.1992H11.0957V120H0.285156V0.46875Z" fill="#F4F4F4"/>
<path d="M25.6398 0.46875H45.7668V8.64258H36.5383V57.1582H43.8332V64.0137H36.5383V112.002H45.8547V120H25.6398V0.46875Z" fill="#F4F4F4"/>
<path d="M76.1312 62.959C76.1312 66.4746 75.1352 69.1406 73.143 70.957L76.1312 120H65.7602L64.0902 73.6816H60.8383V120H50.4672V0.46875H63.0355C67.3715 0.46875 70.6234 1.28906 72.7914 2.92969C75.018 4.57031 76.1312 7.35352 76.1312 11.2793V62.959ZM63.2992 66.4746C64.9984 66.4746 65.848 65.3613 65.848 63.1348V11.543C65.848 9.66797 64.9691 8.73047 63.2113 8.73047H60.8383V66.4746H63.2992Z" fill="#F4F4F4"/>
<path d="M96.7398 99.6973H92.1695L91.6422 120H80.9195L87.9508 0.46875H100.959L108.078 120H97.2672L96.7398 99.6973ZM96.4762 92.4902L94.7184 26.6602H94.191L92.4332 92.4902H96.4762Z" fill="#F4F4F4"/>
<path d="M113.13 0.46875H123.94V111.562H131.235V120H113.13V0.46875Z" fill="#F4F4F4"/>
</svg>
