<svg width="724" height="153" viewBox="0 0 724 153" fill="none" xmlns="http://www.w3.org/2000/svg">
<path d="M0.285156 31.4688H19.8848V39.6426H11.0957V92.1133H18.4785V100.199H11.0957V151H0.285156V31.4688Z" fill="#F4F4F4"/>
<path d="M25.6398 31.4688H36.4504V151H25.6398V31.4688Z" fill="#F4F4F4"/>
<path d="M56.0922 152.143C47.1273 152.143 42.6449 147.865 42.6449 139.311V43.1582C42.6449 38.9395 43.7582 35.7754 45.9848 33.666C48.2699 31.498 51.6391 30.4141 56.0922 30.4141C64.9398 30.4141 69.4516 34.5742 69.6273 42.8945V88.5098H58.5531V42.1914C58.5531 40.4922 57.7328 39.6426 56.0922 39.6426C54.4516 39.6426 53.6312 40.4922 53.6312 42.1914V140.277C53.6312 141.977 54.4516 142.826 56.0922 142.826C57.7328 142.826 58.5531 141.977 58.5531 140.277V94.0469H69.6273V139.662C69.3344 147.982 64.8227 152.143 56.0922 152.143Z" fill="#F4F4F4"/>
<path d="M88.8297 152.143C84.3766 152.143 81.0074 151.088 78.7223 148.979C76.4957 146.811 75.3824 143.646 75.3824 139.486V43.0703C75.3824 38.9102 76.4957 35.7754 78.7223 33.666C81.0074 31.498 84.3766 30.4141 88.8297 30.4141C97.7359 30.4141 102.189 34.252 102.189 41.9277V84.8184L91.2906 84.7305V41.4004C91.2906 39.7012 90.4703 38.8516 88.8297 38.8516C87.1891 38.8516 86.3688 39.7012 86.3688 41.4004V141.947C86.3688 143.646 87.1891 144.496 88.8297 144.496C89.943 144.496 90.7926 144.262 91.3785 143.793V95.541H89.1813V88.7734H102.277V148.715C98.9371 151 94.4547 152.143 88.8297 152.143Z" fill="#F4F4F4"/>
<path d="M126.004 31.4688H146.131V39.6426H136.902V88.1582H144.197V95.0137H136.902V143.002H146.219V151H126.004V31.4688Z" fill="#F4F4F4"/>
<path d="M150.831 31.4688H163.839C168.234 31.4688 171.544 32.5234 173.771 34.6328C176.056 36.6836 177.198 39.7598 177.198 43.8613V138.607C177.198 142.709 176.056 145.814 173.771 147.924C171.544 149.975 168.234 151 163.839 151H150.831V31.4688ZM163.751 141.947C164.63 141.947 165.275 141.684 165.685 141.156C166.095 140.629 166.3 139.779 166.3 138.607V43.9492C166.3 42.7188 166.095 41.8398 165.685 41.3125C165.275 40.7852 164.63 40.5215 163.751 40.5215H161.378V141.947H163.751Z" fill="#F4F4F4"/>
<path d="M183.393 31.4688H194.204V151H183.393V31.4688Z" fill="#F4F4F4"/>
<path d="M213.845 152.143C204.88 152.143 200.398 147.865 200.398 139.311V43.1582C200.398 38.9395 201.511 35.7754 203.738 33.666C206.023 31.498 209.392 30.4141 213.845 30.4141C222.693 30.4141 227.205 34.5742 227.38 42.8945V88.5098H216.306V42.1914C216.306 40.4922 215.486 39.6426 213.845 39.6426C212.205 39.6426 211.384 40.4922 211.384 42.1914V140.277C211.384 141.977 212.205 142.826 213.845 142.826C215.486 142.826 216.306 141.977 216.306 140.277V94.0469H227.38V139.662C227.087 147.982 222.576 152.143 213.845 152.143Z" fill="#F4F4F4"/>
<path d="M233.575 31.4688H244.386V151H233.575V31.4688Z" fill="#F4F4F4"/>
<path d="M250.58 42.4551C250.58 38.5293 251.723 35.541 254.008 33.4902C256.293 31.4395 259.662 30.4141 264.115 30.4141C268.568 30.4141 271.908 31.498 274.135 33.666C276.42 35.7754 277.562 38.9395 277.562 43.1582V139.311C277.562 147.865 273.08 152.143 264.115 152.143C259.779 152.143 256.557 151.088 254.447 148.979C252.396 146.869 251.107 143.646 250.58 139.311V42.4551ZM261.654 140.277C261.654 141.977 262.475 142.826 264.115 142.826C265.756 142.826 266.576 141.977 266.576 140.277V42.1914C266.576 40.4922 265.756 39.6426 264.115 39.6426C262.475 39.6426 261.654 40.4922 261.654 42.1914V140.277ZM263.324 0.355469L273.168 0.619141L267.719 26.6348H259.809L263.324 0.355469Z" fill="#F4F4F4"/>
<path d="M283.757 31.4688H294.919L296.677 49.8379L301.511 117.514H302.214L299.929 31.4688H309.685V151H298.523L296.677 132.719L291.667 63.6367L290.964 63.5488L293.425 151H283.757V31.4688Z" fill="#F4F4F4"/>
<path d="M336.752 40.1699H331.83V31.4688H352.572V40.1699H347.562V151H336.752V40.1699Z" fill="#F4F4F4"/>
<path d="M382.848 93.959C382.848 97.4746 381.852 100.141 379.86 101.957L382.848 151H372.477L370.807 104.682H367.555V151H357.184V31.4688H369.753C374.089 31.4688 377.341 32.2891 379.509 33.9297C381.735 35.5703 382.848 38.3535 382.848 42.2793V93.959ZM370.016 97.4746C371.716 97.4746 372.565 96.3613 372.565 94.1348V42.543C372.565 40.668 371.686 39.7305 369.929 39.7305H367.555V97.4746H370.016Z" fill="#F4F4F4"/>
<path d="M389.043 31.4688H409.17V39.6426H399.941V88.1582H407.236V95.0137H399.941V143.002H409.258V151H389.043V31.4688Z" fill="#F4F4F4"/>
<path d="M413.87 31.4688H424.681V151H413.87V31.4688Z" fill="#F4F4F4"/>
<path d="M431.139 31.4688H442.301L444.059 49.8379L448.893 117.514H449.596L447.311 31.4688H457.067V151H445.905L444.059 132.719L439.049 63.6367L438.346 63.5488L440.807 151H431.139V31.4688Z" fill="#F4F4F4"/>
<path d="M466.689 40.1699H461.767V31.4688H482.509V40.1699H477.5V151H466.689V40.1699Z" fill="#F4F4F4"/>
<path d="M498.723 130.697H494.153L493.626 151H482.903L489.934 31.4688H502.942L510.061 151H499.251L498.723 130.697ZM498.46 123.49L496.702 57.6602H496.175L494.417 123.49H498.46Z" fill="#F4F4F4"/>
<path d="M539.677 113.559L531.239 31.4688H542.138L544.775 94.8379L545.302 94.75L547.763 31.4688H558.749L550.487 113.559V151H539.677V113.559Z" fill="#F4F4F4"/>
<path d="M594.517 152.143C585.552 152.143 581.07 147.865 581.07 139.311V43.1582C581.07 38.9395 582.183 35.7754 584.41 33.666C586.695 31.498 590.064 30.4141 594.517 30.4141C603.365 30.4141 607.877 34.5742 608.052 42.8945V88.5098H596.978V42.1914C596.978 40.4922 596.158 39.6426 594.517 39.6426C592.877 39.6426 592.056 40.4922 592.056 42.1914V140.277C592.056 141.977 592.877 142.826 594.517 142.826C596.158 142.826 596.978 141.977 596.978 140.277V94.0469H608.052V139.662C607.759 147.982 603.248 152.143 594.517 152.143Z" fill="#F4F4F4"/>
<path d="M614.247 31.4688H625.057V151H614.247V31.4688Z" fill="#F4F4F4"/>
<path d="M631.516 31.4688H642.678L644.436 49.8379L649.27 117.514H649.973L647.688 31.4688H657.443V151H646.281L644.436 132.719L639.426 63.6367L638.723 63.5488L641.184 151H631.516V31.4688Z" fill="#F4F4F4"/>
<path d="M677.085 152.143C668.12 152.143 663.638 147.865 663.638 139.311V43.1582C663.638 38.9395 664.751 35.7754 666.978 33.666C669.263 31.498 672.632 30.4141 677.085 30.4141C685.933 30.4141 690.445 34.5742 690.62 42.8945V88.5098H679.546V42.1914C679.546 40.4922 678.726 39.6426 677.085 39.6426C675.445 39.6426 674.624 40.4922 674.624 42.1914V140.277C674.624 141.977 675.445 142.826 677.085 142.826C678.726 142.826 679.546 141.977 679.546 140.277V94.0469H690.62V139.662C690.327 147.982 685.816 152.143 677.085 152.143Z" fill="#F4F4F4"/>
<path d="M696.375 42.4551C696.375 38.5293 697.518 35.541 699.803 33.4902C702.088 31.4395 705.457 30.4141 709.911 30.4141C714.364 30.4141 717.703 31.498 719.93 33.666C722.215 35.7754 723.358 38.9395 723.358 43.1582V139.311C723.358 147.865 718.875 152.143 709.911 152.143C705.575 152.143 702.352 151.088 700.243 148.979C698.192 146.869 696.903 143.646 696.375 139.311V42.4551ZM707.45 140.277C707.45 141.977 708.27 142.826 709.911 142.826C711.551 142.826 712.371 141.977 712.371 140.277V42.1914C712.371 40.4922 711.551 39.6426 709.911 39.6426C708.27 39.6426 707.45 40.4922 707.45 42.1914V140.277Z" fill="#F4F4F4"/>
</svg>
