<svg width="248" height="123" viewBox="0 0 248 123" fill="none" xmlns="http://www.w3.org/2000/svg">
<path d="M0.285156 1.46875H14.1719L18.5664 91.6445H19.0938L23.6641 1.46875H37.5508V121H27.8828L29.6406 33.2852H28.9375L22.873 121H14.875L8.45898 33.1973H7.75586L9.95312 121H0.285156V1.46875Z" fill="#F4F4F4"/>
<path d="M58.3352 100.697H53.7648L53.2375 121H42.5148L49.5461 1.46875H62.5539L69.673 121H58.8625L58.3352 100.697ZM58.0715 93.4902L56.3137 27.6602H55.7863L54.0285 93.4902H58.0715Z" fill="#F4F4F4"/>
<path d="M74.725 1.46875H85.5355V112.562H92.8305V121H74.725V1.46875Z" fill="#F4F4F4"/>
<path d="M112.56 100.697H107.99L107.463 121H96.7398L103.771 1.46875H116.779L123.898 121H113.088L112.56 100.697ZM112.296 93.4902L110.539 27.6602H110.011L108.254 93.4902H112.296Z" fill="#F4F4F4"/>
<path d="M140.903 122.143C131.938 122.143 127.456 117.865 127.456 109.311V13.1582C127.456 8.93945 128.569 5.77539 130.796 3.66602C133.081 1.49805 136.45 0.414062 140.903 0.414062C149.751 0.414062 154.262 4.57422 154.438 12.8945V58.5098H143.364V12.1914C143.364 10.4922 142.544 9.64258 140.903 9.64258C139.262 9.64258 138.442 10.4922 138.442 12.1914V110.277C138.442 111.977 139.262 112.826 140.903 112.826C142.544 112.826 143.364 111.977 143.364 110.277V64.0469H154.438V109.662C154.145 117.982 149.634 122.143 140.903 122.143Z" fill="#F4F4F4"/>
<path d="M160.193 12.4551C160.193 8.5293 161.336 5.54102 163.621 3.49023C165.906 1.43945 169.275 0.414062 173.729 0.414062C178.182 0.414062 181.521 1.49805 183.748 3.66602C186.033 5.77539 187.176 8.93945 187.176 13.1582V109.311C187.176 117.865 182.693 122.143 173.729 122.143C169.393 122.143 166.17 121.088 164.061 118.979C162.01 116.869 160.721 113.646 160.193 109.311V12.4551ZM171.268 110.277C171.268 111.977 172.088 112.826 173.729 112.826C175.369 112.826 176.189 111.977 176.189 110.277V12.1914C176.189 10.4922 175.369 9.64258 173.729 9.64258C172.088 9.64258 171.268 10.4922 171.268 12.1914V110.277Z" fill="#F4F4F4"/>
<path d="M193.37 1.46875H205.939C210.275 1.46875 213.527 2.28906 215.695 3.92969C217.921 5.57031 219.034 8.35352 219.034 12.2793V82.2402C218.976 86.166 217.863 88.9785 215.695 90.6777C213.527 92.377 210.45 93.2266 206.466 93.2266H204.181V121H193.37V1.46875ZM206.202 85.4043C207.902 85.4043 208.751 84.4082 208.751 82.416V12.543C208.751 10.668 207.872 9.73047 206.114 9.73047H203.741V85.4043H206.202Z" fill="#F4F4F4"/>
<path d="M236.303 100.697H231.733L231.205 121H220.483L227.514 1.46875H240.522L247.641 121H236.83L236.303 100.697ZM236.039 93.4902L234.282 27.6602H233.754L231.996 93.4902H236.039Z" fill="#F4F4F4"/>
</svg>
