<svg width="496" height="66" viewBox="0 0 496 66" fill="none" xmlns="http://www.w3.org/2000/svg">
<path d="M33.9199 0.983398H39.873L40.8105 10.7803L43.3887 46.874H43.7637L42.5449 0.983398H47.748V64.7334H41.7949L40.8105 54.9834L38.1387 18.1396L37.7637 18.0928L39.0762 64.7334H33.9199V0.983398Z" fill="white"/>
<path d="M61.5949 65.3428C57.1887 65.3428 54.9855 63.4209 54.9855 59.5771V14.8115H60.2824V59.624C60.2824 60.5928 60.7199 61.0771 61.5949 61.0771C62.4699 61.0771 62.9074 60.5928 62.9074 59.624V14.8115H68.1574V59.6709C68.1574 63.4521 65.9699 65.3428 61.5949 65.3428Z" fill="white"/>
<path d="M80.6449 41.2959V60.5146C80.6449 61.4209 81.0824 61.874 81.9574 61.874C82.8324 61.874 83.2699 61.4209 83.2699 60.5146V43.9209H88.4262V60.4209C87.9887 63.7021 85.8324 65.3428 81.9574 65.3428C79.7699 65.3428 78.1137 64.8428 76.9887 63.8428C75.8637 62.8115 75.3012 61.2959 75.3012 59.2959V20.1553C75.3012 18.1553 75.8637 16.6553 76.9887 15.6553C78.1137 14.624 79.7699 14.1084 81.9574 14.1084C84.1449 14.1084 85.8012 14.6084 86.9262 15.6084C88.0512 16.6084 88.6137 18.0771 88.6137 20.0146L88.5199 41.2959H80.6449ZM81.9574 17.8584C81.0824 17.8584 80.6449 18.3115 80.6449 19.2178V38.0146H83.2699V19.2178C83.2699 18.3115 82.8324 17.8584 81.9574 17.8584Z" fill="white"/>
<path d="M102.132 65.3428C99.9137 65.3428 98.2887 64.8584 97.2574 63.8896C96.2262 62.9209 95.7105 61.749 95.7105 60.374V47.3896L100.726 47.4834V60.374C100.726 60.749 100.82 61.0615 101.007 61.3115C101.226 61.5303 101.554 61.6396 101.992 61.6396C102.429 61.6396 102.757 61.5303 102.976 61.3115C103.226 61.0615 103.351 60.749 103.351 60.374C103.351 59.2803 103.273 56.9834 103.117 53.4834L102.976 50.2021C102.882 47.9209 102.586 46.0615 102.086 44.624C101.586 43.1865 100.836 41.5615 99.8355 39.749C98.9605 38.1553 98.2418 36.7021 97.6793 35.3896C97.148 34.0771 96.6949 32.3428 96.3199 30.1865C95.9449 28.0303 95.7574 25.374 95.7574 22.2178V19.2646C95.7574 17.6709 96.2887 16.4365 97.3512 15.5615C98.4449 14.6865 99.9449 14.249 101.851 14.249C103.82 14.249 105.351 14.7021 106.445 15.6084C107.57 16.4834 108.132 17.6865 108.132 19.2178V30.2803L103.257 30.2334V19.124C103.257 18.8428 103.148 18.5771 102.929 18.3271C102.711 18.0459 102.382 17.9053 101.945 17.9053C101.507 17.9053 101.179 18.0459 100.961 18.3271C100.742 18.5771 100.632 18.8428 100.632 19.124C100.632 21.7178 100.773 24.0459 101.054 26.1084C101.336 28.9834 101.742 31.1396 102.273 32.5771C102.804 33.9834 103.523 35.374 104.429 36.749C105.273 37.999 105.945 39.249 106.445 40.499C106.976 41.7178 107.414 43.624 107.757 46.2178C108.101 48.7803 108.273 52.249 108.273 56.624V60.4678C108.273 61.9365 107.695 63.124 106.539 64.0303C105.414 64.9053 103.945 65.3428 102.132 65.3428Z" fill="white"/>
<path d="M121.042 64.7334C119.448 64.7334 118.182 64.2646 117.245 63.3271C116.307 62.3584 115.839 61.0146 115.839 59.2959V19.0771H114.292V15.2803L115.932 14.3896L117.245 3.4209H121.511V14.8115H124.182V19.0771H121.511V58.9209C121.511 59.3584 121.636 59.7178 121.886 59.999C122.136 60.2803 122.479 60.4209 122.917 60.4209H124.136V64.7334H121.042Z" fill="white"/>
<path d="M129.826 14.8115H134.467L135.217 16.6396C135.779 15.0771 136.623 14.2959 137.748 14.2959C138.373 14.2959 138.889 14.4053 139.295 14.624V18.9365C139.139 18.8428 138.904 18.7646 138.592 18.7021C138.311 18.6396 138.045 18.6084 137.795 18.6084C136.264 18.6084 135.498 19.4209 135.498 21.0459V64.7334H129.826V14.8115Z" fill="white"/>
<path d="M151.642 65.3428C147.204 65.3428 144.986 63.3584 144.986 59.3896V20.0615C144.986 16.0928 147.204 14.1084 151.642 14.1084C156.079 14.1084 158.298 16.0928 158.298 20.0615V59.3896C158.298 63.3584 156.079 65.3428 151.642 65.3428ZM151.642 61.0771C152.517 61.0771 152.954 60.5928 152.954 59.624V19.874C152.954 18.874 152.517 18.374 151.642 18.374C150.767 18.374 150.329 18.874 150.329 19.874V59.624C150.329 60.5928 150.767 61.0771 151.642 61.0771Z" fill="white"/>
<path d="M171.77 65.3428C169.551 65.3428 167.926 64.8584 166.895 63.8896C165.864 62.9209 165.348 61.749 165.348 60.374V47.3896L170.364 47.4834V60.374C170.364 60.749 170.457 61.0615 170.645 61.3115C170.864 61.5303 171.192 61.6396 171.629 61.6396C172.067 61.6396 172.395 61.5303 172.614 61.3115C172.864 61.0615 172.989 60.749 172.989 60.374C172.989 59.2803 172.911 56.9834 172.754 53.4834L172.614 50.2021C172.52 47.9209 172.223 46.0615 171.723 44.624C171.223 43.1865 170.473 41.5615 169.473 39.749C168.598 38.1553 167.879 36.7021 167.317 35.3896C166.786 34.0771 166.332 32.3428 165.957 30.1865C165.582 28.0303 165.395 25.374 165.395 22.2178V19.2646C165.395 17.6709 165.926 16.4365 166.989 15.5615C168.082 14.6865 169.582 14.249 171.489 14.249C173.457 14.249 174.989 14.7021 176.082 15.6084C177.207 16.4834 177.77 17.6865 177.77 19.2178V30.2803L172.895 30.2334V19.124C172.895 18.8428 172.786 18.5771 172.567 18.3271C172.348 18.0459 172.02 17.9053 171.582 17.9053C171.145 17.9053 170.817 18.0459 170.598 18.3271C170.379 18.5771 170.27 18.8428 170.27 19.124C170.27 21.7178 170.411 24.0459 170.692 26.1084C170.973 28.9834 171.379 31.1396 171.911 32.5771C172.442 33.9834 173.161 35.374 174.067 36.749C174.911 37.999 175.582 39.249 176.082 40.499C176.614 41.7178 177.051 43.624 177.395 46.2178C177.739 48.7803 177.911 52.249 177.911 56.624V60.4678C177.911 61.9365 177.332 63.124 176.176 64.0303C175.051 64.9053 173.582 65.3428 171.77 65.3428Z" fill="white"/>
<path d="M198.245 0.983398H204.948C207.261 0.983398 208.995 1.4209 210.151 2.2959C211.339 3.1709 211.932 4.65527 211.932 6.74902V44.0615C211.901 46.1553 211.307 47.6553 210.151 48.5615C208.995 49.4678 207.354 49.9209 205.229 49.9209H204.011V64.7334H198.245V0.983398ZM205.089 45.749C205.995 45.749 206.448 45.2178 206.448 44.1553V6.88965C206.448 5.88965 205.979 5.38965 205.042 5.38965H203.776V45.749H205.089Z" fill="white"/>
<path d="M219.17 14.8115H223.811L224.561 16.6396C225.123 15.0771 225.967 14.2959 227.092 14.2959C227.717 14.2959 228.232 14.4053 228.639 14.624V18.9365C228.482 18.8428 228.248 18.7646 227.936 18.7021C227.654 18.6396 227.389 18.6084 227.139 18.6084C225.607 18.6084 224.842 19.4209 224.842 21.0459V64.7334H219.17V14.8115Z" fill="white"/>
<path d="M239.626 41.2959V60.5146C239.626 61.4209 240.064 61.874 240.939 61.874C241.814 61.874 242.251 61.4209 242.251 60.5146V43.9209H247.407V60.4209C246.97 63.7021 244.814 65.3428 240.939 65.3428C238.751 65.3428 237.095 64.8428 235.97 63.8428C234.845 62.8115 234.282 61.2959 234.282 59.2959V20.1553C234.282 18.1553 234.845 16.6553 235.97 15.6553C237.095 14.624 238.751 14.1084 240.939 14.1084C243.126 14.1084 244.782 14.6084 245.907 15.6084C247.032 16.6084 247.595 18.0771 247.595 20.0146L247.501 41.2959H239.626ZM240.939 17.8584C240.064 17.8584 239.626 18.3115 239.626 19.2178V38.0146H242.251V19.2178C242.251 18.3115 241.814 17.8584 240.939 17.8584Z" fill="white"/>
<path d="M271.989 14.1553C274.676 14.1553 276.02 16.0771 276.02 19.9209V64.7334H270.676V19.9678C270.676 18.874 270.317 18.3271 269.598 18.3271C268.567 18.3271 268.051 18.8896 268.051 20.0146V64.7334H262.707V19.9678C262.707 18.874 262.317 18.3271 261.536 18.3271C260.567 18.3271 260.082 19.0459 260.082 20.4834V64.7334H254.832V14.8115H259.567L260.223 16.7334C260.942 15.0146 262.207 14.1553 264.02 14.1553C265.832 14.1553 267.02 15.0146 267.582 16.7334C268.332 15.0146 269.801 14.1553 271.989 14.1553Z" fill="white"/>
<path d="M286.07 13.3115C285.132 13.3115 284.461 13.2021 284.054 12.9834C283.679 12.7646 283.414 12.2803 283.257 11.5303C283.101 10.749 283.023 9.4209 283.023 7.5459C283.023 5.63965 283.101 4.2959 283.257 3.51465C283.414 2.70215 283.679 2.18652 284.054 1.96777C284.461 1.74902 285.148 1.63965 286.117 1.63965C287.054 1.63965 287.711 1.74902 288.086 1.96777C288.492 2.18652 288.773 2.70215 288.929 3.51465C289.086 4.2959 289.164 5.63965 289.164 7.5459C289.164 9.4209 289.086 10.749 288.929 11.5303C288.773 12.2803 288.492 12.7646 288.086 12.9834C287.711 13.2021 287.039 13.3115 286.07 13.3115ZM283.257 14.9053C284.195 14.999 285.101 15.0459 285.976 15.0459C287.039 15.0459 288.023 14.999 288.929 14.9053V64.7334H283.257V14.9053Z" fill="white"/>
<path d="M302.823 65.3428C298.386 65.3428 296.167 63.3584 296.167 59.3896V20.0615C296.167 16.0928 298.386 14.1084 302.823 14.1084C307.261 14.1084 309.479 16.0928 309.479 20.0615V59.3896C309.479 63.3584 307.261 65.3428 302.823 65.3428ZM302.823 61.0771C303.698 61.0771 304.136 60.5928 304.136 59.624V19.874C304.136 18.874 303.698 18.374 302.823 18.374C301.948 18.374 301.511 18.874 301.511 19.874V59.624C301.511 60.5928 301.948 61.0771 302.823 61.0771Z" fill="white"/>
<path d="M322.951 65.3428C320.732 65.3428 319.107 64.8584 318.076 63.8896C317.045 62.9209 316.529 61.749 316.529 60.374V47.3896L321.545 47.4834V60.374C321.545 60.749 321.639 61.0615 321.826 61.3115C322.045 61.5303 322.373 61.6396 322.811 61.6396C323.248 61.6396 323.576 61.5303 323.795 61.3115C324.045 61.0615 324.17 60.749 324.17 60.374C324.17 59.2803 324.092 56.9834 323.936 53.4834L323.795 50.2021C323.701 47.9209 323.404 46.0615 322.904 44.624C322.404 43.1865 321.654 41.5615 320.654 39.749C319.779 38.1553 319.061 36.7021 318.498 35.3896C317.967 34.0771 317.514 32.3428 317.139 30.1865C316.764 28.0303 316.576 25.374 316.576 22.2178V19.2646C316.576 17.6709 317.107 16.4365 318.17 15.5615C319.264 14.6865 320.764 14.249 322.67 14.249C324.639 14.249 326.17 14.7021 327.264 15.6084C328.389 16.4834 328.951 17.6865 328.951 19.2178V30.2803L324.076 30.2334V19.124C324.076 18.8428 323.967 18.5771 323.748 18.3271C323.529 18.0459 323.201 17.9053 322.764 17.9053C322.326 17.9053 321.998 18.0459 321.779 18.3271C321.561 18.5771 321.451 18.8428 321.451 19.124C321.451 21.7178 321.592 24.0459 321.873 26.1084C322.154 28.9834 322.561 31.1396 323.092 32.5771C323.623 33.9834 324.342 35.374 325.248 36.749C326.092 37.999 326.764 39.249 327.264 40.499C327.795 41.7178 328.232 43.624 328.576 46.2178C328.92 48.7803 329.092 52.249 329.092 56.624V60.4678C329.092 61.9365 328.514 63.124 327.357 64.0303C326.232 64.9053 324.764 65.3428 322.951 65.3428Z" fill="white"/>
<path d="M354.676 41.2959V60.5146C354.676 61.4209 355.114 61.874 355.989 61.874C356.864 61.874 357.301 61.4209 357.301 60.5146V43.9209H362.457V60.4209C362.02 63.7021 359.864 65.3428 355.989 65.3428C353.801 65.3428 352.145 64.8428 351.02 63.8428C349.895 62.8115 349.332 61.2959 349.332 59.2959V20.1553C349.332 18.1553 349.895 16.6553 351.02 15.6553C352.145 14.624 353.801 14.1084 355.989 14.1084C358.176 14.1084 359.832 14.6084 360.957 15.6084C362.082 16.6084 362.645 18.0771 362.645 20.0146L362.551 41.2959H354.676ZM355.989 17.8584C355.114 17.8584 354.676 18.3115 354.676 19.2178V38.0146H357.301V19.2178C357.301 18.3115 356.864 17.8584 355.989 17.8584Z" fill="white"/>
<path d="M369.882 14.8115H374.617L375.273 16.7334C375.992 15.0146 377.257 14.1553 379.07 14.1553C380.445 14.1553 381.461 14.6396 382.117 15.6084C382.773 16.5771 383.101 18.0459 383.101 20.0146V64.7334H377.757V20.0615C377.757 19.4365 377.664 18.999 377.476 18.749C377.289 18.4678 376.992 18.3271 376.586 18.3271C375.617 18.3271 375.132 19.0771 375.132 20.5771V64.7334H369.882V14.8115Z" fill="white"/>
<path d="M398.752 61.1494C398.752 58.2724 398.903 55.6149 399.205 53.1768C399.524 50.7387 399.911 48.5444 400.364 46.594C400.818 44.6435 401.414 42.3517 402.153 39.7185C402.909 36.9879 403.506 34.6717 403.943 32.77C404.396 30.8683 404.774 28.6984 405.076 26.2603C405.396 23.7734 405.555 21.0915 405.555 18.2145C405.555 16.5079 405.471 15.1913 405.303 14.2648C405.135 13.2896 404.833 12.802 404.396 12.802C403.674 12.802 403.313 14.6793 403.313 18.434V26.114H398.752L398.701 22.2374C398.701 17.4587 398.869 13.5334 399.205 10.4614C399.541 7.3894 400.129 5.04883 400.969 3.43968C401.809 1.83054 402.968 1.02597 404.446 1.02597C406.261 1.02597 407.664 2.51321 408.655 5.48768C409.646 8.4134 410.141 12.5825 410.141 17.9951C410.141 21.4572 409.973 24.6024 409.637 27.4305C409.318 30.21 408.915 32.6481 408.428 34.7448C407.958 36.8416 407.328 39.3041 406.538 42.1323C405.967 44.1315 405.488 45.9113 405.102 47.4717C404.732 49.0321 404.396 50.6412 404.094 52.2991H409.99V64.1483H398.752V61.1494Z" fill="white"/>
<path d="M420.451 64.7334C418.62 64.7334 417.209 63.2462 416.218 60.2717C415.227 57.2484 414.731 52.9574 414.731 47.3985V19.0191C414.731 13.0702 415.21 8.5353 416.167 5.41454C417.125 2.29378 418.553 0.733398 420.451 0.733398C422.366 0.733398 423.803 2.29378 424.76 5.41454C425.718 8.5353 426.197 13.0702 426.197 19.0191V47.3985C426.197 53.0062 425.701 57.2972 424.71 60.2717C423.719 63.2462 422.299 64.7334 420.451 64.7334ZM420.451 53.1768C420.77 53.1768 421.031 52.7624 421.232 51.9334C421.434 51.0557 421.535 50.0317 421.535 48.8614V17.8488C421.535 16.0446 421.459 14.6793 421.308 13.7528C421.174 12.7776 420.888 12.29 420.451 12.29C420.014 12.29 419.729 12.7776 419.594 13.7528C419.46 14.6793 419.393 16.0446 419.393 17.8488V48.8614C419.393 50.0317 419.485 51.0557 419.67 51.9334C419.872 52.7624 420.132 53.1768 420.451 53.1768Z" fill="white"/>
<path d="M433.432 15.7277C433.147 16.7517 432.743 17.5806 432.223 18.2145C431.719 18.8484 431.231 19.1654 430.761 19.1654V9.14483C431.5 8.80349 432.231 7.95016 432.953 6.58483C433.692 5.21949 434.222 3.43968 434.541 1.2454H438.018V64.1483H433.432V15.7277Z" fill="white"/>
<path d="M448.729 64.7334C447.788 64.7334 446.923 64.2702 446.134 63.3437C445.361 62.3684 444.739 60.9543 444.269 59.1014C443.799 57.2484 443.563 55.0054 443.563 52.3723V45.6431H447.721V46.8865C447.721 48.9833 447.788 50.6412 447.923 51.8603C448.057 53.0793 448.351 53.6888 448.805 53.6888C449.275 53.6888 449.603 53.3231 449.787 52.5917C449.989 51.8115 450.09 50.6656 450.09 49.154V36.5734C449.888 37.6949 449.577 38.597 449.157 39.2797C448.737 39.9623 448.242 40.3037 447.671 40.3037C446.495 40.3037 445.579 39.621 444.924 38.2557C444.286 36.8903 443.841 34.8667 443.589 32.1848C443.337 29.5029 443.211 25.9677 443.211 21.5791C443.211 14.8987 443.647 9.75435 444.521 6.14597C445.394 2.53759 446.839 0.733398 448.855 0.733398C450.333 0.733398 451.501 1.46483 452.358 2.92769C453.214 4.39054 453.819 6.58483 454.172 9.51054C454.525 12.4363 454.701 16.2397 454.701 20.9208V37.89C454.701 44.3753 454.567 49.4953 454.298 53.25C454.029 56.9559 453.466 59.8084 452.61 61.8077C451.753 63.7582 450.459 64.7334 448.729 64.7334ZM448.956 29.186C449.712 29.186 450.09 27.6987 450.09 24.7243V16.898C450.09 13.826 449.729 12.29 449.006 12.29C448.553 12.29 448.259 12.8264 448.124 13.8991C448.007 14.9231 447.948 16.6054 447.948 18.946V24.066C447.948 27.4793 448.284 29.186 448.956 29.186Z" fill="white"/>
<path d="M23.0717 0.735711C23.0717 0.735711 22.4636 6.36292 18.2382 6.48621C17.1515 3.87955 20.7334 0.634439 23.0717 0.735711Z" fill="white"/>
<path d="M15.8808 10.9185C15.8808 10.9185 15.8084 7.49014 21.5738 9.05064C22.2385 9.90473 17.165 12.7464 15.8808 10.9185Z" fill="white"/>
<path d="M14.6665 2.89061C14.6665 2.89061 17.4228 7.21274 14.6297 9.54321C11.8367 11.8737 13.1827 6.07642 14.6665 2.89061Z" fill="white"/>
<path d="M19.4762 14.5233C19.4762 14.5233 15.1087 17.8421 13.0308 15.9933C12.6272 14.1634 16.9308 12.6783 19.4762 14.5233Z" fill="white"/>
<path d="M11.1377 7.20551C11.1377 7.20551 13.8567 12.7248 10.9233 14.2039C7.99001 15.6829 10.0259 8.19155 11.1377 7.20551Z" fill="white"/>
<path d="M17.3756 7.06046C17.3756 7.06046 18.7718 5.62785 17.556 7.28847C14.3126 11.7111 5.4329 24.4066 7.1255 37.1538C9.2348 52.9082 18.0458 60.0369 23.072 64.3863C22.9345 64.8553 22.6424 64.7133 22.6424 64.7133C22.6424 64.7133 8.46583 55.2185 6.53266 36.9603C6.57562 26.8589 6.69591 23.3053 17.3756 7.06046Z" fill="white"/>
<path d="M15.1618 24.7975C15.1618 24.7975 11.1778 21.5833 9.08307 23.8132C6.98832 26.043 13.8848 26.6698 15.1618 24.7975Z" fill="white"/>
<path d="M7.03122 12.9579C7.03122 12.9579 11.0505 16.5591 8.638 18.8004C6.2255 21.0417 6.18824 16.8739 7.03122 12.9579Z" fill="white"/>
<path d="M17.319 19.6776C17.319 19.6776 11.2137 23.2702 10.8661 20.6C10.5184 17.9298 15.0295 18.546 17.319 19.6776Z" fill="white"/>
<path d="M4.37497 19.43C4.37497 19.43 8.39791 20.6 6.92854 23.5014C5.45917 26.4028 4.4356 22.0663 4.37497 19.43Z" fill="white"/>
<path d="M15.8772 49.8677C15.8772 49.8677 14.1091 51.9374 12.0052 50.6472C9.90129 49.3571 16.0544 49.5481 15.8772 49.8677Z" fill="white"/>
<path d="M14.4426 28.8421C14.4426 28.8421 8.47878 31.8321 8.00113 28.992C7.52349 26.152 12.7913 27.57 14.4426 28.8421Z" fill="white"/>
<path d="M1.49853 24.4637C1.49853 24.4637 6.86942 25.5855 5.62645 28.5122C4.38349 31.439 1.82418 27.1712 1.49853 24.4637Z" fill="white"/>
<path d="M13.7235 33.1477C13.7235 33.1477 8.56942 29.6321 8.02271 33.3898C7.47601 37.1475 11.3614 34.2283 13.7235 33.1477Z" fill="white"/>
<path d="M0.779778 30.2166C0.779778 30.2166 5.64313 30.2166 5.0431 32.7878C4.44308 35.359 1.71534 32.5574 0.779778 30.2166Z" fill="white"/>
<path d="M0.0712462 34.531C0.0712462 34.531 7.0952 35.505 5.60612 37.5367C4.11704 39.5684 -0.181616 35.8003 0.0712462 34.531Z" fill="white"/>
<path d="M13.0044 36.9123C13.0044 36.9123 9.66687 34.7632 8.27491 36.9542C6.88296 39.1453 10.5815 39.803 13.0044 36.9123Z" fill="white"/>
<path d="M0.0605469 39.4452C0.0605469 39.4452 5.7055 37.6482 5.81145 40.2776C5.9174 42.9071 1.56926 41.5326 0.0605469 39.4452Z" fill="white"/>
<path d="M13.7236 41.7842C13.7236 41.7842 11.9829 39.122 9.40488 40.8901C6.82682 42.6582 11.9128 42.8547 13.7236 41.7842Z" fill="white"/>
<path d="M1.49853 44.3935C1.49853 44.3935 5.83466 41.7208 6.46362 44.2448C7.09259 46.7689 3.23548 46.448 1.49853 44.3935Z" fill="white"/>
<path d="M14.4423 44.9639C14.4423 44.9639 12.4413 41.8281 10.103 43.8261C7.76471 45.824 11.8716 47.0246 14.4423 44.9639Z" fill="white"/>
<path d="M2.93699 48.6522C2.93699 48.6522 7.05217 45.2056 7.86103 47.6057C8.66989 50.0058 4.8007 50.1674 2.93699 48.6522Z" fill="white"/>
<path d="M15.1617 47.3039C15.1617 47.3039 11.4254 45.801 10.8929 47.7735C10.3604 49.7461 14.6336 48.8744 15.1617 47.3039Z" fill="white"/>
<path d="M5.81343 51.8204C5.81343 51.8204 8.17401 49.1393 9.19965 51.0208C10.2253 52.9024 7.22164 52.797 5.81343 51.8204Z" fill="white"/>
<path d="M15.8807 51.9563C15.8807 51.9563 13.3479 51.2762 13.0271 52.6636C12.7063 54.051 15.8807 52.5121 15.8807 51.9563Z" fill="white"/>
<path d="M7.97064 53.9993C7.97064 53.9993 10.9467 52.4162 10.8445 53.785C10.7422 55.1538 8.44394 54.6859 7.97064 53.9993Z" fill="white"/>
<path d="M16.5999 53.2276C16.5999 53.2276 13.7291 53.2714 13.7235 54.2407C13.718 55.2099 16.3791 54.3721 16.5999 53.2276Z" fill="white"/>
<path d="M10.1279 55.2318C10.1279 55.2318 11.7696 54.2935 12.2177 54.8337C12.6658 55.374 10.7584 55.5389 10.1279 55.2318Z" fill="white"/>
<path d="M11.5663 56.5759C11.5663 56.5759 13.0632 55.717 13.0027 56.3169C12.9423 56.9168 11.9382 56.9577 11.5663 56.5759Z" fill="white"/>
<path d="M15.8699 55.3853C15.8699 55.3853 14.9233 55.3853 14.5021 55.3853C14.0809 55.3853 16.045 55.3853 15.8699 55.3853Z" fill="white"/>
<path d="M472.701 0.735663C472.701 0.735663 473.387 6.24494 478.012 6.36564C479.206 3.81361 475.27 0.636513 472.701 0.735663Z" fill="white"/>
<path d="M479.853 10.9439C479.853 10.9439 479.913 7.24083 474.425 8.93931C473.818 9.8489 478.628 12.9182 479.853 10.9439Z" fill="white"/>
<path d="M481.176 2.76605C481.176 2.76605 478.59 7.27521 481.211 9.70653C483.832 12.1379 482.573 6.08972 481.176 2.76605Z" fill="white"/>
<path d="M476.258 14.4743C476.258 14.4743 480.969 18.2506 483.211 16.1469C483.651 14.0648 478.991 12.3749 476.258 14.4743Z" fill="white"/>
<path d="M484.595 7.0466C484.595 7.0466 481.965 12.7412 484.797 14.2673C487.63 15.7933 485.642 8.06396 484.595 7.0466Z" fill="white"/>
<path d="M478.698 6.94322C478.698 6.94322 477.296 5.5077 478.516 7.17169C481.771 11.6033 490.682 24.3246 488.97 37.0977C486.854 52.884 478.016 60.0271 472.968 64.3854C473.106 64.8553 473.399 64.713 473.399 64.713C473.399 64.713 487.625 55.1989 489.565 36.9037C489.539 26.7818 489.41 23.221 478.698 6.94322Z" fill="white"/>
<path d="M480.573 24.7384C480.573 24.7384 484.5 21.2897 486.569 23.6822C488.638 26.0748 481.831 26.7473 480.573 24.7384Z" fill="white"/>
<path d="M488.75 13.1295C488.75 13.1295 485.026 16.8282 487.267 19.1302C489.509 21.4322 489.526 17.1515 488.75 13.1295Z" fill="white"/>
<path d="M478.508 19.4318C478.508 19.4318 484.711 23.4279 485.065 20.4577C485.418 17.4876 480.831 18.173 478.508 19.4318Z" fill="white"/>
<path d="M491.85 19.1776C491.85 19.1776 486.983 20.4708 488.759 23.6781C490.535 26.8854 491.772 22.0917 491.85 19.1776Z" fill="white"/>
<path d="M480.37 49.7071C480.37 49.7071 482 51.9961 483.948 50.5692C485.897 49.1423 480.198 49.3536 480.37 49.7071Z" fill="white"/>
<path d="M481.741 28.8769C481.741 28.8769 487.388 32.0583 487.841 29.0364C488.293 26.0144 483.301 27.5232 481.741 28.8769Z" fill="white"/>
<path d="M494.208 24.4195C494.208 24.4195 489.16 25.5662 490.328 28.5579C491.496 31.5497 493.902 27.1871 494.208 24.4195Z" fill="white"/>
<path d="M482.344 32.9982C482.344 32.9982 487.668 29.6271 488.233 33.231C488.798 36.8349 484.784 34.0371 482.344 32.9982Z" fill="white"/>
<path d="M495.475 30.3082C495.475 30.3082 490.164 30.3082 490.824 33.0499C491.483 35.7916 494.454 32.8042 495.475 30.3082Z" fill="white"/>
<path d="M495.773 34.4767C495.773 34.4767 489.337 35.4294 490.677 37.4167C492.018 39.404 496.006 35.7183 495.773 34.4767Z" fill="white"/>
<path d="M482.642 37.2142C482.642 37.2142 486.229 35.0027 487.725 37.2573C489.221 39.5118 485.246 40.1886 482.642 37.2142Z" fill="white"/>
<path d="M495.881 39.6582C495.881 39.6582 490.138 37.8433 490.031 40.4988C489.923 43.1543 494.346 41.7662 495.881 39.6582Z" fill="white"/>
<path d="M482.155 41.788C482.155 41.788 483.879 38.9256 486.388 40.8439C488.897 42.7623 483.931 42.939 482.155 41.788Z" fill="white"/>
<path d="M494.277 44.3486C494.277 44.3486 489.789 41.4043 489.138 44.1848C488.487 46.9653 492.479 46.6118 494.277 44.3486Z" fill="white"/>
<path d="M481.776 44.9005C481.776 44.9005 483.668 41.8829 485.88 43.8056C488.091 45.7282 484.211 46.8835 481.776 44.9005Z" fill="white"/>
<path d="M492.854 48.8622C492.854 48.8622 488.599 45.185 487.763 47.7457C486.927 50.3063 490.936 50.4787 492.854 48.8622Z" fill="white"/>
<path d="M481.103 47.06C481.103 47.06 484.758 45.3357 485.284 47.5989C485.81 49.8621 481.616 48.862 481.103 47.06Z" fill="white"/>
<path d="M490.048 51.776C490.048 51.776 487.543 49.362 486.457 51.0561C485.371 52.7503 488.543 52.6555 490.048 51.776Z" fill="white"/>
<path d="M479.93 51.7375C479.93 51.7375 482.517 50.9831 482.845 52.522C483.172 54.061 479.93 52.3539 479.93 51.7375Z" fill="white"/>
<path d="M488.263 53.6686C488.263 53.6686 484.875 52.108 484.991 53.4573C485.108 54.8066 487.724 54.3454 488.263 53.6686Z" fill="white"/>
<path d="M479.672 53.384C479.672 53.384 481.913 53.4185 481.918 54.1815C481.922 54.9446 479.853 54.285 479.672 53.384Z" fill="white"/>
<path d="M486.142 55.3112C486.142 55.3112 484.358 53.8887 483.875 54.7077C483.392 55.5268 485.457 55.7768 486.142 55.3112Z" fill="white"/>
<path d="M484.288 56.3846C484.288 56.3846 482.896 55.5699 482.952 56.1389C483.008 56.7079 483.939 56.7467 484.288 56.3846Z" fill="white"/>
<path d="M480.12 55.2462C480.12 55.2462 480.982 54.8152 481.366 55.3325C481.749 55.8498 479.96 55.5178 480.12 55.2462Z" fill="white"/>
</svg>
