<svg width="449" height="153" viewBox="0 0 449 153" fill="none" xmlns="http://www.w3.org/2000/svg">
<path d="M0.285156 31.4688H12.8535C17.1895 31.4688 20.4414 32.2891 22.6094 33.9297C24.8359 35.5703 25.9492 38.3535 25.9492 42.2793V112.24C25.8906 116.166 24.7773 118.979 22.6094 120.678C20.4414 122.377 17.3652 123.227 13.3809 123.227H11.0957V151H0.285156V31.4688ZM13.1172 115.404C14.8164 115.404 15.666 114.408 15.666 112.416V42.543C15.666 40.668 14.7871 39.7305 13.0293 39.7305H10.6562V115.404H13.1172Z" fill="#F4F4F4"/>
<path d="M32.0559 42.4551C32.0559 38.5293 33.1984 35.541 35.4836 33.4902C37.7687 31.4395 41.1379 30.4141 45.591 30.4141C50.0441 30.4141 53.384 31.498 55.6105 33.666C57.8957 35.7754 59.0383 38.9395 59.0383 43.1582V139.311C59.0383 147.865 54.5559 152.143 45.591 152.143C41.2551 152.143 38.0324 151.088 35.923 148.979C33.8723 146.869 32.5832 143.646 32.0559 139.311V42.4551ZM43.1301 140.277C43.1301 141.977 43.9504 142.826 45.591 142.826C47.2316 142.826 48.052 141.977 48.052 140.277V42.1914C48.052 40.4922 47.2316 39.6426 45.591 39.6426C43.9504 39.6426 43.1301 40.4922 43.1301 42.1914V140.277Z" fill="#F4F4F4"/>
<path d="M77.8891 152.23C69.3344 152.23 65.057 148.715 65.057 141.684V111.098H74.9887V141.771C74.9887 142.533 75.1937 143.148 75.6039 143.617C76.0727 144.086 76.6879 144.32 77.4496 144.32C78.2699 144.32 78.8852 144.115 79.2953 143.705C79.7641 143.236 79.9984 142.592 79.9984 141.771C79.9984 134.213 79.7934 127.885 79.3832 122.787C78.7973 114.057 77.8598 106.879 76.5707 101.254C75.2816 95.6289 73.5531 89.5059 71.3852 82.8848C69.9203 78.5488 68.7777 74.8574 67.9574 71.8105C67.1371 68.7051 66.434 65.0723 65.848 60.9121C65.3207 56.6934 65.057 51.8594 65.057 46.4102V40.9609C65.1156 37.3281 66.1703 34.6621 68.2211 32.9629C70.2719 31.2637 73.2895 30.4141 77.2738 30.4141C81.434 30.4141 84.5395 31.3223 86.5902 33.1387C88.6996 34.8965 89.7836 37.4746 89.8422 40.873V63.8125H80.0863V40.7852C80.0863 39.1445 79.266 38.3242 77.6254 38.3242C75.9848 38.3242 75.1645 39.1738 75.1645 40.873C75.1645 45.7949 75.3695 50.0723 75.7797 53.7051C76.2484 58.7441 76.9516 63.2266 77.8891 67.1523C78.8852 71.0195 80.2328 75.5605 81.932 80.7754C83.6898 86.4004 85.0961 91.3809 86.1508 95.7168C87.2641 100.053 88.2016 105.473 88.9633 111.977C89.725 118.48 90.1059 126.127 90.1059 134.916V142.035C90.0473 145.375 88.934 147.924 86.766 149.682C84.6566 151.381 81.6977 152.23 77.8891 152.23Z" fill="#F4F4F4"/>
<path d="M98.4977 40.1699H93.5758V31.4688H114.318V40.1699H109.308V151H98.4977V40.1699Z" fill="#F4F4F4"/>
<path d="M118.93 97.6504H138.794V105.736H118.93V97.6504Z" fill="#F4F4F4"/>
<path d="M145.164 31.4688H157.732C162.068 31.4688 165.32 32.2891 167.488 33.9297C169.715 35.5703 170.828 38.3535 170.828 42.2793V112.24C170.77 116.166 169.656 118.979 167.488 120.678C165.32 122.377 162.244 123.227 158.26 123.227H155.975V151H145.164V31.4688ZM157.996 115.404C159.695 115.404 160.545 114.408 160.545 112.416V42.543C160.545 40.668 159.666 39.7305 157.908 39.7305H155.535V115.404H157.996Z" fill="#F4F4F4"/>
<path d="M202.863 93.959C202.863 97.4746 201.866 100.141 199.874 101.957L202.863 151H192.491L190.821 104.682H187.57V151H177.198V31.4688H189.767C194.103 31.4688 197.355 32.2891 199.523 33.9297C201.749 35.5703 202.863 38.3535 202.863 42.2793V93.959ZM190.03 97.4746C191.73 97.4746 192.579 96.3613 192.579 94.1348V42.543C192.579 40.668 191.7 39.7305 189.943 39.7305H187.57V97.4746H190.03Z" fill="#F4F4F4"/>
<path d="M208.793 42.4551C208.793 38.5293 209.936 35.541 212.221 33.4902C214.506 31.4395 217.875 30.4141 222.329 30.4141C226.782 30.4141 230.121 31.498 232.348 33.666C234.633 35.7754 235.776 38.9395 235.776 43.1582V139.311C235.776 147.865 231.293 152.143 222.329 152.143C217.993 152.143 214.77 151.088 212.661 148.979C210.61 146.869 209.321 143.646 208.793 139.311V42.4551ZM219.868 140.277C219.868 141.977 220.688 142.826 222.329 142.826C223.969 142.826 224.789 141.977 224.789 140.277V42.1914C224.789 40.4922 223.969 39.6426 222.329 39.6426C220.688 39.6426 219.868 40.4922 219.868 42.1914V140.277Z" fill="#F4F4F4"/>
<path d="M241.97 31.4688H254.978C259.373 31.4688 262.683 32.5234 264.91 34.6328C267.195 36.6836 268.337 39.7598 268.337 43.8613V138.607C268.337 142.709 267.195 145.814 264.91 147.924C262.683 149.975 259.373 151 254.978 151H241.97V31.4688ZM254.89 141.947C255.769 141.947 256.414 141.684 256.824 141.156C257.234 140.629 257.439 139.779 257.439 138.607V43.9492C257.439 42.7188 257.234 41.8398 256.824 41.3125C256.414 40.7852 255.769 40.5215 254.89 40.5215H252.517V141.947H254.89Z" fill="#F4F4F4"/>
<path d="M287.54 152.23C278.809 152.23 274.444 148.656 274.444 141.508V31.4688H285.079V140.629C285.079 142.621 285.899 143.617 287.54 143.617C289.18 143.617 290.001 142.621 290.001 140.629V31.4688H300.636V141.508C300.636 145.082 299.522 147.777 297.296 149.594C295.128 151.352 291.876 152.23 287.54 152.23Z" fill="#F4F4F4"/>
<path d="M320.102 152.143C311.137 152.143 306.654 147.865 306.654 139.311V43.1582C306.654 38.9395 307.768 35.7754 309.994 33.666C312.279 31.498 315.648 30.4141 320.102 30.4141C328.949 30.4141 333.461 34.5742 333.637 42.8945V88.5098H322.562V42.1914C322.562 40.4922 321.742 39.6426 320.102 39.6426C318.461 39.6426 317.641 40.4922 317.641 42.1914V140.277C317.641 141.977 318.461 142.826 320.102 142.826C321.742 142.826 322.562 141.977 322.562 140.277V94.0469H333.637V139.662C333.344 147.982 328.832 152.143 320.102 152.143Z" fill="#F4F4F4"/>
<path d="M352.839 152.143C343.874 152.143 339.392 147.865 339.392 139.311V43.1582C339.392 38.9395 340.505 35.7754 342.732 33.666C345.017 31.498 348.386 30.4141 352.839 30.4141C361.687 30.4141 366.198 34.5742 366.374 42.8945V88.5098H355.3V42.1914C355.3 40.4922 354.48 39.6426 352.839 39.6426C351.198 39.6426 350.378 40.4922 350.378 42.1914V140.277C350.378 141.977 351.198 142.826 352.839 142.826C354.48 142.826 355.3 141.977 355.3 140.277V94.0469H366.374V139.662C366.081 147.982 361.57 152.143 352.839 152.143Z" fill="#F4F4F4"/>
<path d="M372.569 31.4688H383.379V151H372.569V31.4688Z" fill="#F4F4F4"/>
<path d="M389.574 42.4551C389.574 38.5293 390.716 35.541 393.002 33.4902C395.287 31.4395 398.656 30.4141 403.109 30.4141C407.562 30.4141 410.902 31.498 413.129 33.666C415.414 35.7754 416.556 38.9395 416.556 43.1582V139.311C416.556 147.865 412.074 152.143 403.109 152.143C398.773 152.143 395.55 151.088 393.441 148.979C391.39 146.869 390.101 143.646 389.574 139.311V42.4551ZM400.648 140.277C400.648 141.977 401.468 142.826 403.109 142.826C404.75 142.826 405.57 141.977 405.57 140.277V42.1914C405.57 40.4922 404.75 39.6426 403.109 39.6426C401.468 39.6426 400.648 40.4922 400.648 42.1914V140.277ZM402.318 0.355469L412.162 0.619141L406.712 26.6348H398.802L402.318 0.355469Z" fill="#F4F4F4"/>
<path d="M422.751 31.4688H433.913L435.671 49.8379L440.505 117.514H441.208L438.923 31.4688H448.679V151H437.516L435.671 132.719L430.661 63.6367L429.958 63.5488L432.419 151H422.751V31.4688Z" fill="#F4F4F4"/>
</svg>
