<svg width="534" height="156" viewBox="0 0 534 156" fill="none" xmlns="http://www.w3.org/2000/svg">
<path d="M29.6406 154.162C28 154.982 25.6855 155.451 22.6973 155.568C22.1699 155.627 21.4082 155.656 20.4121 155.656C13.0293 155.656 9.25 152.053 9.07422 144.846V143.703C3.03906 142.473 0.0214844 138.342 0.0214844 131.311V35.1582C0.0214844 30.9395 1.13477 27.7754 3.36133 25.666C5.64648 23.498 9.01562 22.4141 13.4688 22.4141C22.4922 22.4141 27.0039 26.6621 27.0039 35.1582V131.311C27.0039 138.166 24.1035 142.268 18.3027 143.615L18.3906 144.846C18.5664 146.779 19.7676 147.746 21.9941 147.746C22.9902 147.746 23.957 147.629 24.8945 147.395L27.6191 146.691L29.6406 154.162ZM11.0078 132.277C11.0078 133.977 11.8281 134.826 13.4688 134.826C15.1094 134.826 15.9297 133.977 15.9297 132.277V34.1914C15.9297 32.4922 15.1094 31.6426 13.4688 31.6426C11.8281 31.6426 11.0078 32.4922 11.0078 34.1914V132.277Z" fill="#F4F4F4"/>
<path d="M46.2062 144.23C37.4758 144.23 33.1105 140.656 33.1105 133.508V23.4688H43.7453V132.629C43.7453 134.621 44.5656 135.617 46.2062 135.617C47.8469 135.617 48.6672 134.621 48.6672 132.629V23.4688H59.302V133.508C59.302 137.082 58.1887 139.777 55.9621 141.594C53.7941 143.352 50.5422 144.23 46.2062 144.23Z" fill="#F4F4F4"/>
<path d="M65.5844 23.4688H85.7113V31.6426H76.4828V80.1582H83.7777V87.0137H76.4828V135.002H85.7992V143H65.5844V23.4688Z" fill="#F4F4F4"/>
<path d="M103.244 144.23C94.6891 144.23 90.4117 140.715 90.4117 133.684V103.098H100.343V133.771C100.343 134.533 100.548 135.148 100.959 135.617C101.427 136.086 102.043 136.32 102.804 136.32C103.625 136.32 104.24 136.115 104.65 135.705C105.119 135.236 105.353 134.592 105.353 133.771C105.353 126.213 105.148 119.885 104.738 114.787C104.152 106.057 103.214 98.8789 101.925 93.2539C100.636 87.6289 98.9078 81.5059 96.7398 74.8848C95.275 70.5488 94.1324 66.8574 93.3121 63.8105C92.4918 60.7051 91.7887 57.0723 91.2027 52.9121C90.6754 48.6934 90.4117 43.8594 90.4117 38.4102V32.9609C90.4703 29.3281 91.525 26.6621 93.5758 24.9629C95.6266 23.2637 98.6441 22.4141 102.629 22.4141C106.789 22.4141 109.894 23.3223 111.945 25.1387C114.054 26.8965 115.138 29.4746 115.197 32.873V55.8125H105.441V32.7852C105.441 31.1445 104.621 30.3242 102.98 30.3242C101.339 30.3242 100.519 31.1738 100.519 32.873C100.519 37.7949 100.724 42.0723 101.134 45.7051C101.603 50.7441 102.306 55.2266 103.244 59.1523C104.24 63.0195 105.588 67.5605 107.287 72.7754C109.045 78.4004 110.451 83.3809 111.505 87.7168C112.619 92.0527 113.556 97.4727 114.318 103.977C115.08 110.48 115.461 118.127 115.461 126.916V134.035C115.402 137.375 114.289 139.924 112.121 141.682C110.011 143.381 107.052 144.23 103.244 144.23Z" fill="#F4F4F4"/>
<path d="M121.479 34.4551C121.479 30.5293 122.622 27.541 124.907 25.4902C127.192 23.4395 130.561 22.4141 135.014 22.4141C139.468 22.4141 142.807 23.498 145.034 25.666C147.319 27.7754 148.462 30.9395 148.462 35.1582V131.311C148.462 139.865 143.979 144.143 135.014 144.143C130.679 144.143 127.456 143.088 125.346 140.979C123.296 138.869 122.007 135.646 121.479 131.311V34.4551ZM132.554 132.277C132.554 133.977 133.374 134.826 135.014 134.826C136.655 134.826 137.475 133.977 137.475 132.277V34.1914C137.475 32.4922 136.655 31.6426 135.014 31.6426C133.374 31.6426 132.554 32.4922 132.554 34.1914V132.277Z" fill="#F4F4F4"/>
<path d="M154.568 122.609H164.676L160.457 154.514H152.283L154.568 122.609Z" fill="#F4F4F4"/>
<path d="M187.963 23.4688H208.09V31.6426H198.862V80.1582H206.157V87.0137H198.862V135.002H208.178V143H187.963V23.4688Z" fill="#F4F4F4"/>
<path d="M212.791 23.4688H223.601V134.562H230.896V143H212.791V23.4688Z" fill="#F4F4F4"/>
<path d="M253.656 23.4688H264.818L266.576 41.8379L271.41 109.514H272.113L269.828 23.4688H279.584V143H268.422L266.576 124.719L261.566 55.6367L260.863 55.5488L263.324 143H253.656V23.4688Z" fill="#F4F4F4"/>
<path d="M286.042 23.4688H296.853V143H286.042V23.4688Z" fill="#F4F4F4"/>
<path d="M303.311 23.4688H314.473L316.231 41.8379L321.065 109.514H321.768L319.483 23.4688H329.239V143H318.077L316.231 124.719L311.221 55.6367L310.518 55.5488L312.979 143H303.311V23.4688ZM305.948 7.73633C305.948 4.98242 306.475 3.01953 307.53 1.84766C308.643 0.675781 310.489 0.0898438 313.067 0.0898438C315.118 0.0898438 316.582 0.441406 317.461 1.14453C318.34 1.78906 318.809 2.93164 318.868 4.57227L318.955 12.3066C319.014 13.5371 319.336 14.1523 319.922 14.1523C320.45 14.1523 320.713 13.4199 320.713 11.9551V0.177734H326.866V12.1309C326.866 14.8848 326.309 16.8477 325.196 18.0195C324.141 19.1328 322.325 19.6895 319.746 19.6895C317.754 19.6895 316.289 19.3672 315.352 18.7227C314.473 18.0195 314.004 16.8477 313.946 15.207L313.858 7.47266C313.799 6.24219 313.477 5.62695 312.891 5.62695C312.364 5.62695 312.1 6.35938 312.1 7.82422V19.6016H305.948V7.73633Z" fill="#F4F4F4"/>
<path d="M335.433 34.4551C335.433 30.5293 336.576 27.541 338.861 25.4902C341.146 23.4395 344.515 22.4141 348.968 22.4141C353.421 22.4141 356.761 23.498 358.988 25.666C361.273 27.7754 362.416 30.9395 362.416 35.1582V131.311C362.416 139.865 357.933 144.143 348.968 144.143C344.632 144.143 341.41 143.088 339.3 140.979C337.25 138.869 335.961 135.646 335.433 131.311V34.4551ZM346.507 132.277C346.507 133.977 347.328 134.826 348.968 134.826C350.609 134.826 351.429 133.977 351.429 132.277V34.1914C351.429 32.4922 350.609 31.6426 348.968 31.6426C347.328 31.6426 346.507 32.4922 346.507 34.1914V132.277Z" fill="#F4F4F4"/>
<path d="M386.055 23.4688H398.623C402.959 23.4688 406.211 24.2891 408.379 25.9297C410.605 27.5703 411.719 30.3535 411.719 34.2793V104.24C411.66 108.166 410.547 110.979 408.379 112.678C406.211 114.377 403.135 115.227 399.15 115.227H396.865V143H386.055V23.4688ZM398.887 107.404C400.586 107.404 401.436 106.408 401.436 104.416V34.543C401.436 32.668 400.557 31.7305 398.799 31.7305H396.426V107.404H398.887Z" fill="#F4F4F4"/>
<path d="M418.089 23.4688H438.216V31.6426H428.987V80.1582H436.282V87.0137H428.987V135.002H438.304V143H418.089V23.4688Z" fill="#F4F4F4"/>
<path d="M468.58 85.959C468.58 89.4746 467.584 92.1406 465.592 93.957L468.58 143H458.209L456.539 96.6816H453.288V143H442.916V23.4688H455.485C459.821 23.4688 463.073 24.2891 465.241 25.9297C467.467 27.5703 468.58 30.3535 468.58 34.2793V85.959ZM455.748 89.4746C457.448 89.4746 458.297 88.3613 458.297 86.1348V34.543C458.297 32.668 457.418 31.7305 455.661 31.7305H453.288V89.4746H455.748Z" fill="#F4F4F4"/>
<path d="M500.439 85.959C500.439 89.4746 499.443 92.1406 497.451 93.957L500.439 143H490.068L488.398 96.6816H485.146V143H474.775V23.4688H487.343C491.679 23.4688 494.931 24.2891 497.099 25.9297C499.326 27.5703 500.439 30.3535 500.439 34.2793V85.959ZM487.607 89.4746C489.306 89.4746 490.156 88.3613 490.156 86.1348V34.543C490.156 32.668 489.277 31.7305 487.519 31.7305H485.146V89.4746H487.607Z" fill="#F4F4F4"/>
<path d="M506.37 34.4551C506.37 30.5293 507.513 27.541 509.798 25.4902C512.083 23.4395 515.452 22.4141 519.905 22.4141C524.358 22.4141 527.698 23.498 529.925 25.666C532.21 27.7754 533.352 30.9395 533.352 35.1582V131.311C533.352 139.865 528.87 144.143 519.905 144.143C515.569 144.143 512.346 143.088 510.237 140.979C508.186 138.869 506.897 135.646 506.37 131.311V34.4551ZM517.444 132.277C517.444 133.977 518.264 134.826 519.905 134.826C521.546 134.826 522.366 133.977 522.366 132.277V34.1914C522.366 32.4922 521.546 31.6426 519.905 31.6426C518.264 31.6426 517.444 32.4922 517.444 34.1914V132.277Z" fill="#F4F4F4"/>
</svg>
