<svg width="906" height="300" viewBox="0 0 906 300" fill="none" xmlns="http://www.w3.org/2000/svg">
<path d="M8.20435 24.026H0V2.5974H34.5755V24.026H26.2246V296.97H8.20435V24.026Z" fill="#F4F4F4"/>
<path d="M91.0448 156.493C91.0448 165.152 89.3844 171.717 86.0636 176.19L91.0448 296.97H73.7571L70.9734 182.9H65.5527V296.97H48.265V2.5974H69.2154C76.443 2.5974 81.8637 4.6176 85.4776 8.65801C89.189 12.6984 91.0448 19.5527 91.0448 29.2208V156.493ZM69.6549 165.152C72.4873 165.152 73.9036 162.41 73.9036 156.926V29.8701C73.9036 25.2525 72.4385 22.9437 69.5084 22.9437H65.5527V165.152H69.6549Z" fill="#F4F4F4"/>
<path d="M131.398 246.97H123.78L122.901 296.97H105.027L116.748 2.5974H138.431L150.298 296.97H132.277L131.398 246.97ZM130.959 229.221L128.029 67.0996H127.15L124.22 229.221H130.959Z" fill="#F4F4F4"/>
<path d="M164.72 2.5974H186.256C193.582 2.5974 198.953 4.4733 202.372 8.22511C205.79 11.9769 207.5 17.8932 207.5 25.974V130.736C207.5 140.548 205.204 147.114 200.614 150.433C205.4 153.463 207.793 159.74 207.793 169.264V273.593C207.793 281.674 206.083 287.59 202.665 291.342C199.344 295.094 193.972 296.97 186.549 296.97H164.72V2.5974ZM184.059 141.558C188.258 141.558 190.358 138.528 190.358 132.468V27.9221C190.358 23.3045 188.893 20.9957 185.963 20.9957H182.008V141.558H184.059ZM185.963 278.355C188.893 278.355 190.358 276.118 190.358 271.645V167.532C190.358 161.328 188.258 158.225 184.059 158.225H182.008V278.355H185.963Z" fill="#F4F4F4"/>
<path d="M245.509 246.97H237.891L237.012 296.97H219.138L230.859 2.5974H252.541L264.408 296.97H246.388L245.509 246.97ZM245.07 229.221L242.14 67.0996H241.26L238.33 229.221H245.07Z" fill="#F4F4F4"/>
<path d="M276.486 276.84H280.882C283.714 276.84 285.13 274.531 285.13 269.913V2.5974H303.151V270.996C303.151 288.312 297.486 296.97 286.156 296.97H276.486V276.84Z" fill="#F4F4F4"/>
<path d="M319.477 2.5974H353.027V22.7273H337.644V142.208H349.804V159.091H337.644V277.273H353.174V296.97H319.477V2.5974Z" fill="#F4F4F4"/>
<path d="M366.863 2.5974H390.011L397.336 224.675H398.215L405.834 2.5974H428.982V296.97H412.866L415.796 80.9524H414.624L404.515 296.97H391.183L380.488 80.7359H379.316L382.979 296.97H366.863V2.5974Z" fill="#F4F4F4"/>
<path d="M445.162 29.6537C445.162 19.9856 447.066 12.6263 450.876 7.57576C454.685 2.52525 460.301 0 467.724 0C475.147 0 480.714 2.66955 484.426 8.00866C488.235 13.2035 490.139 20.9957 490.139 31.3853V268.182C490.139 289.25 482.668 299.784 467.724 299.784C460.496 299.784 455.124 297.186 451.608 291.991C448.19 286.797 446.041 278.86 445.162 268.182V29.6537ZM463.622 270.563C463.622 274.747 464.989 276.84 467.724 276.84C470.459 276.84 471.826 274.747 471.826 270.563V29.0043C471.826 24.8196 470.459 22.7273 467.724 22.7273C464.989 22.7273 463.622 24.8196 463.622 29.0043V270.563Z" fill="#F4F4F4"/>
<path d="M527.563 300C513.303 300 506.173 291.342 506.173 274.026V198.701H522.728V274.242C522.728 276.118 523.07 277.633 523.754 278.788C524.535 279.942 525.561 280.519 526.83 280.519C528.198 280.519 529.223 280.014 529.907 279.004C530.688 277.85 531.079 276.263 531.079 274.242C531.079 255.628 530.737 240.043 530.053 227.489C529.077 205.988 527.514 188.312 525.365 174.459C523.216 160.606 520.335 145.527 516.721 129.221C514.28 118.543 512.375 109.452 511.008 101.948C509.64 94.3001 508.468 85.3535 507.492 75.1082C506.612 64.7186 506.173 52.8139 506.173 39.3939V25.974C506.271 17.0274 508.029 10.4618 511.447 6.27706C514.866 2.09235 519.896 0 526.537 0C533.472 0 538.648 2.23665 542.067 6.70996C545.583 11.039 547.39 17.3882 547.488 25.7576V82.2511H531.226V25.5411C531.226 21.5007 529.858 19.4805 527.123 19.4805C524.389 19.4805 523.021 21.5729 523.021 25.7576C523.021 37.8788 523.363 48.4127 524.047 57.3593C524.828 69.7691 526 80.8081 527.563 90.4762C529.223 100 531.47 111.183 534.302 124.026C537.232 137.879 539.576 150.144 541.334 160.823C543.19 171.501 544.753 184.848 546.023 200.866C547.292 216.883 547.927 235.714 547.927 257.359V274.892C547.83 283.117 545.974 289.394 542.36 293.723C538.844 297.908 533.911 300 527.563 300Z" fill="#F4F4F4"/>
<path d="M597.136 276.84H601.531C604.363 276.84 605.78 274.531 605.78 269.913V2.5974H623.8V270.996C623.8 288.312 618.135 296.97 606.805 296.97H597.136V276.84Z" fill="#F4F4F4"/>
<path d="M661.809 300C647.256 300 639.98 291.198 639.98 273.593V2.5974H657.707V271.429C657.707 276.335 659.075 278.788 661.809 278.788C664.544 278.788 665.912 276.335 665.912 271.429V2.5974H683.639V273.593C683.639 282.395 681.783 289.033 678.072 293.507C674.458 297.836 669.037 300 661.809 300Z" fill="#F4F4F4"/>
<path d="M700.112 2.5974H718.718L721.648 47.8355L729.706 214.502H730.878L727.069 2.5974H743.331V296.97H724.725L721.648 251.948L713.297 81.8182L712.125 81.6017L716.228 296.97H700.112V2.5974Z" fill="#F4F4F4"/>
<path d="M765.372 24.026H757.167V2.5974H791.743V24.026H783.392V296.97H765.372V24.026Z" fill="#F4F4F4"/>
<path d="M803.235 29.6537C803.235 19.9856 805.139 12.6263 808.948 7.57576C812.758 2.52525 818.374 0 825.797 0C833.22 0 838.787 2.66955 842.498 8.00866C846.308 13.2035 848.212 20.9957 848.212 31.3853V268.182C848.212 289.25 840.74 299.784 825.797 299.784C818.569 299.784 813.197 297.186 809.681 291.991C806.263 286.797 804.114 278.86 803.235 268.182V29.6537ZM821.695 270.563C821.695 274.747 823.062 276.84 825.797 276.84C828.531 276.84 829.899 274.747 829.899 270.563V29.0043C829.899 24.8196 828.531 22.7273 825.797 22.7273C823.062 22.7273 821.695 24.8196 821.695 29.0043V270.563Z" fill="#F4F4F4"/>
<path d="M885.636 300C871.376 300 864.246 291.342 864.246 274.026V198.701H880.801V274.242C880.801 276.118 881.143 277.633 881.826 278.788C882.608 279.942 883.633 280.519 884.903 280.519C886.271 280.519 887.296 280.014 887.98 279.004C888.761 277.85 889.152 276.263 889.152 274.242C889.152 255.628 888.81 240.043 888.126 227.489C887.15 205.988 885.587 188.312 883.438 174.459C881.289 160.606 878.408 145.527 874.794 129.221C872.352 118.543 870.448 109.452 869.08 101.948C867.713 94.3001 866.541 85.3535 865.564 75.1082C864.685 64.7186 864.246 52.8139 864.246 39.3939V25.974C864.343 17.0274 866.102 10.4618 869.52 6.27706C872.938 2.09235 877.969 0 884.61 0C891.545 0 896.721 2.23665 900.14 6.70996C903.656 11.039 905.463 17.3882 905.56 25.7576V82.2511H889.298V25.5411C889.298 21.5007 887.931 19.4805 885.196 19.4805C882.461 19.4805 881.094 21.5729 881.094 25.7576C881.094 37.8788 881.436 48.4127 882.12 57.3593C882.901 69.7691 884.073 80.8081 885.636 90.4762C887.296 100 889.542 111.183 892.375 124.026C895.305 137.879 897.649 150.144 899.407 160.823C901.263 171.501 902.826 184.848 904.095 200.866C905.365 216.883 906 235.714 906 257.359V274.892C905.902 283.117 904.047 289.394 900.433 293.723C896.917 297.908 891.984 300 885.636 300Z" fill="#F4F4F4"/>
</svg>
