<svg width="1020" height="300" viewBox="0 0 1020 300" fill="none" xmlns="http://www.w3.org/2000/svg">
<path d="M65.2043 24.026H57V2.5974H91.5755V24.026H83.2246V296.97H65.2043V24.026Z" fill="#169BD8"/>
<path d="M148.045 156.494C148.045 165.152 146.384 171.717 143.064 176.19L148.045 296.97H130.757L127.973 182.9H122.553V296.97H105.265V2.5974H126.215C133.443 2.5974 138.864 4.6176 142.478 8.65801C146.189 12.6984 148.045 19.5527 148.045 29.2208V156.494ZM126.655 165.152C129.487 165.152 130.904 162.41 130.904 156.926V29.8701C130.904 25.2525 129.439 22.9437 126.508 22.9437H122.553V165.152H126.655Z" fill="#169BD8"/>
<path d="M188.398 246.97H180.78L179.901 296.97H162.027L173.748 2.5974H195.431L207.298 296.97H189.277L188.398 246.97ZM187.959 229.221L185.029 67.0996H184.15L181.22 229.221H187.959Z" fill="#169BD8"/>
<path d="M221.72 2.5974H243.256C250.582 2.5974 255.953 4.4733 259.372 8.22511C262.79 11.9769 264.5 17.8932 264.5 25.974V130.736C264.5 140.548 262.204 147.114 257.614 150.433C262.4 153.463 264.793 159.74 264.793 169.264V273.593C264.793 281.674 263.083 287.59 259.665 291.342C256.344 295.094 250.972 296.97 243.549 296.97H221.72V2.5974ZM241.059 141.558C245.258 141.558 247.358 138.528 247.358 132.468V27.9221C247.358 23.3045 245.893 20.9957 242.963 20.9957H239.008V141.558H241.059ZM242.963 278.355C245.893 278.355 247.358 276.118 247.358 271.645V167.532C247.358 161.328 245.258 158.225 241.059 158.225H239.008V278.355H242.963Z" fill="#169BD8"/>
<path d="M302.509 246.97H294.891L294.012 296.97H276.138L287.859 2.5974H309.541L321.408 296.97H303.388L302.509 246.97ZM302.07 229.221L299.14 67.0996H298.26L295.33 229.221H302.07Z" fill="#169BD8"/>
<path d="M333.486 276.84H337.882C340.714 276.84 342.13 274.531 342.13 269.913V2.5974H360.151V270.996C360.151 288.312 354.486 296.97 343.156 296.97H333.486V276.84Z" fill="#169BD8"/>
<path d="M376.477 2.5974H410.027V22.7273H394.644V142.208H406.804V159.091H394.644V277.273H410.174V296.97H376.477V2.5974Z" fill="#169BD8"/>
<path d="M423.863 2.5974H447.011L454.336 224.675H455.215L462.834 2.5974H485.982V296.97H469.866L472.796 80.9524H471.624L461.515 296.97H448.183L437.488 80.7359H436.316L439.979 296.97H423.863V2.5974Z" fill="#169BD8"/>
<path d="M502.162 29.6537C502.162 19.9856 504.067 12.6263 507.876 7.57576C511.685 2.52525 517.301 0 524.724 0C532.147 0 537.714 2.66955 541.426 8.00866C545.235 13.2035 547.139 20.9957 547.139 31.3853V268.182C547.139 289.25 539.668 299.784 524.724 299.784C517.496 299.784 512.124 297.186 508.608 291.991C505.19 286.797 503.041 278.86 502.162 268.182V29.6537ZM520.622 270.563C520.622 274.747 521.989 276.84 524.724 276.84C527.459 276.84 528.826 274.747 528.826 270.563V29.0043C528.826 24.8196 527.459 22.7273 524.724 22.7273C521.989 22.7273 520.622 24.8196 520.622 29.0043V270.563Z" fill="#169BD8"/>
<path d="M584.563 300C570.303 300 563.173 291.342 563.173 274.026V198.701H579.728V274.242C579.728 276.118 580.07 277.633 580.754 278.788C581.535 279.942 582.561 280.519 583.83 280.519C585.198 280.519 586.223 280.014 586.907 279.004C587.688 277.85 588.079 276.263 588.079 274.242C588.079 255.628 587.737 240.043 587.053 227.489C586.077 205.988 584.514 188.312 582.365 174.459C580.217 160.606 577.335 145.527 573.721 129.221C571.28 118.543 569.375 109.452 568.008 101.948C566.64 94.3001 565.468 85.3535 564.492 75.1082C563.612 64.7186 563.173 52.8139 563.173 39.3939V25.974C563.271 17.0274 565.029 10.4618 568.447 6.27706C571.866 2.09235 576.896 0 583.537 0C590.472 0 595.648 2.23665 599.067 6.70996C602.583 11.039 604.39 17.3882 604.488 25.7576V82.2511H588.226V25.5411C588.226 21.5007 586.858 19.4805 584.123 19.4805C581.389 19.4805 580.021 21.5729 580.021 25.7576C580.021 37.8788 580.363 48.4127 581.047 57.3593C581.828 69.7691 583 80.8081 584.563 90.4762C586.223 100 588.47 111.183 591.302 124.026C594.232 137.879 596.576 150.144 598.334 160.823C600.19 171.501 601.753 184.848 603.023 200.866C604.292 216.883 604.927 235.714 604.927 257.359V274.892C604.83 283.117 602.974 289.394 599.36 293.723C595.844 297.908 590.911 300 584.563 300Z" fill="#169BD8"/>
<path d="M654.136 276.84H658.531C661.363 276.84 662.78 274.531 662.78 269.913V2.5974H680.8V270.996C680.8 288.312 675.135 296.97 663.805 296.97H654.136V276.84Z" fill="#169BD8"/>
<path d="M718.809 300C704.256 300 696.98 291.198 696.98 273.593V2.5974H714.707V271.429C714.707 276.335 716.075 278.788 718.809 278.788C721.544 278.788 722.912 276.335 722.912 271.429V2.5974H740.639V273.593C740.639 282.395 738.783 289.033 735.072 293.506C731.458 297.835 726.037 300 718.809 300Z" fill="#169BD8"/>
<path d="M757.112 2.5974H775.718L778.648 47.8355L786.706 214.502H787.878L784.069 2.5974H800.331V296.97H781.725L778.648 251.948L770.298 81.8182L769.125 81.6017L773.228 296.97H757.112V2.5974Z" fill="#169BD8"/>
<path d="M822.372 24.026H814.167V2.5974H848.743V24.026H840.392V296.97H822.372V24.026Z" fill="#169BD8"/>
<path d="M860.235 29.6537C860.235 19.9856 862.139 12.6263 865.948 7.57576C869.758 2.52525 875.374 0 882.797 0C890.22 0 895.787 2.66955 899.498 8.00866C903.308 13.2035 905.212 20.9957 905.212 31.3853V268.182C905.212 289.25 897.74 299.784 882.797 299.784C875.569 299.784 870.197 297.186 866.681 291.991C863.263 286.797 861.114 278.86 860.235 268.182V29.6537ZM878.694 270.563C878.694 274.747 880.062 276.84 882.797 276.84C885.531 276.84 886.899 274.747 886.899 270.563V29.0043C886.899 24.8196 885.531 22.7273 882.797 22.7273C880.062 22.7273 878.694 24.8196 878.694 29.0043V270.563Z" fill="#169BD8"/>
<path d="M942.636 300C928.376 300 921.246 291.342 921.246 274.026V198.701H937.801V274.242C937.801 276.118 938.143 277.633 938.826 278.788C939.608 279.942 940.633 280.519 941.903 280.519C943.271 280.519 944.296 280.014 944.98 279.004C945.761 277.85 946.152 276.263 946.152 274.242C946.152 255.628 945.81 240.043 945.126 227.489C944.15 205.988 942.587 188.312 940.438 174.459C938.289 160.606 935.408 145.527 931.794 129.221C929.352 118.543 927.448 109.452 926.08 101.948C924.713 94.3001 923.541 85.3535 922.564 75.1082C921.685 64.7186 921.246 52.8139 921.246 39.3939V25.974C921.343 17.0274 923.101 10.4618 926.52 6.27706C929.938 2.09235 934.968 0 941.61 0C948.545 0 953.721 2.23665 957.14 6.70996C960.656 11.039 962.463 17.3882 962.56 25.7576V82.2511H946.298V25.5411C946.298 21.5007 944.931 19.4805 942.196 19.4805C939.461 19.4805 938.094 21.5729 938.094 25.7576C938.094 37.8788 938.436 48.4127 939.119 57.3593C939.901 69.7691 941.073 80.8081 942.636 90.4762C944.296 100 946.542 111.183 949.375 124.026C952.305 137.879 954.649 150.144 956.407 160.823C958.263 171.501 959.826 184.848 961.095 200.866C962.365 216.883 963 235.714 963 257.359V274.892C962.902 283.117 961.047 289.394 957.433 293.723C953.917 297.908 948.984 300 942.636 300Z" fill="#169BD8"/>
<rect y="140" width="1020" height="20" fill="#169BD8"/>
</svg>
