<svg width="215" height="153" viewBox="0 0 215 153" fill="none" xmlns="http://www.w3.org/2000/svg">
<path d="M5.44922 40.1699H0.527344V31.4688H21.2695V40.1699H16.2598V151H5.44922V40.1699Z" fill="#F4F4F4"/>
<path d="M51.5461 93.959C51.5461 97.4746 50.55 100.141 48.5578 101.957L51.5461 151H41.175L39.5051 104.682H36.2531V151H25.882V31.4688H38.4504C42.7863 31.4688 46.0383 32.2891 48.2062 33.9297C50.4328 35.5703 51.5461 38.3535 51.5461 42.2793V93.959ZM38.7141 97.4746C40.4133 97.4746 41.2629 96.3613 41.2629 94.1348V42.543C41.2629 40.668 40.384 39.7305 38.6262 39.7305H36.2531V97.4746H38.7141Z" fill="#F4F4F4"/>
<path d="M72.1547 130.697H67.5844L67.057 151H56.3344L63.3656 31.4688H76.3734L83.4926 151H72.682L72.1547 130.697ZM71.891 123.49L70.1332 57.6602H69.6059L67.848 123.49H71.891Z" fill="#F4F4F4"/>
<path d="M88.5445 31.4688H99.3551V151H88.5445V31.4688Z" fill="#F4F4F4"/>
<path d="M118.997 152.143C110.032 152.143 105.55 147.865 105.55 139.311V43.1582C105.55 38.9395 106.663 35.7754 108.889 33.666C111.175 31.498 114.544 30.4141 118.997 30.4141C127.845 30.4141 132.356 34.5742 132.532 42.8945V88.5098H121.458V42.1914C121.458 40.4922 120.637 39.6426 118.997 39.6426C117.356 39.6426 116.536 40.4922 116.536 42.1914V140.277C116.536 141.977 117.356 142.826 118.997 142.826C120.637 142.826 121.458 141.977 121.458 140.277V94.0469H132.532V139.662C132.239 147.982 127.727 152.143 118.997 152.143Z" fill="#F4F4F4"/>
<path d="M138.727 31.4688H149.537V151H138.727V31.4688Z" fill="#F4F4F4"/>
<path d="M155.732 42.4551C155.732 38.5293 156.874 35.541 159.159 33.4902C161.445 31.4395 164.814 30.4141 169.267 30.4141C173.72 30.4141 177.06 31.498 179.286 33.666C181.571 35.7754 182.714 38.9395 182.714 43.1582V139.311C182.714 147.865 178.232 152.143 169.267 152.143C164.931 152.143 161.708 151.088 159.599 148.979C157.548 146.869 156.259 143.646 155.732 139.311V42.4551ZM166.806 140.277C166.806 141.977 167.626 142.826 169.267 142.826C170.907 142.826 171.728 141.977 171.728 140.277V42.1914C171.728 40.4922 170.907 39.6426 169.267 39.6426C167.626 39.6426 166.806 40.4922 166.806 42.1914V140.277ZM168.476 0.355469L178.32 0.619141L172.87 26.6348H164.96L168.476 0.355469Z" fill="#F4F4F4"/>
<path d="M188.909 31.4688H200.071L201.829 49.8379L206.663 117.514H207.366L205.08 31.4688H214.836V151H203.674L201.829 132.719L196.819 63.6367L196.116 63.5488L198.577 151H188.909V31.4688Z" fill="#F4F4F4"/>
</svg>
